<?xml version="1.0" encoding="UTF-8" standalone="no"?>
<!-- Created with Inkscape (http://www.inkscape.org/) -->

<svg
   xmlns:dc="http://purl.org/dc/elements/1.1/"
   xmlns:cc="http://creativecommons.org/ns#"
   xmlns:rdf="http://www.w3.org/1999/02/22-rdf-syntax-ns#"
   xmlns:svg="http://www.w3.org/2000/svg"
   xmlns="http://www.w3.org/2000/svg"
   xmlns:xlink="http://www.w3.org/1999/xlink"
   xmlns:sodipodi="http://sodipodi.sourceforge.net/DTD/sodipodi-0.dtd"
   xmlns:inkscape="http://www.inkscape.org/namespaces/inkscape"
   width="512"
   height="512"
   id="svg2"
   version="1.1"
   inkscape:version="0.91 r13725"
   sodipodi:docname="folder-icub_B.svg"
   inkscape:export-filename="/home/alecive/Scrivania/firefoxTest1.png"
   inkscape:export-xdpi="100"
   inkscape:export-ydpi="100">
  <sodipodi:namedview
     id="base"
     pagecolor="#ffffff"
     bordercolor="#666666"
     borderopacity="1.0"
     inkscape:pageopacity="0.0"
     inkscape:pageshadow="2"
     inkscape:zoom="0.55"
     inkscape:cx="-155.75511"
     inkscape:cy="400.97464"
     inkscape:document-units="px"
     inkscape:current-layer="svg2"
     showgrid="true"
     inkscape:window-width="1920"
     inkscape:window-height="1013"
     inkscape:window-x="1920"
     inkscape:window-y="28"
     inkscape:window-maximized="1"
     inkscape:object-paths="false"
     inkscape:snap-intersection-paths="false"
     inkscape:object-nodes="true"
     inkscape:snap-smooth-nodes="true"
     inkscape:snap-nodes="true">
    <inkscape:grid
       type="xygrid"
       id="grid3805" />
  </sodipodi:namedview>
  <defs
     id="defs4">
    <linearGradient
       y2="20.625916"
       x2="1006.8082"
       y1="484.41721"
       x1="1012.5133"
       gradientTransform="matrix(1.0317796,0,0,1.0317796,-830.86406,592.67791)"
       gradientUnits="userSpaceOnUse"
       id="linearGradient4114-2-6"
       xlink:href="#ButtonShadow-0-1-1-5-9"
       inkscape:collect="always" />
    <linearGradient
       gradientTransform="matrix(1.0058652,0,0,0.994169,100,0)"
       gradientUnits="userSpaceOnUse"
       id="ButtonShadow-0-1-1-5-9"
       y2="7.0165396"
       x2="45.447727"
       y1="92.539597"
       x1="45.447727">
      <stop
         offset="0"
         style="stop-color:#000000;stop-opacity:1"
         id="stop3750-8-9-3-6-4" />
      <stop
         offset="1"
         style="stop-color:#000000;stop-opacity:0.58823532"
         id="stop3752-5-6-4-2-9" />
    </linearGradient>
    <linearGradient
       y2="20.625916"
       x2="1006.8082"
       y1="484.41721"
       x1="1012.5133"
       gradientTransform="matrix(1.0402541,0,0,1.0402541,-837.95116,592.51825)"
       gradientUnits="userSpaceOnUse"
       id="linearGradient4112-2-6"
       xlink:href="#ButtonShadow-0-1-1-5-9"
       inkscape:collect="always" />
    <linearGradient
       y2="20.625916"
       x2="1006.8082"
       y1="484.41721"
       x1="1012.5133"
       gradientTransform="matrix(1.023305,0,0,1.023305,-823.77704,592.83757)"
       gradientUnits="userSpaceOnUse"
       id="linearGradient4110-6-7"
       xlink:href="#ButtonShadow-0-1-1-5-9"
       inkscape:collect="always" />
    <linearGradient
       y2="20.625916"
       x2="1006.8082"
       y1="484.41721"
       x1="1012.5133"
       gradientTransform="matrix(1.0148305,0,0,1.0148305,-816.68996,592.99723)"
       gradientUnits="userSpaceOnUse"
       id="linearGradient4116-6-3"
       xlink:href="#ButtonShadow-0-1-1-5-9"
       inkscape:collect="always" />
    <linearGradient
       inkscape:collect="always"
       xlink:href="#ButtonShadow-0-1-1-5-9"
       id="linearGradient5342-3"
       gradientUnits="userSpaceOnUse"
       gradientTransform="matrix(1.0074153,0,0,1.0074153,-810.48879,593.1369)"
       x1="1012.5133"
       y1="484.41721"
       x2="1006.8082"
       y2="20.625916" />
    <linearGradient
       id="linearGradient3737-9">
      <stop
         offset="0"
         style="stop-color:#ffffff;stop-opacity:1"
         id="stop3739-7" />
      <stop
         offset="1"
         style="stop-color:#ffffff;stop-opacity:0"
         id="stop3741-4" />
    </linearGradient>
    <linearGradient
       id="linearGradient4046-3">
      <stop
         offset="0"
         style="stop-color:#000000;stop-opacity:1;"
         id="stop4048-7" />
      <stop
         offset="1"
         style="stop-color:#ffffff;stop-opacity:0.2"
         id="stop4050-73" />
    </linearGradient>
    <linearGradient
       id="linearGradient3874">
      <stop
         id="stop3876"
         style="stop-color:#ffffff;stop-opacity:1"
         offset="0" />
      <stop
         id="stop3878"
         style="stop-color:#ffffff;stop-opacity:0"
         offset="1" />
    </linearGradient>
    <clipPath
       id="clipPath3860">
      <rect
         width="84"
         height="72"
         rx="6"
         ry="6"
         x="6"
         y="18"
         id="rect3862"
         style="fill:#ff00ff;fill-opacity:1;fill-rule:nonzero;stroke:none" />
    </clipPath>
    <filter
       x="-0.16558799"
       y="-0.19715989"
       width="1.331176"
       height="1.3943198"
       color-interpolation-filters="sRGB"
       id="filter3870">
      <feGaussianBlur
         id="feGaussianBlur3872"
         stdDeviation="5.1703125" />
    </filter>
    <linearGradient
       id="linearGradient4008-4-7">
      <stop
         id="stop4010-2-0"
         style="stop-color:#222222;stop-opacity:1;"
         offset="0" />
      <stop
         id="stop4012-5-1"
         style="stop-color:#202020;stop-opacity:1;"
         offset="0.71691591" />
      <stop
         id="stop4014-6-6"
         style="stop-color:#181818;stop-opacity:1;"
         offset="1" />
    </linearGradient>
    <linearGradient
       inkscape:collect="always"
       xlink:href="#linearGradient3874"
       id="linearGradient3179"
       gradientUnits="userSpaceOnUse"
       x1="48.021698"
       y1="22.933374"
       x2="48.021698"
       y2="81.481377" />
    <linearGradient
       id="linearGradient3187-7-5">
      <stop
         id="stop3189-4-5"
         style="stop-color:#141414;stop-opacity:1;"
         offset="0" />
      <stop
         id="stop3191-1-8"
         style="stop-color:#181818;stop-opacity:1;"
         offset="1" />
    </linearGradient>
    <linearGradient
       inkscape:collect="always"
       xlink:href="#linearGradient4008-4-7"
       id="linearGradient3231"
       gradientUnits="userSpaceOnUse"
       gradientTransform="matrix(4.4715789,0,0,4.4715789,475.53325,-30.196581)"
       x1="34.85965"
       y1="16.275133"
       x2="34.994316"
       y2="28.905609" />
    <linearGradient
       inkscape:collect="always"
       xlink:href="#linearGradient4046-3"
       id="linearGradient3241"
       gradientUnits="userSpaceOnUse"
       x1="1764.6487"
       y1="155.59685"
       x2="1763.6903"
       y2="-55.941216"
       gradientTransform="translate(-1532.187,330.41615)" />
    <linearGradient
       inkscape:collect="always"
       xlink:href="#linearGradient3737-9"
       id="linearGradient3244"
       gradientUnits="userSpaceOnUse"
       gradientTransform="translate(-753.58721,-30.14348)"
       x1="993.43896"
       y1="51.511765"
       x2="988.78552"
       y2="363.73825" />
    <linearGradient
       inkscape:collect="always"
       xlink:href="#linearGradient3187-7-5"
       id="linearGradient3136"
       gradientUnits="userSpaceOnUse"
       gradientTransform="matrix(5.6190474,0,0,4.9043651,491.99998,58.207937)"
       x1="48"
       y1="78"
       x2="48"
       y2="5.9877172" />
    <linearGradient
       inkscape:collect="always"
       xlink:href="#linearGradient3737-8-0-1"
       id="linearGradient3133-9-1"
       gradientUnits="userSpaceOnUse"
       x1="36.357143"
       y1="16"
       x2="36.357143"
       y2="73.994667"
       gradientTransform="matrix(5.6190474,0,0,4.9043651,-110.76903,34.465266)" />
    <linearGradient
       id="linearGradient3737-8-0-1">
      <stop
         id="stop3739-8-3-5"
         style="stop-color:#ffffff;stop-opacity:1"
         offset="0" />
      <stop
         id="stop3741-8-0-2"
         style="stop-color:#ffffff;stop-opacity:0"
         offset="1" />
    </linearGradient>
  </defs>
  <metadata
     id="metadata7">
    <rdf:RDF>
      <cc:Work
         rdf:about="">
        <dc:format>image/svg+xml</dc:format>
        <dc:type
           rdf:resource="http://purl.org/dc/dcmitype/StillImage" />
        <dc:title></dc:title>
      </cc:Work>
    </rdf:RDF>
  </metadata>
  <g
     transform="translate(0,-540.36218)"
     inkscape:label="Livello 1"
     inkscape:groupmode="layer"
     id="layer1" />
  <g
     transform="matrix(1.1,0,0,0.44444,95.081063,256.39254)"
     id="g2036">
    <g
       transform="matrix(1.0526,0,0,1.2857,-1.2632,-13.429)"
       style="opacity:0.4"
       id="g3712" />
  </g>
  <g
     id="g3541"
     transform="translate(97.481063,231.28154)" />
  <g
     id="g3536"
     transform="translate(97.481063,231.28154)" />
  <g
     transform="translate(-11.985071,-592.11719)"
     id="g4103">
    <rect
       style="opacity:0.1;color:#000000;fill:url(#linearGradient4114-2-6);fill-opacity:1;fill-rule:nonzero;stroke:none;stroke-width:1.5;marker:none;visibility:visible;display:inline;overflow:visible;enable-background:accumulate"
       id="rect6187"
       width="487"
       height="487"
       x="31.985071"
       y="612.11719"
       ry="101.45834" />
    <rect
       ry="102.29167"
       y="612.11719"
       x="31.985071"
       height="491"
       width="491"
       id="rect6191"
       style="opacity:0.07999998;color:#000000;fill:url(#linearGradient4112-2-6);fill-opacity:1;fill-rule:nonzero;stroke:none;stroke-width:1.5;marker:none;visibility:visible;display:inline;overflow:visible;enable-background:accumulate" />
    <rect
       ry="100.62501"
       y="612.11719"
       x="31.985071"
       height="483"
       width="483"
       id="rect6183"
       style="opacity:0.2;color:#000000;fill:url(#linearGradient4110-6-7);fill-opacity:1;fill-rule:nonzero;stroke:none;stroke-width:1.5;marker:none;visibility:visible;display:inline;overflow:visible;enable-background:accumulate" />
    <rect
       style="opacity:0.25;color:#000000;fill:url(#linearGradient4116-6-3);fill-opacity:1;fill-rule:nonzero;stroke:none;stroke-width:1.5;marker:none;visibility:visible;display:inline;overflow:visible;enable-background:accumulate"
       id="rect6179"
       width="479"
       height="479"
       x="31.985071"
       y="612.11719"
       ry="99.791664" />
    <rect
       ry="99.0625"
       y="612.11719"
       x="31.985071"
       height="475.5"
       width="475.5"
       id="rect5574"
       style="opacity:0.25;color:#000000;fill:url(#linearGradient5342-3);fill-opacity:1;fill-rule:nonzero;stroke:none;stroke-width:1.5;marker:none;visibility:visible;display:inline;overflow:visible;enable-background:accumulate" />
  </g>
  <path
     inkscape:connector-curvature="0"
     id="rect5505"
     d="M 118.34375,20 C 63.867087,20 20,63.867084 20,118.34375 l 0,23.0625 0,252.25 C 20,448.13291 63.867087,492 118.34375,492 l 275.3125,0 C 448.13292,492 492,448.13291 492,393.65625 l 0,-252.25 0,-23.0625 C 492,63.867084 448.13292,20 393.65625,20 l -275.3125,0 z"
     style="fill:url(#linearGradient3231);stroke:none;color:#000000;fill-opacity:1;fill-rule:nonzero;stroke-width:1;marker:none;visibility:visible;display:inline;overflow:visible;enable-background:accumulate" />
  <g
     transform="translate(-605.51932,-353.96833)"
     id="g4076">
    <g
       id="g4038"
       transform="translate(-926.66758,684.38448)" />
  </g>
  <path
     id="rect6809-2-3"
     d="M 118.3124,20 C 63.8357,20 19.9999,63.83583 19.9999,118.3125 l 0,275.34375 C 19.9999,448.13292 63.8357,492 118.3124,492 l 2.9375,0 c -53.3225,0 -96.25,-42.9275 -96.25,-96.25 l 0,-269.5 C 24.9999,72.9275 67.9274,30 121.2499,30 L 390.75,30 C 444.0725,30 487,72.9275 487,126.25 l 0,269.5 C 487,449.0725 444.0725,492 390.75,492 l 2.9062,0 C 448.1329,492 492,448.13292 492,393.65625 L 492,118.3125 C 492,63.83583 448.1329,20 393.6562,20 l -275.3438,0 z"
     style="opacity:0.3;color:#000000;fill:url(#linearGradient3244);fill-opacity:1;fill-rule:nonzero;stroke:none;stroke-width:1.5;marker:none;visibility:visible;display:inline;overflow:visible;enable-background:accumulate"
     inkscape:connector-curvature="0" />
  <path
     style="color:#000000;fill:url(#linearGradient3136);fill-opacity:1;fill-rule:nonzero;stroke:none;stroke-width:1;marker:none;visibility:visible;display:inline;overflow:visible;enable-background:accumulate"
     d="M 67.0625 76.65625 C 42.85934 76.65625 20 95.7349 20 119.75 L 20 235.625 L 20 256.5625 L 20 352.75 L 20 393.65625 C 20 448.13291 63.867087 492 118.34375 492 L 393.65625 492 C 448.13292 492 492 448.13291 492 393.65625 L 492 352.75 L 492 256.5625 L 492 235.625 L 492 151.4375 C 492 127.42239 472.1407 108.34375 444.9375 108.34375 L 209.21875 108.34375 C 190.60301 89.019876 189.11124 79.81667 170.03125 76.65625 L 67.0625 76.65625 z "
     id="path3181" />
  <path
     inkscape:connector-curvature="0"
     style="opacity:0.2;color:#000000;fill:url(#linearGradient3241);fill-opacity:1;fill-rule:nonzero;stroke:none;stroke-width:1.5;marker:none;visibility:visible;display:inline;overflow:visible;enable-background:accumulate"
     d="M 118.3124,492 C 63.8357,492 19.9999,448.16417 19.9999,393.6875 l 0,-275.34375 C 19.9999,63.86708 63.8357,20 118.3124,20 l 2.9375,0 c -53.3225,0 -96.25,42.9275 -96.25,96.25 l 0,269.5 c 0,53.3225 42.9275,96.25 96.25,96.25 L 390.75,482 C 444.0725,482 487,439.0725 487,385.75 l 0,-269.5 C 487,62.9275 444.0725,20 390.75,20 l 2.9062,0 C 448.1329,20 492,63.86708 492,118.34375 l 0,275.34375 C 492,448.16417 448.1329,492 393.6562,492 l -275.3438,0 z"
     id="path3981-7" />
  <path
     d="m 15.96875,22.53125 c -2.845903,0.0043 -5.433244,2.591597 -5.4375,5.4375 l 0,48.0625 c 0.0043,2.845903 2.591597,5.433244 5.4375,5.4375 l 64.0625,0 c 2.845903,-0.0043 5.433244,-2.591597 5.4375,-5.4375 l 0,-48.0625 c -0.0043,-2.845903 -2.591597,-5.433244 -5.4375,-5.4375 z"
     inkscape:connector-curvature="0"
     clip-path="url(#clipPath3860)"
     id="path3850"
     style="opacity:0.15;fill:url(#linearGradient3179);fill-opacity:1;fill-rule:nonzero;stroke:none;display:inline;filter:url(#filter3870)"
     transform="matrix(5.6190474,0,0,4.9043651,599.66491,31.270067)" />
  <path
     style="color:#000000;fill:url(#linearGradient3133-9-1);fill-opacity:1;fill-rule:nonzero;stroke:none;stroke-width:1;marker:none;visibility:visible;display:inline;overflow:visible;enable-background:accumulate;opacity:0.34999999999999998"
     d="M 67.0625 76.65625 C 42.85934 76.65625 20 95.7349 20 119.75 L 20 129.75 C 20 105.7349 42.85934 86.65625 67.0625 86.65625 L 170.03125 86.65625 C 189.11124 89.81667 190.60301 99.019876 209.21875 118.34375 L 444.9375 118.34375 C 472.1407 118.34375 492 137.42239 492 161.4375 L 492 151.4375 C 492 127.42239 472.1407 108.34375 444.9375 108.34375 L 209.21875 108.34375 C 190.60301 89.019876 189.11124 79.81667 170.03125 76.65625 L 67.0625 76.65625 z "
     id="path3139" />
  <path
     style="fill:#000000;fill-opacity:0.15686275"
     d="m 247.58599,189.35884 c -8.90075,0.11892 -17.19315,0.67275 -24.0625,1.71875 -47.88508,7.29147 -84.73575,53.342 -87.28125,109.0625 -1.24351,27.2206 8.04499,53.67823 25.5,72.53125 1.03552,1.11846 2.0387,2.14591 3.03125,3.125 l 106.5312,106.53125 127.46875,0 c 54.47672,0 98.3438,-43.86709 98.3438,-98.34375 l 0,-24.15625 -139.125,-139.125 c -10.11187,-10.41863 -24.45401,-18.09842 -43.59375,-24.09375 -14.57015,-4.56395 -40.18675,-7.24777 -62.9375,-7.25 -1.29266,-10e-5 -2.60346,-0.017 -3.875,0 z m 4.96875,132.59375 c 5.3134,0 5.83795,5.42367 4.1875,7.15625 -1.46742,1.54047 -4.50839,2.42349 -6.5625,1 -3.40032,-2.35641 -2.30693,-8.15625 2.375,-8.15625 z"
     id="path6546"
     inkscape:connector-curvature="0"
     sodipodi:nodetypes="ssssccssccscsssss" />
  <path
     d="m 362.36965,327.56784 c -4.45377,-4.88891 -5.69723,-8.36989 -5.63603,-15.77771 0.10865,-13.16691 8.41685,-27.86884 11.38206,-20.14157 0.48123,1.254 -0.29294,2.82533 -1.97098,4.0007 -6.13514,4.29721 -7.33664,19.92283 -2.12275,27.60595 3.85249,5.67699 2.59074,8.97028 -1.6523,4.31263 z M 251.44906,189.34621 c -10.34125,-7.8e-4 -20.08799,0.53785 -27.93867,1.73328 -47.88508,7.29147 -84.73708,53.35175 -87.28258,109.07225 -1.24351,27.2206 8.04884,53.65548 25.50385,72.5085 9.941,10.73722 17.33683,14.75826 33.09722,17.95172 l 10.77104,2.18724 12.54558,-4.04432 c 7.26506,-2.32716 17.15124,-4.36099 23.52296,-4.86964 14.34025,-1.14475 14.32012,-1.10649 14.32012,-15.14549 l 0,-11.67894 5.65377,-3.87922 c 3.1035,-2.13527 8.03127,-6.50191 10.97739,-9.69807 21.21085,-23.01107 16.53142,-55.15079 -9.61554,-65.9881 l -6.93308,-2.88879 -0.37142,-42.09371 -0.37141,-40.443 c 0.72653,-0.10287 2.03955,-0.1137 3.83796,-0.0825 3.02795,0.0525 8.2401,0.60057 15.55816,1.27931 36.2279,3.36007 67.22453,15.45879 81.505,30.95127 14.73423,15.98477 20.50689,44.96766 15.31058,76.59407 -3.32979,20.26598 -1.8355,30.4089 5.28233,36.31616 5.27774,4.38011 6.13225,8.64315 3.2602,15.92957 -1.47176,3.73393 -3.25875,11.31997 -4.003,16.87875 -2.4586,18.36266 -6.01834,23.8192 -17.78666,27.36095 -8.80546,2.65004 -12.9944,2.39296 -24.38962,-1.4857 -23.54726,-8.0149 -61.8437,-16.89439 -64.87386,-15.02168 -2.81633,1.74063 -0.70115,2.67686 12.29797,5.28239 6.7741,1.35776 15.2693,3.33658 18.90091,4.41569 3.63162,1.0791 12.95664,3.70427 20.71672,5.86014 7.76007,2.15581 15.18837,4.55646 16.50734,5.32359 3.40181,1.97858 14.78363,1.81562 21.9135,-0.33016 C 372.57913,397.36514 377.78029,389.94782 380,372 c 0.72681,-5.87692 2.55412,-13.86007 4.08558,-17.74541 3.28583,-8.33626 2.81339,-11.12725 -3.09515,-18.19934 -7.51478,-8.99463 -8.19304,-12.01542 -6.19024,-26.53555 9.13133,-66.20065 -6.88784,-96.14279 -60.41688,-112.91023 -14.57014,-4.56395 -40.1835,-7.261 -62.93425,-7.26323 z m 1.11425,132.59523 c 5.3134,0 5.81855,5.44811 4.1681,7.18069 -1.46742,1.54047 -4.50756,2.41393 -6.56167,0.99044 -3.40032,-2.35641 -2.28836,-8.17113 2.39357,-8.17113 z"
     style="fill:#636363;fill-opacity:1"
     id="path3808"
     inkscape:connector-curvature="0" />
</svg>
