<?xml version="1.0" encoding="UTF-8" standalone="no"?>
<!-- Created with Inkscape (http://www.inkscape.org/) -->

<svg
   xmlns:dc="http://purl.org/dc/elements/1.1/"
   xmlns:cc="http://creativecommons.org/ns#"
   xmlns:rdf="http://www.w3.org/1999/02/22-rdf-syntax-ns#"
   xmlns:svg="http://www.w3.org/2000/svg"
   xmlns="http://www.w3.org/2000/svg"
   xmlns:xlink="http://www.w3.org/1999/xlink"
   xmlns:sodipodi="http://sodipodi.sourceforge.net/DTD/sodipodi-0.dtd"
   xmlns:inkscape="http://www.inkscape.org/namespaces/inkscape"
   width="512"
   height="512"
   id="svg2"
   version="1.1"
   inkscape:version="0.48.5 r10040"
   sodipodi:docname="folder-images.svg"
   inkscape:export-filename="/home/alecive/Scrivania/firefoxTest1.png"
   inkscape:export-xdpi="100"
   inkscape:export-ydpi="100">
  <sodipodi:namedview
     id="base"
     pagecolor="#ffffff"
     bordercolor="#666666"
     borderopacity="1.0"
     inkscape:pageopacity="0.0"
     inkscape:pageshadow="2"
     inkscape:zoom="0.55"
     inkscape:cx="-155.75511"
     inkscape:cy="400.97464"
     inkscape:document-units="px"
     inkscape:current-layer="svg2"
     showgrid="true"
     inkscape:window-width="1920"
     inkscape:window-height="1013"
     inkscape:window-x="1920"
     inkscape:window-y="28"
     inkscape:window-maximized="1"
     inkscape:object-paths="false"
     inkscape:snap-intersection-paths="false"
     inkscape:object-nodes="true"
     inkscape:snap-smooth-nodes="true"
     inkscape:snap-nodes="true">
    <inkscape:grid
       type="xygrid"
       id="grid3805" />
  </sodipodi:namedview>
  <defs
     id="defs4">
    <linearGradient
       y2="20.625916"
       x2="1006.8082"
       y1="484.41721"
       x1="1012.5133"
       gradientTransform="matrix(1.0317796,0,0,1.0317796,-830.86406,592.67791)"
       gradientUnits="userSpaceOnUse"
       id="linearGradient4114-2-6"
       xlink:href="#ButtonShadow-0-1-1-5-9"
       inkscape:collect="always" />
    <linearGradient
       gradientTransform="matrix(1.0058652,0,0,0.994169,100,0)"
       gradientUnits="userSpaceOnUse"
       id="ButtonShadow-0-1-1-5-9"
       y2="7.0165396"
       x2="45.447727"
       y1="92.539597"
       x1="45.447727">
      <stop
         offset="0"
         style="stop-color:#000000;stop-opacity:1"
         id="stop3750-8-9-3-6-4" />
      <stop
         offset="1"
         style="stop-color:#000000;stop-opacity:0.58823532"
         id="stop3752-5-6-4-2-9" />
    </linearGradient>
    <linearGradient
       y2="20.625916"
       x2="1006.8082"
       y1="484.41721"
       x1="1012.5133"
       gradientTransform="matrix(1.0402541,0,0,1.0402541,-837.95116,592.51825)"
       gradientUnits="userSpaceOnUse"
       id="linearGradient4112-2-6"
       xlink:href="#ButtonShadow-0-1-1-5-9"
       inkscape:collect="always" />
    <linearGradient
       y2="20.625916"
       x2="1006.8082"
       y1="484.41721"
       x1="1012.5133"
       gradientTransform="matrix(1.023305,0,0,1.023305,-823.77704,592.83757)"
       gradientUnits="userSpaceOnUse"
       id="linearGradient4110-6-7"
       xlink:href="#ButtonShadow-0-1-1-5-9"
       inkscape:collect="always" />
    <linearGradient
       y2="20.625916"
       x2="1006.8082"
       y1="484.41721"
       x1="1012.5133"
       gradientTransform="matrix(1.0148305,0,0,1.0148305,-816.68996,592.99723)"
       gradientUnits="userSpaceOnUse"
       id="linearGradient4116-6-3"
       xlink:href="#ButtonShadow-0-1-1-5-9"
       inkscape:collect="always" />
    <linearGradient
       inkscape:collect="always"
       xlink:href="#ButtonShadow-0-1-1-5-9"
       id="linearGradient5342-3"
       gradientUnits="userSpaceOnUse"
       gradientTransform="matrix(1.0074153,0,0,1.0074153,-810.48879,593.1369)"
       x1="1012.5133"
       y1="484.41721"
       x2="1006.8082"
       y2="20.625916" />
    <linearGradient
       id="linearGradient3737-9">
      <stop
         offset="0"
         style="stop-color:#ffffff;stop-opacity:1"
         id="stop3739-7" />
      <stop
         offset="1"
         style="stop-color:#ffffff;stop-opacity:0"
         id="stop3741-4" />
    </linearGradient>
    <linearGradient
       id="linearGradient4046-3">
      <stop
         offset="0"
         style="stop-color:#000000;stop-opacity:1;"
         id="stop4048-7" />
      <stop
         offset="1"
         style="stop-color:#ffffff;stop-opacity:0.2"
         id="stop4050-73" />
    </linearGradient>
    <linearGradient
       id="linearGradient3874">
      <stop
         id="stop3876"
         style="stop-color:#ffffff;stop-opacity:1"
         offset="0" />
      <stop
         id="stop3878"
         style="stop-color:#ffffff;stop-opacity:0"
         offset="1" />
    </linearGradient>
    <clipPath
       id="clipPath3860">
      <rect
         width="84"
         height="72"
         rx="6"
         ry="6"
         x="6"
         y="18"
         id="rect3862"
         style="fill:#ff00ff;fill-opacity:1;fill-rule:nonzero;stroke:none" />
    </clipPath>
    <filter
       x="-0.16558799"
       y="-0.19715989"
       width="1.331176"
       height="1.3943198"
       color-interpolation-filters="sRGB"
       id="filter3870">
      <feGaussianBlur
         id="feGaussianBlur3872"
         stdDeviation="5.1703125" />
    </filter>
    <linearGradient
       id="linearGradient4008-4-7">
      <stop
         id="stop4010-2-0"
         style="stop-color:#222222;stop-opacity:1;"
         offset="0" />
      <stop
         id="stop4012-5-1"
         style="stop-color:#202020;stop-opacity:1;"
         offset="0.71691591" />
      <stop
         id="stop4014-6-6"
         style="stop-color:#181818;stop-opacity:1;"
         offset="1" />
    </linearGradient>
    <linearGradient
       inkscape:collect="always"
       xlink:href="#linearGradient3874"
       id="linearGradient3179"
       gradientUnits="userSpaceOnUse"
       x1="48.021698"
       y1="22.933374"
       x2="48.021698"
       y2="81.481377" />
    <linearGradient
       id="linearGradient3187-7-5">
      <stop
         id="stop3189-4-5"
         style="stop-color:#141414;stop-opacity:1;"
         offset="0" />
      <stop
         id="stop3191-1-8"
         style="stop-color:#181818;stop-opacity:1;"
         offset="1" />
    </linearGradient>
    <linearGradient
       inkscape:collect="always"
       xlink:href="#linearGradient4008-4-7"
       id="linearGradient3231"
       gradientUnits="userSpaceOnUse"
       gradientTransform="matrix(4.4715789,0,0,4.4715789,475.53325,-30.196581)"
       x1="34.85965"
       y1="16.275133"
       x2="34.994316"
       y2="28.905609" />
    <linearGradient
       inkscape:collect="always"
       xlink:href="#linearGradient4046-3"
       id="linearGradient3241"
       gradientUnits="userSpaceOnUse"
       x1="1764.6487"
       y1="155.59685"
       x2="1763.6903"
       y2="-55.941216"
       gradientTransform="translate(-1532.187,330.41615)" />
    <linearGradient
       inkscape:collect="always"
       xlink:href="#linearGradient3737-9"
       id="linearGradient3244"
       gradientUnits="userSpaceOnUse"
       gradientTransform="translate(-753.58721,-30.14348)"
       x1="993.43896"
       y1="51.511765"
       x2="988.78552"
       y2="363.73825" />
    <linearGradient
       inkscape:collect="always"
       xlink:href="#linearGradient3187-7-5"
       id="linearGradient3136"
       gradientUnits="userSpaceOnUse"
       gradientTransform="matrix(5.6190474,0,0,4.9043651,491.99998,58.207937)"
       x1="48"
       y1="78"
       x2="48"
       y2="5.9877172" />
    <linearGradient
       inkscape:collect="always"
       xlink:href="#linearGradient3737-8-0-1"
       id="linearGradient3133-9-1"
       gradientUnits="userSpaceOnUse"
       x1="36.357143"
       y1="16"
       x2="36.357143"
       y2="73.994667"
       gradientTransform="matrix(5.6190474,0,0,4.9043651,-110.76903,34.465266)" />
    <linearGradient
       id="linearGradient3737-8-0-1">
      <stop
         id="stop3739-8-3-5"
         style="stop-color:#ffffff;stop-opacity:1"
         offset="0" />
      <stop
         id="stop3741-8-0-2"
         style="stop-color:#ffffff;stop-opacity:0"
         offset="1" />
    </linearGradient>
  </defs>
  <metadata
     id="metadata7">
    <rdf:RDF>
      <cc:Work
         rdf:about="">
        <dc:format>image/svg+xml</dc:format>
        <dc:type
           rdf:resource="http://purl.org/dc/dcmitype/StillImage" />
        <dc:title></dc:title>
      </cc:Work>
    </rdf:RDF>
  </metadata>
  <g
     transform="translate(0,-540.36218)"
     inkscape:label="Livello 1"
     inkscape:groupmode="layer"
     id="layer1" />
  <g
     transform="matrix(1.1,0,0,0.44444,95.081063,256.39254)"
     id="g2036">
    <g
       transform="matrix(1.0526,0,0,1.2857,-1.2632,-13.429)"
       style="opacity:0.4"
       id="g3712" />
  </g>
  <g
     id="g3541"
     transform="translate(97.481063,231.28154)" />
  <g
     id="g3536"
     transform="translate(97.481063,231.28154)" />
  <g
     transform="translate(-11.985071,-592.11719)"
     id="g4103">
    <rect
       style="opacity:0.1;color:#000000;fill:url(#linearGradient4114-2-6);fill-opacity:1;fill-rule:nonzero;stroke:none;stroke-width:1.5;marker:none;visibility:visible;display:inline;overflow:visible;enable-background:accumulate"
       id="rect6187"
       width="487"
       height="487"
       x="31.985071"
       y="612.11719"
       ry="101.45834" />
    <rect
       ry="102.29167"
       y="612.11719"
       x="31.985071"
       height="491"
       width="491"
       id="rect6191"
       style="opacity:0.07999998;color:#000000;fill:url(#linearGradient4112-2-6);fill-opacity:1;fill-rule:nonzero;stroke:none;stroke-width:1.5;marker:none;visibility:visible;display:inline;overflow:visible;enable-background:accumulate" />
    <rect
       ry="100.62501"
       y="612.11719"
       x="31.985071"
       height="483"
       width="483"
       id="rect6183"
       style="opacity:0.2;color:#000000;fill:url(#linearGradient4110-6-7);fill-opacity:1;fill-rule:nonzero;stroke:none;stroke-width:1.5;marker:none;visibility:visible;display:inline;overflow:visible;enable-background:accumulate" />
    <rect
       style="opacity:0.25;color:#000000;fill:url(#linearGradient4116-6-3);fill-opacity:1;fill-rule:nonzero;stroke:none;stroke-width:1.5;marker:none;visibility:visible;display:inline;overflow:visible;enable-background:accumulate"
       id="rect6179"
       width="479"
       height="479"
       x="31.985071"
       y="612.11719"
       ry="99.791664" />
    <rect
       ry="99.0625"
       y="612.11719"
       x="31.985071"
       height="475.5"
       width="475.5"
       id="rect5574"
       style="opacity:0.25;color:#000000;fill:url(#linearGradient5342-3);fill-opacity:1;fill-rule:nonzero;stroke:none;stroke-width:1.5;marker:none;visibility:visible;display:inline;overflow:visible;enable-background:accumulate" />
  </g>
  <path
     inkscape:connector-curvature="0"
     id="rect5505"
     d="M 118.34375,20 C 63.867087,20 20,63.867084 20,118.34375 l 0,23.0625 0,252.25 C 20,448.13291 63.867087,492 118.34375,492 l 275.3125,0 C 448.13292,492 492,448.13291 492,393.65625 l 0,-252.25 0,-23.0625 C 492,63.867084 448.13292,20 393.65625,20 l -275.3125,0 z"
     style="fill:url(#linearGradient3231);stroke:none;color:#000000;fill-opacity:1;fill-rule:nonzero;stroke-width:1;marker:none;visibility:visible;display:inline;overflow:visible;enable-background:accumulate" />
  <g
     transform="translate(-605.51932,-353.96833)"
     id="g4076">
    <g
       id="g4038"
       transform="translate(-926.66758,684.38448)" />
  </g>
  <path
     id="rect6809-2-3"
     d="M 118.3124,20 C 63.8357,20 19.9999,63.83583 19.9999,118.3125 l 0,275.34375 C 19.9999,448.13292 63.8357,492 118.3124,492 l 2.9375,0 c -53.3225,0 -96.25,-42.9275 -96.25,-96.25 l 0,-269.5 C 24.9999,72.9275 67.9274,30 121.2499,30 L 390.75,30 C 444.0725,30 487,72.9275 487,126.25 l 0,269.5 C 487,449.0725 444.0725,492 390.75,492 l 2.9062,0 C 448.1329,492 492,448.13292 492,393.65625 L 492,118.3125 C 492,63.83583 448.1329,20 393.6562,20 l -275.3438,0 z"
     style="opacity:0.3;color:#000000;fill:url(#linearGradient3244);fill-opacity:1;fill-rule:nonzero;stroke:none;stroke-width:1.5;marker:none;visibility:visible;display:inline;overflow:visible;enable-background:accumulate"
     inkscape:connector-curvature="0" />
  <path
     style="color:#000000;fill:url(#linearGradient3136);fill-opacity:1;fill-rule:nonzero;stroke:none;stroke-width:1;marker:none;visibility:visible;display:inline;overflow:visible;enable-background:accumulate"
     d="M 67.0625 76.65625 C 42.85934 76.65625 20 95.7349 20 119.75 L 20 235.625 L 20 256.5625 L 20 352.75 L 20 393.65625 C 20 448.13291 63.867087 492 118.34375 492 L 393.65625 492 C 448.13292 492 492 448.13291 492 393.65625 L 492 352.75 L 492 256.5625 L 492 235.625 L 492 151.4375 C 492 127.42239 472.1407 108.34375 444.9375 108.34375 L 209.21875 108.34375 C 190.60301 89.019876 189.11124 79.81667 170.03125 76.65625 L 67.0625 76.65625 z "
     id="path3181" />
  <path
     inkscape:connector-curvature="0"
     style="opacity:0.2;color:#000000;fill:url(#linearGradient3241);fill-opacity:1;fill-rule:nonzero;stroke:none;stroke-width:1.5;marker:none;visibility:visible;display:inline;overflow:visible;enable-background:accumulate"
     d="M 118.3124,492 C 63.8357,492 19.9999,448.16417 19.9999,393.6875 l 0,-275.34375 C 19.9999,63.86708 63.8357,20 118.3124,20 l 2.9375,0 c -53.3225,0 -96.25,42.9275 -96.25,96.25 l 0,269.5 c 0,53.3225 42.9275,96.25 96.25,96.25 L 390.75,482 C 444.0725,482 487,439.0725 487,385.75 l 0,-269.5 C 487,62.9275 444.0725,20 390.75,20 l 2.9062,0 C 448.1329,20 492,63.86708 492,118.34375 l 0,275.34375 C 492,448.16417 448.1329,492 393.6562,492 l -275.3438,0 z"
     id="path3981-7" />
  <path
     d="m 15.96875,22.53125 c -2.845903,0.0043 -5.433244,2.591597 -5.4375,5.4375 l 0,48.0625 c 0.0043,2.845903 2.591597,5.433244 5.4375,5.4375 l 64.0625,0 c 2.845903,-0.0043 5.433244,-2.591597 5.4375,-5.4375 l 0,-48.0625 c -0.0043,-2.845903 -2.591597,-5.433244 -5.4375,-5.4375 z"
     inkscape:connector-curvature="0"
     clip-path="url(#clipPath3860)"
     id="path3850"
     style="opacity:0.15;fill:url(#linearGradient3179);fill-opacity:1;fill-rule:nonzero;stroke:none;display:inline;filter:url(#filter3870)"
     transform="matrix(5.6190474,0,0,4.9043651,599.66491,31.270067)" />
  <path
     style="color:#000000;fill:url(#linearGradient3133-9-1);fill-opacity:1;fill-rule:nonzero;stroke:none;stroke-width:1;marker:none;visibility:visible;display:inline;overflow:visible;enable-background:accumulate;opacity:0.34999999999999998"
     d="M 67.0625 76.65625 C 42.85934 76.65625 20 95.7349 20 119.75 L 20 129.75 C 20 105.7349 42.85934 86.65625 67.0625 86.65625 L 170.03125 86.65625 C 189.11124 89.81667 190.60301 99.019876 209.21875 118.34375 L 444.9375 118.34375 C 472.1407 118.34375 492 137.42239 492 161.4375 L 492 151.4375 C 492 127.42239 472.1407 108.34375 444.9375 108.34375 L 209.21875 108.34375 C 190.60301 89.019876 189.11124 79.81667 170.03125 76.65625 L 67.0625 76.65625 z "
     id="path3139" />
  <path
     style="font-size:medium;font-style:normal;font-variant:normal;font-weight:normal;font-stretch:normal;text-indent:0;text-align:start;text-decoration:none;line-height:normal;letter-spacing:normal;word-spacing:normal;text-transform:none;direction:ltr;block-progression:tb;writing-mode:lr-tb;text-anchor:start;baseline-shift:baseline;color:#000000;fill:#000000;fill-opacity:0.15686275;fill-rule:nonzero;stroke:none;stroke-width:1;marker:none;visibility:visible;display:inline;overflow:visible;filter:url(#filter1111);enable-background:accumulate;font-family:Sans;-inkscape-font-specification:Sans"
     d="m 285.4375,166.4375 c -54.65541,-0.10361 -104.30802,36.4264 -118.96875,91.71875 -11.71976,44.20051 1.91904,89.23927 32.1875,119.3125 0.10787,0.11015 0.2042,0.23399 0.3125,0.34375 0.29911,0.29493 0.60393,0.583 0.90625,0.875 0.20331,0.20186 0.38894,0.4245 0.59375,0.625 0.17936,0.1856 0.38191,0.34673 0.5625,0.53125 0.0106,0.0102 0.0207,0.021 0.0312,0.0312 0.242,0.2403 0.47462,0.48037 0.71875,0.71875 0.63557,0.6382 1.25587,1.28149 1.90625,1.90625 0.30408,0.30038 0.59884,0.6089 0.90625,0.90625 0.0104,0.0106 0.0209,0.0206 0.0312,0.0312 0.13029,0.12945 0.24409,0.27736 0.375,0.40625 0.0104,0.0105 0.0208,0.0207 0.0312,0.0312 0.0733,0.0721 0.14524,0.14679 0.21875,0.21875 0.0512,0.053 0.10491,0.10332 0.15625,0.15625 -0.13781,0.23414 -0.24328,0.48728 -0.3125,0.75 -0.63383,2.22362 -1.14571,4.05028 -1.8125,6.09375 -1.42589,4.3705 -3.13875,8.35066 -4.96875,10.78125 -7.42866,9.7619 -20.8904,-0.21812 -26.71875,-4.90625 -7.85813,-6.37666 -16.51309,-15.47122 -29.125,-17 -2.65649,-0.32198 -5.13796,-0.37832 -7.4375,-0.21875 -6.89861,0.47869 -12.22448,2.85676 -16.0625,5.4375 -2.44987,1.64727 -4.3843,3.19319 -5.84375,4.34375 -1.45945,1.15057 -2.57768,1.87603 -2.65625,1.90625 -1.4584,0.55339 -2.27869,2.38785 -1.71875,3.84375 l 3.625,9.4375 c 0.25218,0.66245 0.74999,1.22814 1.375,1.5625 l 74.18745,74.25 208.28125,0 c 54.47687,1.5e-4 98.34395,-43.86694 98.34395,-98.3436 l 0,-40.90625 0,-16.8125 -122.4374,-122.4374 c -14.7665,-14.70661 -33.44429,-25.83868 -55.03125,-31.5625 -0.25612,-0.0698 -0.83646,0.0698 -1.09375,0 -10.24142,-2.64602 -20.44112,-4.00798 -30.5625,-4.03125 z m -27.875,19.625 c 2.84737,-0.0291 5.41839,0.48901 8.21875,1.15625 0.10244,0.0233 0.27016,-0.0234 0.375,0 10.28447,2.55113 19.51419,9.71792 23.625,20.34375 6.70292,17.32642 -1.9237,36.95333 -19.25,43.65625 -17.32642,6.70303 -36.95333,-1.95483 -43.65625,-19.28125 -6.70303,-17.32629 1.92358,-36.9532 19.25,-43.65625 3.29784,-1.27597 6.83193,-1.97445 10.1875,-2.1875 0.41944,-0.0267 0.84323,-0.0272 1.25,-0.0312 z m 84.65625,22.59375 c 0.47271,-0.0168 0.93306,-0.004 1.40625,0 2.52365,0.021 5.19919,0.13782 7.65625,0.71875 6.87744,1.67798 13.75176,5.74709 18.5625,11.65625 11.72902,14.40706 9.28206,35.58348 -5.125,47.3125 -14.40705,11.72915 -35.52098,9.65704 -47.25,-4.75 -11.72904,-14.40694 -9.6883,-35.58334 4.71875,-47.3125 5.9284,-4.82636 12.94055,-7.37369 20.03125,-7.625 z m -132.25,51.25 c 3.01672,-0.0174 6.1259,0.48393 8.875,1.15625 0.2084,0.0501 0.1666,0.28554 0.375,0.34375 13.71412,3.63593 23.92923,15.63586 24.75,30.5625 1.02078,18.54976 -13.10659,34.63524 -31.65625,35.65625 -18.54964,1.02078 -34.26024,-13.45022 -35.28125,-32 -1.02078,-18.54953 13.07524,-34.66649 31.625,-35.6875 0.42457,-0.0235 0.88153,-0.0288 1.3125,-0.0312 z M 286.6875,276.25 c 0.42019,-0.0245 0.84584,-0.0295 1.28125,0.0625 0.19675,0.0419 0.55324,0.31678 0.75,0.375 7.18292,1.90464 11.71702,9.19208 9.8125,16.375 -1.90452,7.18292 -9.1922,11.74838 -16.375,9.84375 -7.18304,-1.90453 -11.71714,-9.56707 -9.8125,-16.75 1.61452,-6.08926 7.067,-9.92523 13.09375,-9.84375 0.43052,0.006 0.82981,-0.038 1.25,-0.0625 z m 61.75,20.375 c 2.6537,-0.0222 5.39872,0.16131 7.9375,0.78125 0.21421,0.0524 0.16079,0.31679 0.375,0.375 3.32859,0.88272 6.76425,2.40679 9.8125,4.375 15.60699,10.07749 20.26498,30.9555 10.1875,46.5625 -10.07748,15.60712 -30.95562,19.92123 -46.5625,9.84375 C 314.58038,348.48512 309.92253,327.60713 320,312 c 5.98682,-9.27185 15.61001,-14.5769 25.84375,-15.28125 0.85281,-0.0588 1.70919,-0.0863 2.59375,-0.0937 z m -82.875,31.6875 c 2.8489,-0.0265 5.68052,0.41192 8.59375,1.125 0.1397,0.0349 0.20404,-0.0349 0.34375,0 17.95719,4.76137 28.79262,23.54281 24.03125,41.5 -4.76137,17.9573 -23.13657,28.38636 -41.09375,23.625 -17.9573,-4.76137 -28.79261,-23.1677 -24.03125,-41.125 3.82339,-14.41962 16.80578,-24.27764 30.9375,-25.09375 0.40763,-0.0237 0.81177,-0.0274 1.21875,-0.0312 z"
     id="path4933"
     inkscape:connector-curvature="0"
     sodipodi:nodetypes="cscccccccccccccccccccscscccccsscccccccccssscccsccsssssccccccccsccccccssccsssscscccscsccssccc" />
  <path
     inkscape:connector-curvature="0"
     id="path3971"
     d="m 285.4328,166.44276 c -54.65541,-0.10361 -104.307,36.41646 -118.96773,91.70881 -12.58932,47.48001 4.05341,95.95299 39.17117,125.77473 a 2.9706228,2.9706228 0 0 0 -0.55694,1.08293 c -0.63383,2.22362 -1.12778,4.05189 -1.79457,6.09536 -1.42589,4.3705 -3.15148,8.33684 -4.98148,10.76743 -2.00063,2.6572 -3.22616,3.77126 -6.18818,4.33172 -6.04987,1.14461 -12.59227,-2.79217 -20.51381,-9.22038 -7.85813,-6.37666 -16.53441,-15.48871 -29.14632,-17.01749 -2.65649,-0.32198 -5.12628,-0.37616 -7.42582,-0.21659 -6.89861,0.47869 -12.2203,2.86486 -16.05832,5.4456 -2.44987,1.64727 -4.38838,3.18116 -5.84783,4.33172 -1.45945,1.15057 -2.58235,1.88812 -2.66092,1.91834 a 2.9706228,2.9706228 0 0 0 -1.70175,3.83667 l 3.62009,9.43697 a 2.9706228,2.9706228 0 0 0 3.86761,1.70175 c 6.06238,-2.3316 8.96331,-6.22919 11.47907,-7.92087 2.74117,-1.84332 5.42519,-2.97901 12.90235,-2.07304 4.9386,0.59868 12.60547,6.3366 21.03981,13.18082 8.54275,6.93231 19.54245,14.86562 33.35428,12.2526 7.08974,-1.3413 12.37473,-5.38995 16.02739,-10.24144 3.58571,-4.76265 6.00008,-10.18478 7.70428,-15.40856 0.34867,-1.06681 0.47592,-1.81327 0.58788,-2.44433 10.37569,6.56793 21.94817,11.664 34.43721,14.97539 65.78883,17.44387 133.1764,-21.52637 150.62027,-87.3152 17.44377,-65.78872 -21.52638,-133.51661 -87.3152,-150.96062 -0.25612,-0.0698 -0.82564,0.0698 -1.08293,0 -10.24142,-2.64602 -20.44823,-3.99905 -30.56961,-4.02232 z m -27.87774,19.61653 c 2.84737,-0.0291 5.42992,0.47757 8.23028,1.14481 0.10244,0.0233 0.26645,-0.0234 0.37129,0 10.28447,2.55113 19.52803,9.73328 23.63884,20.35911 6.70292,17.32642 -1.94988,36.95468 -19.27618,43.6576 -17.32642,6.70303 -36.95468,-1.94976 -43.6576,-19.27618 -6.70303,-17.32629 1.94976,-36.95455 19.27618,-43.6576 3.29784,-1.27597 6.82398,-1.98375 10.17955,-2.1968 0.41944,-0.0267 0.83087,-0.0268 1.23764,-0.0309 z m 86.07756,22.58685 c 2.52365,0.021 5.18534,0.16165 7.6424,0.74258 6.87744,1.67798 13.7538,5.72462 18.56454,11.63378 11.72902,14.40706 9.30181,35.5796 -5.10525,47.30862 -14.40705,11.72915 -35.54866,9.67309 -47.27768,-4.73395 -11.72904,-14.40694 -9.6731,-35.57947 4.73395,-47.30863 6.32363,-5.14812 13.87097,-7.70062 21.44204,-7.6424 z M 209.96797,259.9152 c 3.01672,-0.0174 6.13093,0.47249 8.88003,1.14481 0.2084,0.0501 0.16289,0.28214 0.37129,0.34035 13.71412,3.63593 23.93195,15.64297 24.75272,30.56961 1.02078,18.54976 -13.10288,34.6229 -31.65254,35.64391 -18.54964,1.02078 -34.28255,-13.44311 -35.30356,-31.99289 -1.02078,-18.54953 13.10278,-34.65384 31.65254,-35.67485 0.42457,-0.0235 0.86855,-0.0284 1.29952,-0.0309 z m 76.73341,16.33679 c 0.42019,-0.0245 0.83317,-0.0301 1.26858,0.0619 0.19675,0.0419 0.54582,0.31308 0.74258,0.3713 7.18292,1.90464 11.71278,9.18481 9.80826,16.36773 -1.90452,7.18292 -9.18493,11.74383 -16.36773,9.8392 -7.18304,-1.90453 -11.7129,-9.55609 -9.80826,-16.73902 1.61452,-6.08926 7.06124,-9.92069 13.08799,-9.83921 0.43052,0.006 0.84839,-0.0374 1.26858,-0.0619 z m 61.72708,20.35911 c 2.6537,-0.0222 5.41303,0.18452 7.95181,0.80446 0.21421,0.0524 0.15708,0.31308 0.37129,0.37129 3.32859,0.88272 6.76002,2.39446 9.80827,4.36267 15.60699,10.07749 20.25703,30.95904 10.17955,46.56604 -10.07748,15.60712 -30.95916,19.91669 -46.56604,9.83921 -15.60712,-10.07738 -20.25703,-30.95892 -10.17956,-46.56605 5.98682,-9.27185 15.60191,-14.58045 25.83565,-15.2848 0.85281,-0.0588 1.71447,-0.0854 2.59903,-0.0928 z m -82.85971,31.71442 c 2.8489,-0.0265 5.68834,0.40079 8.60157,1.11387 0.1397,0.0349 0.20064,-0.0349 0.34035,0 17.95719,4.76137 28.7715,23.53455 24.01013,41.49174 -4.76137,17.9573 -23.13232,28.4002 -41.0895,23.63884 -17.9573,-4.76137 -28.7715,-23.16315 -24.01014,-41.12045 3.82339,-14.41962 16.77823,-24.27695 30.90995,-25.09306 0.40763,-0.0237 0.83066,-0.0271 1.23764,-0.0309 z"
     style="font-size:medium;font-style:normal;font-variant:normal;font-weight:normal;font-stretch:normal;text-indent:0;text-align:start;text-decoration:none;line-height:normal;letter-spacing:normal;word-spacing:normal;text-transform:none;direction:ltr;block-progression:tb;writing-mode:lr-tb;text-anchor:start;baseline-shift:baseline;color:#000000;fill:#ffffff;fill-opacity:0.88235294;fill-rule:nonzero;stroke:none;stroke-width:1;marker:none;visibility:visible;display:inline;overflow:visible;filter:url(#filter1111);enable-background:accumulate;font-family:Sans;-inkscape-font-specification:Sans" />
</svg>
