<?xml version="1.0" encoding="UTF-8" standalone="no"?>
<!-- Created with Inkscape (http://www.inkscape.org/) -->

<svg
   xmlns:dc="http://purl.org/dc/elements/1.1/"
   xmlns:cc="http://creativecommons.org/ns#"
   xmlns:rdf="http://www.w3.org/1999/02/22-rdf-syntax-ns#"
   xmlns:svg="http://www.w3.org/2000/svg"
   xmlns="http://www.w3.org/2000/svg"
   xmlns:xlink="http://www.w3.org/1999/xlink"
   xmlns:sodipodi="http://sodipodi.sourceforge.net/DTD/sodipodi-0.dtd"
   xmlns:inkscape="http://www.inkscape.org/namespaces/inkscape"
   width="512"
   height="512"
   id="svg2"
   version="1.1"
   inkscape:version="0.91 r13725"
   sodipodi:docname="folder-bookmarks.svg"
   inkscape:export-filename="/home/alecive/Scrivania/firefoxTest1.png"
   inkscape:export-xdpi="100"
   inkscape:export-ydpi="100">
  <sodipodi:namedview
     id="base"
     pagecolor="#ffffff"
     bordercolor="#666666"
     borderopacity="1.0"
     inkscape:pageopacity="0.0"
     inkscape:pageshadow="2"
     inkscape:zoom="0.55"
     inkscape:cx="-155.75511"
     inkscape:cy="400.97464"
     inkscape:document-units="px"
     inkscape:current-layer="svg2"
     showgrid="true"
     inkscape:window-width="1920"
     inkscape:window-height="1013"
     inkscape:window-x="1920"
     inkscape:window-y="28"
     inkscape:window-maximized="1"
     inkscape:object-paths="false"
     inkscape:snap-intersection-paths="false"
     inkscape:object-nodes="true"
     inkscape:snap-smooth-nodes="true"
     inkscape:snap-nodes="true">
    <inkscape:grid
       type="xygrid"
       id="grid3805" />
  </sodipodi:namedview>
  <defs
     id="defs4">
    <linearGradient
       y2="20.625916"
       x2="1006.8082"
       y1="484.41721"
       x1="1012.5133"
       gradientTransform="matrix(1.0317796,0,0,1.0317796,-830.86406,592.67791)"
       gradientUnits="userSpaceOnUse"
       id="linearGradient4114-2-6"
       xlink:href="#ButtonShadow-0-1-1-5-9"
       inkscape:collect="always" />
    <linearGradient
       gradientTransform="matrix(1.0058652,0,0,0.994169,100,0)"
       gradientUnits="userSpaceOnUse"
       id="ButtonShadow-0-1-1-5-9"
       y2="7.0165396"
       x2="45.447727"
       y1="92.539597"
       x1="45.447727">
      <stop
         offset="0"
         style="stop-color:#000000;stop-opacity:1"
         id="stop3750-8-9-3-6-4" />
      <stop
         offset="1"
         style="stop-color:#000000;stop-opacity:0.58823532"
         id="stop3752-5-6-4-2-9" />
    </linearGradient>
    <linearGradient
       y2="20.625916"
       x2="1006.8082"
       y1="484.41721"
       x1="1012.5133"
       gradientTransform="matrix(1.0402541,0,0,1.0402541,-837.95116,592.51825)"
       gradientUnits="userSpaceOnUse"
       id="linearGradient4112-2-6"
       xlink:href="#ButtonShadow-0-1-1-5-9"
       inkscape:collect="always" />
    <linearGradient
       y2="20.625916"
       x2="1006.8082"
       y1="484.41721"
       x1="1012.5133"
       gradientTransform="matrix(1.023305,0,0,1.023305,-823.77704,592.83757)"
       gradientUnits="userSpaceOnUse"
       id="linearGradient4110-6-7"
       xlink:href="#ButtonShadow-0-1-1-5-9"
       inkscape:collect="always" />
    <linearGradient
       y2="20.625916"
       x2="1006.8082"
       y1="484.41721"
       x1="1012.5133"
       gradientTransform="matrix(1.0148305,0,0,1.0148305,-816.68996,592.99723)"
       gradientUnits="userSpaceOnUse"
       id="linearGradient4116-6-3"
       xlink:href="#ButtonShadow-0-1-1-5-9"
       inkscape:collect="always" />
    <linearGradient
       inkscape:collect="always"
       xlink:href="#ButtonShadow-0-1-1-5-9"
       id="linearGradient5342-3"
       gradientUnits="userSpaceOnUse"
       gradientTransform="matrix(1.0074153,0,0,1.0074153,-810.48879,593.1369)"
       x1="1012.5133"
       y1="484.41721"
       x2="1006.8082"
       y2="20.625916" />
    <linearGradient
       id="linearGradient3737-9">
      <stop
         offset="0"
         style="stop-color:#ffffff;stop-opacity:1"
         id="stop3739-7" />
      <stop
         offset="1"
         style="stop-color:#ffffff;stop-opacity:0"
         id="stop3741-4" />
    </linearGradient>
    <linearGradient
       id="linearGradient4046-3">
      <stop
         offset="0"
         style="stop-color:#000000;stop-opacity:1;"
         id="stop4048-7" />
      <stop
         offset="1"
         style="stop-color:#ffffff;stop-opacity:0.2"
         id="stop4050-73" />
    </linearGradient>
    <linearGradient
       id="linearGradient3874">
      <stop
         id="stop3876"
         style="stop-color:#ffffff;stop-opacity:1"
         offset="0" />
      <stop
         id="stop3878"
         style="stop-color:#ffffff;stop-opacity:0"
         offset="1" />
    </linearGradient>
    <clipPath
       id="clipPath3860">
      <rect
         width="84"
         height="72"
         rx="6"
         ry="6"
         x="6"
         y="18"
         id="rect3862"
         style="fill:#ff00ff;fill-opacity:1;fill-rule:nonzero;stroke:none" />
    </clipPath>
    <filter
       x="-0.16558799"
       y="-0.19715989"
       width="1.331176"
       height="1.3943198"
       color-interpolation-filters="sRGB"
       id="filter3870">
      <feGaussianBlur
         id="feGaussianBlur3872"
         stdDeviation="5.1703125" />
    </filter>
    <linearGradient
       id="linearGradient4008-4-7">
      <stop
         id="stop4010-2-0"
         style="stop-color:#222222;stop-opacity:1;"
         offset="0" />
      <stop
         id="stop4012-5-1"
         style="stop-color:#202020;stop-opacity:1;"
         offset="0.71691591" />
      <stop
         id="stop4014-6-6"
         style="stop-color:#181818;stop-opacity:1;"
         offset="1" />
    </linearGradient>
    <linearGradient
       inkscape:collect="always"
       xlink:href="#linearGradient3874"
       id="linearGradient3179"
       gradientUnits="userSpaceOnUse"
       x1="48.021698"
       y1="22.933374"
       x2="48.021698"
       y2="81.481377" />
    <linearGradient
       id="linearGradient3187-7-5">
      <stop
         id="stop3189-4-5"
         style="stop-color:#141414;stop-opacity:1;"
         offset="0" />
      <stop
         id="stop3191-1-8"
         style="stop-color:#181818;stop-opacity:1;"
         offset="1" />
    </linearGradient>
    <linearGradient
       inkscape:collect="always"
       xlink:href="#linearGradient4008-4-7"
       id="linearGradient3231"
       gradientUnits="userSpaceOnUse"
       gradientTransform="matrix(4.4715789,0,0,4.4715789,475.53325,-30.196581)"
       x1="34.85965"
       y1="16.275133"
       x2="34.994316"
       y2="28.905609" />
    <linearGradient
       inkscape:collect="always"
       xlink:href="#linearGradient4046-3"
       id="linearGradient3241"
       gradientUnits="userSpaceOnUse"
       x1="1764.6487"
       y1="155.59685"
       x2="1763.6903"
       y2="-55.941216"
       gradientTransform="translate(-1532.187,330.41615)" />
    <linearGradient
       inkscape:collect="always"
       xlink:href="#linearGradient3737-9"
       id="linearGradient3244"
       gradientUnits="userSpaceOnUse"
       gradientTransform="translate(-753.58721,-30.14348)"
       x1="993.43896"
       y1="51.511765"
       x2="988.78552"
       y2="363.73825" />
    <linearGradient
       inkscape:collect="always"
       xlink:href="#linearGradient3187-7-5"
       id="linearGradient3136"
       gradientUnits="userSpaceOnUse"
       gradientTransform="matrix(5.6190474,0,0,4.9043651,491.99998,58.207937)"
       x1="48"
       y1="78"
       x2="48"
       y2="5.9877172" />
    <linearGradient
       inkscape:collect="always"
       xlink:href="#linearGradient3737-8-0-1"
       id="linearGradient3133-9-1"
       gradientUnits="userSpaceOnUse"
       x1="36.357143"
       y1="16"
       x2="36.357143"
       y2="73.994667"
       gradientTransform="matrix(5.6190474,0,0,4.9043651,-110.76903,34.465266)" />
    <linearGradient
       id="linearGradient3737-8-0-1">
      <stop
         id="stop3739-8-3-5"
         style="stop-color:#ffffff;stop-opacity:1"
         offset="0" />
      <stop
         id="stop3741-8-0-2"
         style="stop-color:#ffffff;stop-opacity:0"
         offset="1" />
    </linearGradient>
  </defs>
  <metadata
     id="metadata7">
    <rdf:RDF>
      <cc:Work
         rdf:about="">
        <dc:format>image/svg+xml</dc:format>
        <dc:type
           rdf:resource="http://purl.org/dc/dcmitype/StillImage" />
        <dc:title></dc:title>
      </cc:Work>
    </rdf:RDF>
  </metadata>
  <g
     transform="translate(0,-540.36218)"
     inkscape:label="Livello 1"
     inkscape:groupmode="layer"
     id="layer1" />
  <g
     transform="matrix(1.1,0,0,0.44444,95.081063,256.39254)"
     id="g2036">
    <g
       transform="matrix(1.0526,0,0,1.2857,-1.2632,-13.429)"
       style="opacity:0.4"
       id="g3712" />
  </g>
  <g
     id="g3541"
     transform="translate(97.481063,231.28154)" />
  <g
     id="g3536"
     transform="translate(97.481063,231.28154)" />
  <g
     transform="translate(-11.985071,-592.11719)"
     id="g4103">
    <rect
       style="opacity:0.1;color:#000000;fill:url(#linearGradient4114-2-6);fill-opacity:1;fill-rule:nonzero;stroke:none;stroke-width:1.5;marker:none;visibility:visible;display:inline;overflow:visible;enable-background:accumulate"
       id="rect6187"
       width="487"
       height="487"
       x="31.985071"
       y="612.11719"
       ry="101.45834" />
    <rect
       ry="102.29167"
       y="612.11719"
       x="31.985071"
       height="491"
       width="491"
       id="rect6191"
       style="opacity:0.07999998;color:#000000;fill:url(#linearGradient4112-2-6);fill-opacity:1;fill-rule:nonzero;stroke:none;stroke-width:1.5;marker:none;visibility:visible;display:inline;overflow:visible;enable-background:accumulate" />
    <rect
       ry="100.62501"
       y="612.11719"
       x="31.985071"
       height="483"
       width="483"
       id="rect6183"
       style="opacity:0.2;color:#000000;fill:url(#linearGradient4110-6-7);fill-opacity:1;fill-rule:nonzero;stroke:none;stroke-width:1.5;marker:none;visibility:visible;display:inline;overflow:visible;enable-background:accumulate" />
    <rect
       style="opacity:0.25;color:#000000;fill:url(#linearGradient4116-6-3);fill-opacity:1;fill-rule:nonzero;stroke:none;stroke-width:1.5;marker:none;visibility:visible;display:inline;overflow:visible;enable-background:accumulate"
       id="rect6179"
       width="479"
       height="479"
       x="31.985071"
       y="612.11719"
       ry="99.791664" />
    <rect
       ry="99.0625"
       y="612.11719"
       x="31.985071"
       height="475.5"
       width="475.5"
       id="rect5574"
       style="opacity:0.25;color:#000000;fill:url(#linearGradient5342-3);fill-opacity:1;fill-rule:nonzero;stroke:none;stroke-width:1.5;marker:none;visibility:visible;display:inline;overflow:visible;enable-background:accumulate" />
  </g>
  <path
     inkscape:connector-curvature="0"
     id="rect5505"
     d="M 118.34375,20 C 63.867087,20 20,63.867084 20,118.34375 l 0,23.0625 0,252.25 C 20,448.13291 63.867087,492 118.34375,492 l 275.3125,0 C 448.13292,492 492,448.13291 492,393.65625 l 0,-252.25 0,-23.0625 C 492,63.867084 448.13292,20 393.65625,20 l -275.3125,0 z"
     style="fill:url(#linearGradient3231);stroke:none;color:#000000;fill-opacity:1;fill-rule:nonzero;stroke-width:1;marker:none;visibility:visible;display:inline;overflow:visible;enable-background:accumulate" />
  <g
     transform="translate(-605.51932,-353.96833)"
     id="g4076">
    <g
       id="g4038"
       transform="translate(-926.66758,684.38448)" />
  </g>
  <path
     id="rect6809-2-3"
     d="M 118.3124,20 C 63.8357,20 19.9999,63.83583 19.9999,118.3125 l 0,275.34375 C 19.9999,448.13292 63.8357,492 118.3124,492 l 2.9375,0 c -53.3225,0 -96.25,-42.9275 -96.25,-96.25 l 0,-269.5 C 24.9999,72.9275 67.9274,30 121.2499,30 L 390.75,30 C 444.0725,30 487,72.9275 487,126.25 l 0,269.5 C 487,449.0725 444.0725,492 390.75,492 l 2.9062,0 C 448.1329,492 492,448.13292 492,393.65625 L 492,118.3125 C 492,63.83583 448.1329,20 393.6562,20 l -275.3438,0 z"
     style="opacity:0.3;color:#000000;fill:url(#linearGradient3244);fill-opacity:1;fill-rule:nonzero;stroke:none;stroke-width:1.5;marker:none;visibility:visible;display:inline;overflow:visible;enable-background:accumulate"
     inkscape:connector-curvature="0" />
  <path
     style="color:#000000;fill:url(#linearGradient3136);fill-opacity:1;fill-rule:nonzero;stroke:none;stroke-width:1;marker:none;visibility:visible;display:inline;overflow:visible;enable-background:accumulate"
     d="M 67.0625 76.65625 C 42.85934 76.65625 20 95.7349 20 119.75 L 20 235.625 L 20 256.5625 L 20 352.75 L 20 393.65625 C 20 448.13291 63.867087 492 118.34375 492 L 393.65625 492 C 448.13292 492 492 448.13291 492 393.65625 L 492 352.75 L 492 256.5625 L 492 235.625 L 492 151.4375 C 492 127.42239 472.1407 108.34375 444.9375 108.34375 L 209.21875 108.34375 C 190.60301 89.019876 189.11124 79.81667 170.03125 76.65625 L 67.0625 76.65625 z "
     id="path3181" />
  <path
     inkscape:connector-curvature="0"
     style="opacity:0.2;color:#000000;fill:url(#linearGradient3241);fill-opacity:1;fill-rule:nonzero;stroke:none;stroke-width:1.5;marker:none;visibility:visible;display:inline;overflow:visible;enable-background:accumulate"
     d="M 118.3124,492 C 63.8357,492 19.9999,448.16417 19.9999,393.6875 l 0,-275.34375 C 19.9999,63.86708 63.8357,20 118.3124,20 l 2.9375,0 c -53.3225,0 -96.25,42.9275 -96.25,96.25 l 0,269.5 c 0,53.3225 42.9275,96.25 96.25,96.25 L 390.75,482 C 444.0725,482 487,439.0725 487,385.75 l 0,-269.5 C 487,62.9275 444.0725,20 390.75,20 l 2.9062,0 C 448.1329,20 492,63.86708 492,118.34375 l 0,275.34375 C 492,448.16417 448.1329,492 393.6562,492 l -275.3438,0 z"
     id="path3981-7" />
  <path
     d="m 15.96875,22.53125 c -2.845903,0.0043 -5.433244,2.591597 -5.4375,5.4375 l 0,48.0625 c 0.0043,2.845903 2.591597,5.433244 5.4375,5.4375 l 64.0625,0 c 2.845903,-0.0043 5.433244,-2.591597 5.4375,-5.4375 l 0,-48.0625 c -0.0043,-2.845903 -2.591597,-5.433244 -5.4375,-5.4375 z"
     inkscape:connector-curvature="0"
     clip-path="url(#clipPath3860)"
     id="path3850"
     style="opacity:0.15;fill:url(#linearGradient3179);fill-opacity:1;fill-rule:nonzero;stroke:none;display:inline;filter:url(#filter3870)"
     transform="matrix(5.6190474,0,0,4.9043651,599.66491,31.270067)" />
  <path
     style="color:#000000;fill:url(#linearGradient3133-9-1);fill-opacity:1;fill-rule:nonzero;stroke:none;stroke-width:1;marker:none;visibility:visible;display:inline;overflow:visible;enable-background:accumulate;opacity:0.34999999999999998"
     d="M 67.0625 76.65625 C 42.85934 76.65625 20 95.7349 20 119.75 L 20 129.75 C 20 105.7349 42.85934 86.65625 67.0625 86.65625 L 170.03125 86.65625 C 189.11124 89.81667 190.60301 99.019876 209.21875 118.34375 L 444.9375 118.34375 C 472.1407 118.34375 492 137.42239 492 161.4375 L 492 151.4375 C 492 127.42239 472.1407 108.34375 444.9375 108.34375 L 209.21875 108.34375 C 190.60301 89.019876 189.11124 79.81667 170.03125 76.65625 L 67.0625 76.65625 z "
     id="path3139" />
  <path
     inkscape:connector-curvature="0"
     style="fill:#000000;fill-opacity:0.15686275;fill-rule:nonzero;stroke:#f8f7f7;stroke-width:0;stroke-linecap:round;stroke-linejoin:round;stroke-miterlimit:4;stroke-dasharray:none;stroke-dashoffset:0;stroke-opacity:0.23529412"
     d="m 269.90625,186.84375 -0.1875,0.1875 c 0.32959,0.28124 0.68332,0.54228 1,0.84375 0.0107,0.0102 0.0206,0.0209 0.0312,0.0312 0.0489,0.0468 0.10765,0.0778 0.15625,0.125 l -0.0312,0.0312 c 3.15871,2.9979 5.35946,6.69515 6.5625,10.84375 l 0.0625,-0.0312 0.15625,0.53125 17.5625,55.8125 43.59375,0 -68.90625,-68.375 z m 104.375,78.40625 -0.0312,0.0312 c 8.65728,11.12642 6.45112,26.67254 -5.25,34.90625 l 0.0312,0.0312 -0.3125,0.25 -0.0625,0.0312 -46.90625,34.4375 18.1875,56.875 a 12.11711,12.11711 0 0 1 0.0625,0.1875 c 2.78269,9.1866 0.15582,18.65065 -6.84375,25.125 A 12.11711,12.11711 0 0 1 333,417.2811 c -8.4111,7.51446 -20.22003,8.46981 -29.71875,2.25 a 12.11711,12.11711 0 0 1 -0.53125,-0.375 l -48.15625,-35.37485 -48.15625,35.375 A 12.11711,12.11711 0 0 1 205.75,419.625 c -9.34698,5.8945 -20.20863,3.33576 -27.1875,-1.90625 -0.23557,-0.17694 -0.45559,-0.3756 -0.6875,-0.5625 l 77.8125,77.21875 136.5625,0 c 54.47667,0 98.34375,-43.86709 98.34375,-98.34375 l 0,-15.375 L 374.28125,265.25 Z"
     id="rect7115" />
  <path
     style="color:#000000;font-style:normal;font-variant:normal;font-weight:normal;font-stretch:normal;font-size:medium;line-height:normal;font-family:Sans;-inkscape-font-specification:Sans;text-indent:0;text-align:start;text-decoration:none;text-decoration-line:none;letter-spacing:normal;word-spacing:normal;text-transform:none;direction:ltr;block-progression:tb;writing-mode:lr-tb;baseline-shift:baseline;text-anchor:start;display:inline;overflow:visible;visibility:visible;fill:#ffffff;fill-opacity:1;stroke:none;stroke-width:24.23179626;marker:none;enable-background:new"
     d="m 253.34375,181.125 0,0.0312 a 12.11711,12.11711 0 0 0 -0.5,0 c -0.0317,10e-4 -0.0621,-0.001 -0.0937,0 -0.0634,0.003 -0.12406,-0.003 -0.1875,0 a 12.11711,12.11711 0 0 0 -0.46875,0.0625 12.11711,12.11711 0 0 0 -2.6875,0.5625 c -8.5803,2.0504 -15.17371,8.32386 -17.65625,16.90625 l -0.0312,0 -18.78125,56.5 -58.65625,0 c -7.53347,0 -13.83968,3.47608 -18.25,8.71875 l -0.0312,-0.0312 c -0.0616,0.069 -0.0956,0.14932 -0.15625,0.21875 -0.0755,0.0916 -0.17569,0.15736 -0.25,0.25 l 0.0312,0.0312 c -9.51015,11.18708 -7.43717,27.35479 4.5625,35.8125 l -0.0312,0.0312 0.375,0.25 46.90625,34.46875 -18.1875,56.875 a 12.11711,12.11711 0 0 0 -0.125,0.375 c -3.03172,10.62003 2.45863,20.28924 9.4375,25.53125 6.97887,5.24201 17.84052,7.80075 27.1875,1.90625 a 12.11711,12.11711 0 0 0 0.6875,-0.46875 l 48.1561,-35.3749 48.15625,35.375 a 12.11711,12.11711 0 0 0 0.53125,0.375 c 9.49872,6.21981 21.30765,5.26446 29.71875,-2.25 a 12.11711,12.11711 0 0 0 0.15625,-0.15625 C 340.15582,410.65065 342.78269,401.1866 340,392 a 12.11711,12.11711 0 0 0 -0.0625,-0.1875 L 321.75,334.9375 368.65625,300.5 l 0.0625,-0.0312 0.3125,-0.25 -0.0312,-0.0312 c 11.99646,-8.44153 14.03373,-24.57968 4.59375,-35.75 l 0.0312,-0.0312 c -0.0656,-0.0824 -0.15229,-0.13733 -0.21875,-0.21875 -0.0854,-0.0987 -0.13151,-0.21466 -0.21875,-0.3125 l -0.0312,0.0312 c -4.51551,-5.36573 -10.83763,-8.45927 -17.84375,-8.6875 a 12.11711,12.11711 0 0 0 -0.40625,0 l -59.6875,0 -17.5625,-55.8125 -0.15625,-0.53125 -0.0625,0.0312 c -1.20304,-4.1486 -3.40379,-7.84585 -6.5625,-10.84375 l 0.0312,-0.0312 c -0.0486,-0.0472 -0.1073,-0.0782 -0.15625,-0.125 -0.0107,-0.0103 -0.0205,-0.021 -0.0312,-0.0312 -4.16143,-3.96151 -9.46592,-6.18015 -15.15625,-6.5625 a 12.11711,12.11711 0 0 0 -1.7813,-0.18765 l -0.4375,0 z m 1.25,25.625 19.4375,61.875 a 12.11711,12.11711 0 0 0 6.09375,7.1875 l 4.625,2.3125 a 12.11711,12.11711 0 0 0 5.46875,1.3125 l 64.28125,0 c -0.13336,-0.004 0.27611,0.21309 0.15625,0.0625 a 12.11711,12.11711 0 0 0 0.4375,0.5 c -0.71411,-0.80089 -0.92328,1.04186 -0.0312,0.4375 a 12.11711,12.11711 0 0 0 -0.375,0.25 l -52,38.1875 a 12.11711,12.11711 0 0 0 -4.6875,7.375 c 0.60924,-3.00095 0.22493,-1.1782 -0.71875,1.09375 -0.47184,1.13597 -1.41618,2.46432 -1.28125,6.5 0.0495,1.4817 0.63947,3.52513 1.6875,5.5625 l 19.125,59.625 c -0.0282,-0.093 0.004,0.0405 -0.0312,0.0937 -0.0962,-0.13388 -0.57699,-0.10958 -0.21875,0.125 L 265.09375,361.4375 a 12.11711,12.11711 0 0 0 -7.1875,-2.34375 l -6.65625,0 a 12.11711,12.11711 0 0 0 -7.15625,2.34375 l -50.625,37.1875 c -0.0513,-0.0525 -0.0529,-0.0627 -0.34375,-0.28125 -0.34886,-0.26204 -0.38729,-0.31193 -0.4375,-0.3125 L 211.96875,337.875 a 12.11711,12.11711 0 0 0 0.34375,-6.03125 l -1.09375,-5.5625 A 12.11711,12.11711 0 0 0 206.5,318.875 l -52,-38.1875 a 12.11711,12.11711 0 0 0 -0.375,-0.25 c 0.89528,0.60865 0.66186,-1.24946 -0.0625,-0.4375 a 12.11711,12.11711 0 0 0 0.40625,-0.46875 c 0.0321,-0.04 0.4696,-0.0937 -0.1875,-0.0937 l 63.53125,0 a 12.11711,12.11711 0 0 0 5.46875,-1.3125 l 4.625,-2.34375 a 12.11711,12.11711 0 0 0 6.03125,-6.96875 L 254.59375,206.75 Z"
     id="path3989"
     inkscape:connector-curvature="0" />
</svg>
