<?xml version="1.0" encoding="UTF-8" standalone="no"?>
<svg
   xmlns:dc="http://purl.org/dc/elements/1.1/"
   xmlns:cc="http://creativecommons.org/ns#"
   xmlns:rdf="http://www.w3.org/1999/02/22-rdf-syntax-ns#"
   xmlns:svg="http://www.w3.org/2000/svg"
   xmlns="http://www.w3.org/2000/svg"
   xmlns:xlink="http://www.w3.org/1999/xlink"
   xmlns:sodipodi="http://sodipodi.sourceforge.net/DTD/sodipodi-0.dtd"
   xmlns:inkscape="http://www.inkscape.org/namespaces/inkscape"
   viewBox="0 0 22 22"
   id="svg3007"
   version="1.1"
   inkscape:version="0.48.4 r9939"
   width="100%"
   height="100%"
   sodipodi:docname="folder-videos-symbolic.svg">
  <metadata
     id="metadata3037">
    <rdf:RDF>
      <cc:Work
         rdf:about="">
        <dc:format>image/svg+xml</dc:format>
        <dc:type
           rdf:resource="http://purl.org/dc/dcmitype/StillImage" />
        <dc:title />
      </cc:Work>
    </rdf:RDF>
  </metadata>
  <defs
     id="defs3035">
    <linearGradient
       id="linearGradient4008-4-7">
      <stop
         id="stop4010-2-0"
         style="stop-color:#dab980;stop-opacity:1"
         offset="0" />
      <stop
         id="stop4012-5-1"
         style="stop-color:#c29856;stop-opacity:1"
         offset="0.71691591" />
      <stop
         id="stop4014-6-6"
         style="stop-color:#a2773a;stop-opacity:1"
         offset="1" />
    </linearGradient>
    <linearGradient
       inkscape:collect="always"
       xlink:href="#linearGradient3187-7-5"
       id="linearGradient3756"
       gradientUnits="userSpaceOnUse"
       gradientTransform="matrix(5.6190474,0,0,4.9043651,-170.71372,8.7516906)"
       x1="48"
       y1="78"
       x2="48"
       y2="5.9877172" />
    <linearGradient
       id="linearGradient3187-7-5">
      <stop
         id="stop3189-4-5"
         style="stop-color:#c29656;stop-opacity:1"
         offset="0" />
      <stop
         id="stop3191-1-8"
         style="stop-color:#ddc08b;stop-opacity:1"
         offset="1" />
    </linearGradient>
    <linearGradient
       inkscape:collect="always"
       xlink:href="#linearGradient4008-4-7"
       id="linearGradient3822"
       gradientUnits="userSpaceOnUse"
       gradientTransform="matrix(4.4715789,0,0,4.4715789,-908.22105,-66.542998)"
       x1="34.85965"
       y1="16.275133"
       x2="34.994316"
       y2="28.905609" />
    <linearGradient
       inkscape:collect="always"
       xlink:href="#linearGradient3187-7-5"
       id="linearGradient3824"
       gradientUnits="userSpaceOnUse"
       gradientTransform="matrix(5.6190474,0,0,4.9043651,-891.75432,21.86152)"
       x1="48"
       y1="78"
       x2="48"
       y2="5.9877172" />
  </defs>
  <sodipodi:namedview
     pagecolor="#ffffff"
     bordercolor="#666666"
     borderopacity="1"
     objecttolerance="10"
     gridtolerance="10"
     guidetolerance="10"
     inkscape:pageopacity="0"
     inkscape:pageshadow="2"
     inkscape:window-width="1375"
     inkscape:window-height="876"
     id="namedview3033"
     showgrid="false"
     inkscape:zoom="12.001175"
     inkscape:cx="-2.7676454"
     inkscape:cy="11"
     inkscape:window-x="1431"
     inkscape:window-y="24"
     inkscape:window-maximized="1"
     inkscape:current-layer="svg3007" />
  <path
     inkscape:connector-curvature="0"
     d="m 15.92619,11.81818 c -1.24261,0 -2.25,-1.00738 -2.25,-2.25 0,-1.24261 1.00739,-2.25 2.25,-2.25 1.24261,0 2.25,1.00739 2.25,2.25 0,1.24262 -1.00739,2.25 -2.25,2.25 z m -1.87077,5.52273 c -1.24266,0 -2.25,-1.00739 -2.25,-2.25 0,-1.24261 1.00734,-2.25 2.25,-2.25 1.24273,0 2.25,1.00739 2.25,2.25 0,1.24261 -1.00727,2.25 -2.25,2.25 z M 8.7499996,5.88636 c 0,-1.24261 1.00739,-2.25 2.2500004,-2.25 1.24261,0 2.25,1.00739 2.25,2.25 0,1.24262 -1.00739,2.25 -2.25,2.25 -1.2426104,0 -2.2500004,-1.00738 -2.2500004,-2.25 z m -0.83095,11.45455 c -1.24265,0 -2.25,-1.00739 -2.25,-2.25 0,-1.24261 1.00735,-2.25 2.25,-2.25 1.24274,0 2.2500004,1.00739 2.2500004,2.25 0,1.24261 -1.0072604,2.25 -2.2500004,2.25 z m -4.07814,-7.77273 c 0,-1.24261 1.00739,-2.25 2.25,-2.25 1.24261,0 2.25,1.00739 2.25,2.25 0,1.24262 -1.00739,2.25 -2.25,2.25 -1.24261,0 -2.25,-1.00738 -2.25,-2.25 z M 11,2 c -4.9706204,0 -9,4.02938 -9,9 0,4.97062 4.0293796,9 9,9 4.97062,0 9,-4.02938 9,-9 0,-4.97062 -4.02938,-9 -9,-9"
     style="color:#000000;fill:#ffffff;fill-opacity:0.88235293999999986;fill-rule:nonzero;stroke:none;stroke-width:2.13333343999999991;marker:none;visibility:visible;display:inline;overflow:visible;enable-background:accumulate;opacity:0.9"
     id="path30" />
</svg>
