<?xml version="1.0" encoding="UTF-8" standalone="no"?>
<svg
   xmlns:dc="http://purl.org/dc/elements/1.1/"
   xmlns:cc="http://creativecommons.org/ns#"
   xmlns:rdf="http://www.w3.org/1999/02/22-rdf-syntax-ns#"
   xmlns:svg="http://www.w3.org/2000/svg"
   xmlns="http://www.w3.org/2000/svg"
   xmlns:sodipodi="http://sodipodi.sourceforge.net/DTD/sodipodi-0.dtd"
   xmlns:inkscape="http://www.inkscape.org/namespaces/inkscape"
   width="48"
   viewBox="0 0 48 48"
   height="48"
   id="svg2"
   version="1.1"
   inkscape:version="0.91 r13725"
   sodipodi:docname="application-x-tha.svg">
  <metadata
     id="metadata28">
    <rdf:RDF>
      <cc:Work
         rdf:about="">
        <dc:format>image/svg+xml</dc:format>
        <dc:type
           rdf:resource="http://purl.org/dc/dcmitype/StillImage" />
      </cc:Work>
    </rdf:RDF>
  </metadata>
  <defs
     id="defs26" />
  <sodipodi:namedview
     pagecolor="#ffffff"
     bordercolor="#666666"
     borderopacity="1"
     objecttolerance="10"
     gridtolerance="10"
     guidetolerance="10"
     inkscape:pageopacity="0"
     inkscape:pageshadow="2"
     inkscape:window-width="757"
     inkscape:window-height="480"
     id="namedview24"
     showgrid="false"
     inkscape:zoom="4.9166667"
     inkscape:cx="24"
     inkscape:cy="24"
     inkscape:window-x="0"
     inkscape:window-y="28"
     inkscape:window-maximized="0"
     inkscape:current-layer="svg2" />
  <path
     d="m8 1c-1.0286 0-2 0.9714-2 2v42c0 0.97143 1.0286 2 2 2h32c0.97143 0 2-1.0286 2-2v-31l-13-13z"
     fill="#c19553"
     id="path4"
     style="fill:#3a3a3a;fill-opacity:1" />
  <path
     d="m29 12 0.062 0.062 0.157-0.062h-0.219zm2 2 11 11v-11h-11z"
     fill-opacity=".196"
     id="path6" />
  <path
     fill="#fff"
     d="m29 1 13 13h-11c-0.97143 0-2-1.0286-2-2v-11z"
     fill-opacity=".392"
     id="path8" />
  <path
     d="m6 35v10c0 0.97143 1.0286 2 2 2h32c0.97143 0 2-1.0286 2-2v-10z"
     fill-opacity=".196"
     id="path10" />
  <g
     fill="#fff"
     id="g12">
    <path
       d="m18 1v4h4v-4h-4zm0 4h-4v4h4v-4zm0 4v4h4v-4h-4zm0 4h-4v4h4v-4zm0 4v4h4v-4h-4zm-4 6v8h8v-8h-4-4z"
       id="path14" />
    <g
       transform="scale(1.0274 .97331)"
       id="g16">
      <path
         d="m19.602 38.015v1.3544h-2.1644v6.865h-1.6465v-6.865h-2.1644v-1.3544h5.9753"
         id="path18" />
      <path
         d="m25.975 38.015v8.2194h-1.6332v-3.625h-2.1777v3.625h-1.6333v-8.2194h1.6333v3.2399h2.1777v-3.2399h1.6332"
         id="path20" />
      <path
         d="m31.34 46.234-0.38508-1.8988h-2.1909l-0.3718 1.8988h-1.6996c0.3895-1.62 0.78343-3.0939 1.1818-4.4217 0.39835-1.3367 0.78343-2.6026 1.1552-3.7976h1.7793c0.3895 1.2039 0.77457 2.4831 1.1552 3.8375 0.3895 1.3456 0.76572 2.8062 1.1287 4.3819h-1.7528m-1.4606-6.626c-0.08853 0.30984-0.17262 0.60639-0.25229 0.88966-0.07082 0.27443-0.14164 0.54885-0.21246 0.82326-0.06197 0.26557-0.12394 0.53557-0.1859 0.80999-0.05312 0.27442-0.10623 0.5577-0.15934 0.84982h1.6067c-0.05312-0.29212-0.10623-0.5754-0.15934-0.84982-0.05312-0.27442-0.11508-0.54441-0.1859-0.80999-0.06197-0.27442-0.13279-0.54884-0.21246-0.82326-0.07082-0.28327-0.15049-0.57982-0.23901-0.88966"
         id="path22" />
    </g>
  </g>
</svg>
