<?xml version="1.0" encoding="UTF-8" standalone="no"?>
<svg
   xmlns:dc="http://purl.org/dc/elements/1.1/"
   xmlns:cc="http://creativecommons.org/ns#"
   xmlns:rdf="http://www.w3.org/1999/02/22-rdf-syntax-ns#"
   xmlns:svg="http://www.w3.org/2000/svg"
   xmlns="http://www.w3.org/2000/svg"
   xmlns:sodipodi="http://sodipodi.sourceforge.net/DTD/sodipodi-0.dtd"
   xmlns:inkscape="http://www.inkscape.org/namespaces/inkscape"
   width="48"
   viewBox="0 0 48 48"
   height="48"
   id="svg2"
   version="1.1"
   inkscape:version="0.91 r13725"
   sodipodi:docname="application-x-thz.svg">
  <metadata
     id="metadata28">
    <rdf:RDF>
      <cc:Work
         rdf:about="">
        <dc:format>image/svg+xml</dc:format>
        <dc:type
           rdf:resource="http://purl.org/dc/dcmitype/StillImage" />
      </cc:Work>
    </rdf:RDF>
  </metadata>
  <defs
     id="defs26" />
  <sodipodi:namedview
     pagecolor="#ffffff"
     bordercolor="#666666"
     borderopacity="1"
     objecttolerance="10"
     gridtolerance="10"
     guidetolerance="10"
     inkscape:pageopacity="0"
     inkscape:pageshadow="2"
     inkscape:window-width="757"
     inkscape:window-height="480"
     id="namedview24"
     showgrid="false"
     inkscape:zoom="4.9166667"
     inkscape:cx="1.9322034"
     inkscape:cy="24"
     inkscape:window-x="0"
     inkscape:window-y="28"
     inkscape:window-maximized="0"
     inkscape:current-layer="svg2" />
  <path
     d="m8 1c-1.0286 0-2 0.9714-2 2v42c0 0.97143 1.0286 2 2 2h32c0.97143 0 2-1.0286 2-2v-31l-13-13z"
     fill="#c19553"
     id="path4"
     style="fill:#3a3a3a;fill-opacity:1" />
  <path
     d="m29 12 0.062 0.062 0.157-0.062h-0.219zm2 2 11 11v-11h-11z"
     fill-opacity=".196"
     id="path6" />
  <path
     fill="#fff"
     d="m29 1 13 13h-11c-0.97143 0-2-1.0286-2-2v-11z"
     fill-opacity=".392"
     id="path8" />
  <path
     d="m6 35v10c0 0.97143 1.0286 2 2 2h32c0.97143 0 2-1.0286 2-2v-10z"
     fill-opacity=".196"
     id="path10" />
  <g
     fill="#fff"
     id="g12">
    <path
       d="m18 1v4h4v-4h-4zm0 4h-4v4h4v-4zm0 4v4h4v-4h-4zm0 4h-4v4h4v-4zm0 4v4h4v-4h-4zm-4 6v8h8v-8h-4-4z"
       id="path14" />
    <g
       transform="matrix(1.054 0 0 .97331 -.36249 0)"
       id="g16">
      <path
         d="m19.602 38.015v1.3544h-2.1644v6.865h-1.6465v-6.865h-2.1644v-1.3544h5.9753"
         id="path18" />
      <path
         d="m25.975 38.015v8.2194h-1.6332v-3.625h-2.1777v3.625h-1.6333v-8.2194h1.6333v3.2399h2.1777v-3.2399h1.6332"
         id="path20" />
      <path
         d="m32.482 39.157c-0.38066 0.58426-0.73032 1.1331-1.049 1.6465-0.31869 0.51344-0.61524 1.0047-0.88966 1.4739-0.27443 0.46032-0.53557 0.90736-0.78343 1.3411-0.23902 0.42491-0.46918 0.8454-0.69048 1.2615h3.5321v1.3544h-5.4176v-0.94277c0.19475-0.38065 0.40278-0.779 0.62409-1.1951 0.22131-0.42491 0.46917-0.87638 0.74359-1.3544s0.57097-0.99588 0.88966-1.5536c0.32753-0.55769 0.68605-1.1641 1.0756-1.8191h-3.1603v-1.3544h5.1255v1.1419"
         id="path22" />
    </g>
  </g>
</svg>
