<?xml version="1.0" encoding="UTF-8" standalone="no"?>
<svg
   xmlns:dc="http://purl.org/dc/elements/1.1/"
   xmlns:cc="http://creativecommons.org/ns#"
   xmlns:rdf="http://www.w3.org/1999/02/22-rdf-syntax-ns#"
   xmlns:svg="http://www.w3.org/2000/svg"
   xmlns="http://www.w3.org/2000/svg"
   xmlns:sodipodi="http://sodipodi.sourceforge.net/DTD/sodipodi-0.dtd"
   xmlns:inkscape="http://www.inkscape.org/namespaces/inkscape"
   width="48"
   viewBox="0 0 48 48"
   height="48"
   id="svg2"
   version="1.1"
   inkscape:version="0.91 r13725"
   sodipodi:docname="application-x-lha.svg">
  <metadata
     id="metadata28">
    <rdf:RDF>
      <cc:Work
         rdf:about="">
        <dc:format>image/svg+xml</dc:format>
        <dc:type
           rdf:resource="http://purl.org/dc/dcmitype/StillImage" />
      </cc:Work>
    </rdf:RDF>
  </metadata>
  <defs
     id="defs26" />
  <sodipodi:namedview
     pagecolor="#ffffff"
     bordercolor="#666666"
     borderopacity="1"
     objecttolerance="10"
     gridtolerance="10"
     guidetolerance="10"
     inkscape:pageopacity="0"
     inkscape:pageshadow="2"
     inkscape:window-width="757"
     inkscape:window-height="480"
     id="namedview24"
     showgrid="false"
     inkscape:zoom="4.9166667"
     inkscape:cx="1.9322034"
     inkscape:cy="24"
     inkscape:window-x="0"
     inkscape:window-y="28"
     inkscape:window-maximized="0"
     inkscape:current-layer="svg2" />
  <path
     d="m8 1c-1.0286 0-2 0.9714-2 2v42c0 0.97143 1.0286 2 2 2h32c0.97143 0 2-1.0286 2-2v-31l-13-13z"
     fill="#c19553"
     id="path4"
     style="fill:#3a3a3a;fill-opacity:1" />
  <path
     d="m29 12 0.062 0.062 0.157-0.062h-0.219zm2 2 11 11v-11h-11z"
     fill-opacity=".196"
     id="path6" />
  <path
     fill="#fff"
     d="m29 1 13 13h-11c-0.97143 0-2-1.0286-2-2v-11z"
     fill-opacity=".392"
     id="path8" />
  <path
     d="m6 35v10c0 0.97143 1.0286 2 2 2h32c0.97143 0 2-1.0286 2-2v-10z"
     fill-opacity=".196"
     id="path10" />
  <g
     fill="#fff"
     id="g12">
    <path
       d="m18 1v4h4v-4h-4zm0 4h-4v4h4v-4zm0 4v4h4v-4h-4zm0 4h-4v4h4v-4zm0 4v4h4v-4h-4zm-4 6v8h8v-8h-4-4z"
       id="path14" />
    <g
       transform="matrix(1.0439 0 0 .95792 1.4571 .16099)"
       id="g16">
      <path
         d="m17.263 46.809h-5.2483v-8.3514h1.673v6.9753h3.5753v1.3762"
         id="path18" />
      <path
         d="m23.942 38.457v8.3514h-1.6595v-3.6833h-2.2127v3.6833h-1.6595v-8.3514h1.6595v3.292h2.2127v-3.292h1.6595"
         id="path20" />
      <path
         d="m29.393 46.809-0.39126-1.9293h-2.2262l-0.37777 1.9293h-1.727c0.39576-1.646 0.79602-3.1436 1.2008-4.4928 0.40475-1.3582 0.79602-2.6444 1.1738-3.8587h1.8079c0.39576 1.2233 0.78702 2.523 1.1738 3.8991 0.39575 1.3672 0.77802 2.8513 1.1468 4.4523h-1.7809m-1.4841-6.7324c-0.08995 0.31482-0.1754 0.61613-0.25634 0.90395-0.07196 0.27884-0.14392 0.55767-0.21587 0.83649-0.06296 0.26984-0.12593 0.54418-0.18888 0.823-0.05397 0.27884-0.10794 0.56666-0.1619 0.86348h1.6325c-0.05397-0.29682-0.10794-0.58464-0.1619-0.86348-0.05397-0.27883-0.11693-0.55316-0.18888-0.823-0.06297-0.27882-0.13492-0.55766-0.21587-0.83649-0.07196-0.28782-0.15291-0.58914-0.24285-0.90395"
         id="path22" />
    </g>
  </g>
</svg>
