<?xml version="1.0" encoding="UTF-8" standalone="no"?>
<svg
   xmlns:dc="http://purl.org/dc/elements/1.1/"
   xmlns:cc="http://creativecommons.org/ns#"
   xmlns:rdf="http://www.w3.org/1999/02/22-rdf-syntax-ns#"
   xmlns:svg="http://www.w3.org/2000/svg"
   xmlns="http://www.w3.org/2000/svg"
   xmlns:sodipodi="http://sodipodi.sourceforge.net/DTD/sodipodi-0.dtd"
   xmlns:inkscape="http://www.inkscape.org/namespaces/inkscape"
   width="48"
   viewBox="0 0 48 48"
   height="48"
   id="svg2"
   version="1.1"
   inkscape:version="0.91 r13725"
   sodipodi:docname="application-x-lhz.svg">
  <metadata
     id="metadata28">
    <rdf:RDF>
      <cc:Work
         rdf:about="">
        <dc:format>image/svg+xml</dc:format>
        <dc:type
           rdf:resource="http://purl.org/dc/dcmitype/StillImage" />
      </cc:Work>
    </rdf:RDF>
  </metadata>
  <defs
     id="defs26" />
  <sodipodi:namedview
     pagecolor="#ffffff"
     bordercolor="#666666"
     borderopacity="1"
     objecttolerance="10"
     gridtolerance="10"
     guidetolerance="10"
     inkscape:pageopacity="0"
     inkscape:pageshadow="2"
     inkscape:window-width="757"
     inkscape:window-height="480"
     id="namedview24"
     showgrid="false"
     inkscape:zoom="4.9166667"
     inkscape:cx="24"
     inkscape:cy="24"
     inkscape:window-x="0"
     inkscape:window-y="28"
     inkscape:window-maximized="0"
     inkscape:current-layer="svg2" />
  <path
     d="m8 1c-1.0286 0-2 0.9714-2 2v42c0 0.97143 1.0286 2 2 2h32c0.97143 0 2-1.0286 2-2v-31l-13-13z"
     fill="#c19553"
     id="path4"
     style="fill:#3a3a3a;fill-opacity:1" />
  <path
     d="m29 12 0.062 0.062 0.157-0.062h-0.219zm2 2 11 11v-11h-11z"
     fill-opacity=".196"
     id="path6" />
  <path
     fill="#fff"
     d="m29 1 13 13h-11c-0.97143 0-2-1.0286-2-2v-11z"
     fill-opacity=".392"
     id="path8" />
  <path
     d="m6 35v10c0 0.97143 1.0286 2 2 2h32c0.97143 0 2-1.0286 2-2v-10z"
     fill-opacity=".196"
     id="path10" />
  <g
     fill="#fff"
     id="g12">
    <path
       d="m18 1v4h4v-4h-4zm0 4h-4v4h4v-4zm0 4v4h4v-4h-4zm0 4h-4v4h4v-4zm0 4v4h4v-4h-4zm-4 6v8h8v-8h-4-4z"
       id="path14" />
    <g
       transform="matrix(1.0719 0 0 .95792 1.1215 .16099)"
       id="g16">
      <path
         d="m17.263 46.809h-5.2483v-8.3514h1.673v6.9753h3.5753v1.3762"
         id="path18" />
      <path
         d="m23.942 38.457v8.3514h-1.6595v-3.6833h-2.2127v3.6833h-1.6595v-8.3514h1.6595v3.292h2.2127v-3.292h1.6595"
         id="path20" />
      <path
         d="m30.553 39.618c-0.38677 0.59365-0.74206 1.1513-1.0659 1.673-0.32381 0.52169-0.62512 1.0209-0.90395 1.4976-0.27884 0.46772-0.54417 0.92194-0.79602 1.3627-0.24286 0.43174-0.47671 0.85898-0.70158 1.2817h3.5888v1.3762h-5.5047v-0.95792c0.19788-0.38676 0.40925-0.79152 0.63412-1.2143 0.22486-0.43174 0.47671-0.89046 0.75554-1.3762 0.27883-0.4857 0.58015-1.0119 0.90395-1.5785 0.3328-0.56665 0.69707-1.1828 1.0928-1.8484h-3.2111v-1.3762h5.2078v1.1603"
         id="path22" />
    </g>
  </g>
</svg>
