<?xml version="1.0" encoding="UTF-8" standalone="no"?>
<svg
   xmlns:dc="http://purl.org/dc/elements/1.1/"
   xmlns:cc="http://creativecommons.org/ns#"
   xmlns:rdf="http://www.w3.org/1999/02/22-rdf-syntax-ns#"
   xmlns:svg="http://www.w3.org/2000/svg"
   xmlns="http://www.w3.org/2000/svg"
   xmlns:sodipodi="http://sodipodi.sourceforge.net/DTD/sodipodi-0.dtd"
   xmlns:inkscape="http://www.inkscape.org/namespaces/inkscape"
   width="48"
   viewBox="0 0 48 48"
   height="48"
   id="svg2"
   version="1.1"
   inkscape:version="0.91 r13725"
   sodipodi:docname="application-x-cpio.svg">
  <metadata
     id="metadata30">
    <rdf:RDF>
      <cc:Work
         rdf:about="">
        <dc:format>image/svg+xml</dc:format>
        <dc:type
           rdf:resource="http://purl.org/dc/dcmitype/StillImage" />
      </cc:Work>
    </rdf:RDF>
  </metadata>
  <defs
     id="defs28" />
  <sodipodi:namedview
     pagecolor="#ffffff"
     bordercolor="#666666"
     borderopacity="1"
     objecttolerance="10"
     gridtolerance="10"
     guidetolerance="10"
     inkscape:pageopacity="0"
     inkscape:pageshadow="2"
     inkscape:window-width="757"
     inkscape:window-height="480"
     id="namedview26"
     showgrid="false"
     inkscape:zoom="4.9166667"
     inkscape:cx="24"
     inkscape:cy="24"
     inkscape:window-x="0"
     inkscape:window-y="28"
     inkscape:window-maximized="0"
     inkscape:current-layer="svg2" />
  <path
     d="m8 1c-1.0286 0-2 0.9714-2 2v42c0 0.97143 1.0286 2 2 2h32c0.97143 0 2-1.0286 2-2v-31l-13-13z"
     fill="#c19553"
     id="path4"
     style="fill:#3a3a3a;fill-opacity:1" />
  <path
     d="m29 12 0.062 0.062 0.157-0.062h-0.219zm2 2 11 11v-11h-11z"
     fill-opacity=".196"
     id="path6" />
  <path
     fill="#fff"
     d="m29 1 13 13h-11c-0.97143 0-2-1.0286-2-2v-11z"
     fill-opacity=".392"
     id="path8" />
  <path
     d="m6 35v10c0 0.97143 1.0286 2 2 2h32c0.97143 0 2-1.0286 2-2v-10z"
     fill-opacity=".196"
     id="path10" />
  <g
     fill="#fff"
     id="g12">
    <path
       d="m18 1v4h4v-4h-4zm0 4h-4v4h4v-4zm0 4v4h4v-4h-4zm0 4h-4v4h4v-4zm0 4v4h4v-4h-4zm-4 6v8h8v-8h-4-4z"
       id="path14" />
    <g
       transform="scale(.99794 1.0021)"
       id="g16">
      <path
         d="m15.349 44.907c-1.0793 0-1.9032-0.34604-2.4717-1.0381-0.56849-0.69207-0.85273-1.6766-0.85273-2.9537 0-0.6344 0.08651-1.1988 0.25953-1.6931 0.17302-0.49433 0.41195-0.9104 0.71679-1.2482 0.31308-0.34603 0.67971-0.60556 1.0999-0.77858 0.42842-0.18125 0.89392-0.27188 1.3965-0.27189 0.27188 0.000008 0.51493 0.02472 0.72915 0.07415 0.22245 0.0412 0.41606 0.09064 0.58084 0.1483 0.16477 0.05768 0.30072 0.11947 0.40783 0.18538 0.11534 0.06592 0.20185 0.11535 0.25953 0.1483l-0.39547 1.2111c-0.1895-0.12358-0.42019-0.22656-0.69207-0.30896-0.26365-0.09062-0.56849-0.13594-0.91452-0.13594-0.23893 0.000007-0.47374 0.04532-0.70443 0.13594-0.22245 0.0824-0.42431 0.22658-0.60556 0.43254-0.17302 0.19774-0.3172 0.4655-0.43254 0.8033-0.10711 0.3378-0.16066 0.75799-0.16066 1.2606-0.000002 0.87333 0.1483 1.5448 0.4449 2.0144 0.30484 0.46138 0.79917 0.69207 1.483 0.69207 0.39546 0.000002 0.7209-0.04531 0.97632-0.13594 0.26364-0.09063 0.47373-0.18126 0.63028-0.27188l0.38311 1.1988c-0.21422 0.13182-0.5067 0.25541-0.87745 0.37075-0.36252 0.10711-0.7827 0.16066-1.2606 0.16066"
         id="path18" />
      <path
         d="m20.639 37.01c0.97219 0.000008 1.7261 0.20186 2.2616 0.60556 0.53553 0.39548 0.80329 1.0464 0.8033 1.9526-0.000006 0.91453-0.27189 1.5778-0.81566 1.9897-0.53554 0.40371-1.2976 0.60556-2.2863 0.60556h-0.54377v2.5829h-1.5201v-7.551c0.1483-0.03295 0.31308-0.06179 0.49434-0.08651 0.18949-0.02471 0.37899-0.04119 0.56849-0.04943 0.18949-0.01647 0.37487-0.02883 0.55613-0.03708 0.18125-0.0082 0.34191-0.01235 0.48198-0.01236m0.17302 1.3224c-0.09063 0.000007-0.21833 0.0041-0.38311 0.01236-0.15654 0.000006-0.28013 0.0082-0.37075 0.02472v2.4717h0.61792c0.48609 0.000004 0.85273-0.09474 1.0999-0.28424 0.24716-0.19773 0.37075-0.53141 0.37075-1.001-0.000005-0.4449-0.12359-0.75798-0.37075-0.93924-0.23893-0.18949-0.56025-0.28424-0.96396-0.28424"
         id="path20" />
      <path
         d="m24.717 44.747v-1.2606h1.6684v-5.1287h-1.6684v-1.2606h4.8569v1.2606h-1.656v5.1287h1.656v1.2606h-4.8569"
         id="path22" />
      <path
         d="m32.107 40.916c-0.000002 0.37076 0.01236 0.72091 0.03707 1.0505 0.03295 0.32132 0.09063 0.60144 0.17302 0.84037 0.09063 0.23893 0.21421 0.42843 0.37075 0.56849s0.36663 0.2101 0.63028 0.21009c0.2554 0.000002 0.46138-0.07003 0.61792-0.21009 0.16478-0.14006 0.28836-0.32956 0.37075-0.56849 0.09063-0.24717 0.1483-0.53141 0.17302-0.85273 0.03295-0.32132 0.04943-0.66735 0.04943-1.0381-0.000004-0.37075-0.01648-0.71678-0.04943-1.0381-0.02472-0.32955-0.08239-0.6138-0.17302-0.85273-0.08239-0.23892-0.20186-0.42842-0.35839-0.56849-0.15654-0.14006-0.36664-0.21009-0.63028-0.21009-0.26365 0.000007-0.47374 0.07004-0.63028 0.21009-0.15654 0.14007-0.28013 0.33368-0.37075 0.58085-0.08239 0.23894-0.14006 0.51906-0.17302 0.84037-0.02472 0.32132-0.03708 0.66736-0.03707 1.0381m-1.5448 0c0-1.3182 0.24305-2.311 0.72915-2.9784 0.4861-0.67559 1.1617-1.0134 2.0268-1.0134 0.89804 0.000008 1.5819 0.3378 2.0515 1.0134 0.46962 0.66736 0.70442 1.6602 0.70443 2.9784-0.000005 1.3182-0.23894 2.3151-0.71679 2.9907-0.47786 0.66736-1.1535 1.001-2.0268 1.001-0.89805 0-1.586-0.33368-2.0639-1.001-0.46962-0.67559-0.70443-1.6725-0.70443-2.9907"
         id="path24" />
    </g>
  </g>
</svg>
