<?xml version="1.0" encoding="UTF-8" standalone="no"?>
<!-- Created with Inkscape (http://www.inkscape.org/) -->

<svg
   xmlns:dc="http://purl.org/dc/elements/1.1/"
   xmlns:cc="http://creativecommons.org/ns#"
   xmlns:rdf="http://www.w3.org/1999/02/22-rdf-syntax-ns#"
   xmlns:svg="http://www.w3.org/2000/svg"
   xmlns="http://www.w3.org/2000/svg"
   xmlns:sodipodi="http://sodipodi.sourceforge.net/DTD/sodipodi-0.dtd"
   xmlns:inkscape="http://www.inkscape.org/namespaces/inkscape"
   id="svg2"
   version="1.1"
   inkscape:version="0.91 r13725"
   width="512"
   height="513"
   sodipodi:docname="folder-music.svg">
  <metadata
     id="metadata8">
    <rdf:RDF>
      <cc:Work
         rdf:about="">
        <dc:format>image/svg+xml</dc:format>
        <dc:type
           rdf:resource="http://purl.org/dc/dcmitype/StillImage" />
        <dc:title></dc:title>
      </cc:Work>
    </rdf:RDF>
  </metadata>
  <defs
     id="defs6" />
  <sodipodi:namedview
     pagecolor="#ffffff"
     bordercolor="#666666"
     borderopacity="1"
     objecttolerance="10"
     gridtolerance="10"
     guidetolerance="10"
     inkscape:pageopacity="0"
     inkscape:pageshadow="2"
     inkscape:window-width="1920"
     inkscape:window-height="1013"
     id="namedview4"
     showgrid="true"
     inkscape:zoom="1.26"
     inkscape:cx="-1.1472023"
     inkscape:cy="237.27767"
     inkscape:window-x="1920"
     inkscape:window-y="28"
     inkscape:window-maximized="1"
     inkscape:current-layer="svg2">
    <inkscape:grid
       type="xygrid"
       id="grid4140" />
  </sodipodi:namedview>
  <rect
     style="fill:#1a1a1a;fill-rule:evenodd;stroke:#000000;stroke-width:0;stroke-linecap:butt;stroke-linejoin:miter;stroke-opacity:0;stroke-miterlimit:4;stroke-dasharray:none;fill-opacity:1"
     id="rect2984"
     width="183.68008"
     height="44.56144"
     x="33.692795"
     y="71.733047" />
  <rect
     style="fill:#262626;fill-rule:evenodd;stroke:#000000;stroke-width:0;stroke-linecap:butt;stroke-linejoin:miter;stroke-opacity:1;stroke-miterlimit:4;stroke-dasharray:none;fill-opacity:1"
     id="rect2982"
     width="493.43646"
     height="326.0593"
     x="8.6949148"
     y="115.20763" />
  <rect
     style="fill:none;stroke:none"
     id="rect4509"
     width="256.55185"
     height="256.55185"
     x="127.13725"
     y="149.96135" />
  <path
     style="fill:#b2b2b2;fill-opacity:1;stroke:none;stroke-opacity:1"
     d="m 256.55375,217.23732 c -25.99233,0 -46.92615,20.86664 -47.04492,46.83008 -19.32334,2.59826 -34.0957,18.29251 -34.0957,37.39258 0,20.92889 17.73328,37.77734 39.75977,37.77734 l 2.21093,0 0,-42.2207 c 0,-2.91171 0.20598,-5.7551 0.58008,-8.51758 l 0,-13.36328 c 0,-0.96849 0.0324,-1.92712 0.0801,-2.88086 0.25533,-2.94049 0.70103,-5.80512 1.32226,-8.57227 l -0.23242,0 c 4.28051,-20.65923 19.88316,-35.89453 38.58985,-35.89453 18.712,0 34.3204,15.24395 38.5957,35.91211 -0.0321,-5e-4 -0.0636,-0.003 -0.0957,-0.004 0.35978,1.6042 0.6389,3.25096 0.8789,4.91602 0.24498,2.13315 0.38086,4.30767 0.38086,6.52344 l 0,26.06054 c 0,1.08238 -0.0396,2.15329 -0.0996,3.2168 l 0,9.17773 c 0.13456,-0.23519 0.27939,-0.46355 0.41016,-0.70117 l 0,26.29297 c 21.02355,-1.04982 37.61914,-17.47619 37.61914,-37.72265 0,-18.33763 -13.6189,-33.52554 -31.80664,-37.00782 l 0,-0.16406 c 0,-26.06641 -20.98632,-47.05078 -47.05274,-47.05078 z"
     id="rect5912"
     inkscape:connector-curvature="0" />
</svg>
