<?xml version="1.0" encoding="UTF-8" standalone="no"?>
<!-- Created with Inkscape (http://www.inkscape.org/) -->

<svg
   xmlns:dc="http://purl.org/dc/elements/1.1/"
   xmlns:cc="http://creativecommons.org/ns#"
   xmlns:rdf="http://www.w3.org/1999/02/22-rdf-syntax-ns#"
   xmlns:svg="http://www.w3.org/2000/svg"
   xmlns="http://www.w3.org/2000/svg"
   xmlns:sodipodi="http://sodipodi.sourceforge.net/DTD/sodipodi-0.dtd"
   xmlns:inkscape="http://www.inkscape.org/namespaces/inkscape"
   id="svg2"
   version="1.1"
   inkscape:version="0.91 r13725"
   width="512"
   height="513"
   sodipodi:docname="folder-games.svg">
  <metadata
     id="metadata8">
    <rdf:RDF>
      <cc:Work
         rdf:about="">
        <dc:format>image/svg+xml</dc:format>
        <dc:type
           rdf:resource="http://purl.org/dc/dcmitype/StillImage" />
        <dc:title></dc:title>
      </cc:Work>
    </rdf:RDF>
  </metadata>
  <defs
     id="defs6" />
  <sodipodi:namedview
     pagecolor="#ffffff"
     bordercolor="#666666"
     borderopacity="1"
     objecttolerance="10"
     gridtolerance="10"
     guidetolerance="10"
     inkscape:pageopacity="0"
     inkscape:pageshadow="2"
     inkscape:window-width="1920"
     inkscape:window-height="1013"
     id="namedview4"
     showgrid="true"
     inkscape:zoom="0.78"
     inkscape:cx="-1.1472023"
     inkscape:cy="237.27767"
     inkscape:window-x="1920"
     inkscape:window-y="28"
     inkscape:window-maximized="1"
     inkscape:current-layer="svg2">
    <inkscape:grid
       type="xygrid"
       id="grid4140" />
  </sodipodi:namedview>
  <rect
     style="fill:#1a1a1a;fill-rule:evenodd;stroke:#000000;stroke-width:0;stroke-linecap:butt;stroke-linejoin:miter;stroke-opacity:0;stroke-miterlimit:4;stroke-dasharray:none;fill-opacity:1"
     id="rect2984"
     width="183.68008"
     height="44.56144"
     x="33.692795"
     y="71.733047" />
  <rect
     style="fill:#262626;fill-rule:evenodd;stroke:#000000;stroke-width:0;stroke-linecap:butt;stroke-linejoin:miter;stroke-opacity:1;stroke-miterlimit:4;stroke-dasharray:none;fill-opacity:1"
     id="rect2982"
     width="493.43646"
     height="326.0593"
     x="8.6949148"
     y="115.20763" />
  <path
     style="fill:#b2b2b2;fill-opacity:1;stroke:#b2b2b2;stroke-opacity:1"
     d="m -436.96675,190.19302 a 120,120 0 0 0 -86.60351,35.13281 120,120 0 0 0 0,169.70703 120,120 0 0 0 169.70508,0 120,120 0 0 0 0,-169.70703 120,120 0 0 0 -83.10157,-35.13281 z m 46.4043,54.27929 17.55078,18.21289 -84.375,87.56055 -0.85742,-0.88867 -4.29101,3.83594 -59.9668,-53.59766 12.47265,-11.14844 41.41993,37.01953 78.04687,-80.99414 z"
     id="path4585"
     inkscape:connector-curvature="0" />
  <rect
     style="fill:#b2b2b2;fill-opacity:1;stroke:none;stroke-opacity:1"
     id="rect4666"
     width="60"
     height="200"
     x="-459.74359"
     y="510.9487" />
  <rect
     style="fill:#777777;fill-opacity:1;stroke:none;stroke-opacity:1"
     id="rect4587"
     width="121.59753"
     height="25.292284"
     x="376.33939"
     y="181.17776"
     transform="matrix(0.6938936,-0.72007754,0.6938936,0.72007754,0,0)" />
  <rect
     style="fill:#777777;fill-opacity:1;stroke:none;stroke-opacity:1"
     id="rect4587-3"
     width="121.59753"
     height="25.292284"
     x="-333.7514"
     y="26.582685"
     transform="matrix(0.6938936,-0.72007754,0.6938936,0.72007754,0,0)" />
  <rect
     style="fill:#b2b2b2;fill-opacity:1;stroke:none;stroke-opacity:1"
     id="rect4666-9"
     width="60"
     height="200"
     x="-633.25641"
     y="-493.58975"
     transform="matrix(0,-1,1,0,0,0)" />
  <rect
     style="fill:none;stroke:none"
     id="rect4509"
     width="256.55185"
     height="256.55185"
     x="127.13725"
     y="149.96135" />
  <g
     id="layer1"
     transform="matrix(5.4268192,0,0,5.4268192,124.8733,141.95425)">
    <rect
       height="17.412197"
       width="25.926046"
       stroke-miterlimit="2.01260185242"
       transform="translate(10.8203,14.5569)"
       id="shape0"
       x="0"
       y="0"
       style="fill:#bdc3c7;fill-rule:evenodd;stroke:#003bc3;stroke-width:0;stroke-linecap:square;stroke-linejoin:miter;stroke-miterlimit:2.01260185" />
    <path
       d="M 19.4498,9.15558 C 18.7468,3.50933 14.0309,-0.5171 8.7897,0.0539293 3.54849,0.624959 -0.330101,5.58775 0.0222151,11.2722 0.374532,16.9567 4.83085,21.3152 10.0956,21.1246 c 5.2648,-0.1906 9.4416,-4.8618 9.4416,-10.559"
       stroke-miterlimit="2.01260185242"
       transform="translate(1.19307,14.5417)"
       id="shape1"
       inkscape:connector-curvature="0"
       style="fill:#bdc3c7;fill-rule:evenodd;stroke:#003bc3;stroke-width:0;stroke-linecap:square;stroke-linejoin:miter;stroke-miterlimit:2.01260185" />
    <path
       d="M 0,10.569 C 0.00134316,16.1776 4.16446,20.8077 9.48275,21.1153 14.801,21.4229 19.4207,17.3008 20.0054,11.7261 20.5901,6.15128 16.936,1.06701 11.6822,0.145095 6.4283,-0.776817 1.406,2.78499 0.242361,8.25817"
       stroke-miterlimit="2.00000000000"
       transform="translate(26.8493,14.5526)"
       id="shape2"
       inkscape:connector-curvature="0"
       style="fill:#bdc3c7;fill-rule:evenodd;stroke:#003bc3;stroke-width:0;stroke-linecap:square;stroke-linejoin:miter;stroke-miterlimit:2" />
    <path
       d="M 0,7.48678 C 9.51459e-4,11.4598 2.95,14.7396 6.71734,14.9575 10.4847,15.1754 13.7571,12.2555 14.1713,8.30644 14.5855,4.35741 11.997,0.75584 8.27535,0.102781 4.55365,-0.550278 0.995975,1.97281 0.171683,5.84988"
       stroke-miterlimit="2.00000000000"
       transform="translate(29.9117,17.733)"
       id="shape3"
       inkscape:connector-curvature="0"
       style="fill:#7f8c8d;fill-rule:evenodd;stroke:#003bc3;stroke-width:0;stroke-linecap:square;stroke-linejoin:miter;stroke-miterlimit:2" />
    <rect
       height="11.644175"
       width="3.626874"
       stroke-miterlimit="2.01260185242"
       transform="translate(8.93816,19.2013)"
       id="shape4"
       x="0"
       y="0"
       style="fill:#34495e;fill-rule:evenodd;stroke:#003bc3;stroke-width:0;stroke-linecap:square;stroke-linejoin:miter;stroke-miterlimit:2.01260185" />
    <rect
       height="11.644175"
       width="3.626874"
       stroke-miterlimit="2.00000000000"
       transform="matrix(0,1,-1,0,16.5737,23.2418)"
       id="shape5"
       x="0"
       y="0"
       style="fill:#34495e;fill-rule:evenodd;stroke:#003bc3;stroke-width:0;stroke-linecap:square;stroke-linejoin:miter;stroke-miterlimit:2" />
    <rect
       ry="0.7648769"
       rx="0.7648769"
       height="3.8243845"
       width="1.5297538"
       stroke-miterlimit="2.01260185242"
       transform="matrix(0.707107,0.707107,-0.707107,0.707107,22.1056,23.1644)"
       id="shape6"
       x="0"
       y="0"
       style="fill:#34495e;fill-rule:evenodd;stroke:#003bc3;stroke-width:0;stroke-linecap:square;stroke-linejoin:miter;stroke-miterlimit:2.01260185" />
    <rect
       ry="0.7648769"
       rx="0.7648769"
       height="3.8243845"
       width="1.5297538"
       stroke-miterlimit="2.00000000000"
       transform="matrix(0.707107,0.707107,-0.707107,0.707107,26.7848,23.2319)"
       id="shape7"
       x="0"
       y="0"
       style="fill:#34495e;fill-rule:evenodd;stroke:#003bc3;stroke-width:0;stroke-linecap:square;stroke-linejoin:miter;stroke-miterlimit:2" />
    <rect
       ry="2.4300067"
       rx="2.4300067"
       height="4.8600135"
       width="11.233166"
       stroke-miterlimit="2.01260185242"
       transform="matrix(0.707107,-0.707107,0.707107,0.707107,29.4592,25.1499)"
       id="shape8"
       x="0"
       y="0"
       style="fill:#ecf0f1;fill-rule:evenodd;stroke:#003bc3;stroke-width:0;stroke-linecap:square;stroke-linejoin:miter;stroke-miterlimit:2.01260185" />
    <path
       d="M 3.9679,1.98395 C 3.9679,0.888245 3.07966,0 1.98395,0 0.888245,0 0,0.888245 0,1.98395 0,3.07966 0.888245,3.9679 1.98395,3.9679 3.07966,3.9679 3.9679,3.07966 3.9679,1.98395"
       stroke-miterlimit="2.00000000000"
       transform="matrix(0.707107,-0.707107,0.707107,0.707107,30.133,25.1373)"
       id="shape9"
       inkscape:connector-curvature="0"
       style="fill:#27ae60;fill-rule:evenodd;stroke:#003bc3;stroke-width:0;stroke-linecap:square;stroke-linejoin:miter;stroke-miterlimit:2" />
    <path
       d="M 3.9679,1.98395 C 3.9679,0.888245 3.07966,0 1.98395,0 0.888245,0 0,0.888245 0,1.98395 0,3.07966 0.888245,3.9679 1.98395,3.9679 3.07966,3.9679 3.9679,3.07966 3.9679,1.98395"
       stroke-miterlimit="2.00000000000"
       transform="matrix(0.707107,-0.707107,0.707107,0.707107,34.6031,20.6421)"
       id="shape10"
       inkscape:connector-curvature="0"
       style="fill:#2980b9;fill-rule:evenodd;stroke:#003bc3;stroke-width:0;stroke-linecap:square;stroke-linejoin:miter;stroke-miterlimit:2" />
    <rect
       ry="2.4300067"
       rx="2.4300067"
       height="4.8600135"
       width="11.233166"
       stroke-miterlimit="2.00000000000"
       transform="matrix(0.707107,-0.707107,0.707107,0.707107,33.4001,29.6511)"
       id="shape11"
       x="0"
       y="0"
       style="fill:#ecf0f1;fill-rule:evenodd;stroke:#003bc3;stroke-width:0;stroke-linecap:square;stroke-linejoin:miter;stroke-miterlimit:2" />
    <path
       d="M 3.9679,1.98395 C 3.9679,0.888245 3.07966,0 1.98395,0 0.888245,0 0,0.888245 0,1.98395 0,3.07966 0.888245,3.9679 1.98395,3.9679 3.07966,3.9679 3.9679,3.07966 3.9679,1.98395"
       stroke-miterlimit="2.00000000000"
       transform="matrix(0.707107,-0.707107,0.707107,0.707107,34.0739,29.6082)"
       id="shape12"
       inkscape:connector-curvature="0"
       style="fill:#f39c12;fill-rule:evenodd;stroke:#003bc3;stroke-width:0;stroke-linecap:square;stroke-linejoin:miter;stroke-miterlimit:2" />
    <path
       d="M 3.9679,1.98395 C 3.9679,0.888245 3.07966,0 1.98395,0 0.888245,0 0,0.888245 0,1.98395 0,3.07966 0.888245,3.9679 1.98395,3.9679 3.07966,3.9679 3.9679,3.07966 3.9679,1.98395"
       stroke-miterlimit="2.00000000000"
       transform="matrix(0.707107,-0.707107,0.707107,0.707107,38.544,25.1433)"
       id="shape13"
       inkscape:connector-curvature="0"
       style="fill:#c0392b;fill-rule:evenodd;stroke:#003bc3;stroke-width:0;stroke-linecap:square;stroke-linejoin:miter;stroke-miterlimit:2" />
  </g>
</svg>
