<?xml version="1.0" encoding="UTF-8" standalone="no"?>
<!-- Created with Inkscape (http://www.inkscape.org/) -->

<svg
   xmlns:dc="http://purl.org/dc/elements/1.1/"
   xmlns:cc="http://creativecommons.org/ns#"
   xmlns:rdf="http://www.w3.org/1999/02/22-rdf-syntax-ns#"
   xmlns:svg="http://www.w3.org/2000/svg"
   xmlns="http://www.w3.org/2000/svg"
   xmlns:sodipodi="http://sodipodi.sourceforge.net/DTD/sodipodi-0.dtd"
   xmlns:inkscape="http://www.inkscape.org/namespaces/inkscape"
   id="svg2"
   version="1.1"
   inkscape:version="0.91 r13725"
   width="512"
   height="513"
   sodipodi:docname="folder-documents.svg">
  <metadata
     id="metadata8">
    <rdf:RDF>
      <cc:Work
         rdf:about="">
        <dc:format>image/svg+xml</dc:format>
        <dc:type
           rdf:resource="http://purl.org/dc/dcmitype/StillImage" />
        <dc:title></dc:title>
      </cc:Work>
    </rdf:RDF>
  </metadata>
  <defs
     id="defs6" />
  <sodipodi:namedview
     pagecolor="#ffffff"
     bordercolor="#666666"
     borderopacity="1"
     objecttolerance="10"
     gridtolerance="10"
     guidetolerance="10"
     inkscape:pageopacity="0"
     inkscape:pageshadow="2"
     inkscape:window-width="1920"
     inkscape:window-height="1013"
     id="namedview4"
     showgrid="true"
     inkscape:zoom="0.78"
     inkscape:cx="-1.1472023"
     inkscape:cy="237.27767"
     inkscape:window-x="1920"
     inkscape:window-y="28"
     inkscape:window-maximized="1"
     inkscape:current-layer="svg2">
    <inkscape:grid
       type="xygrid"
       id="grid4140" />
  </sodipodi:namedview>
  <rect
     style="fill:#1a1a1a;fill-rule:evenodd;stroke:#000000;stroke-width:0;stroke-linecap:butt;stroke-linejoin:miter;stroke-opacity:0;stroke-miterlimit:4;stroke-dasharray:none;fill-opacity:1"
     id="rect2984"
     width="183.68008"
     height="44.56144"
     x="33.692795"
     y="71.733047" />
  <rect
     style="fill:#262626;fill-rule:evenodd;stroke:#000000;stroke-width:0;stroke-linecap:butt;stroke-linejoin:miter;stroke-opacity:1;stroke-miterlimit:4;stroke-dasharray:none;fill-opacity:1"
     id="rect2982"
     width="493.43646"
     height="326.0593"
     x="8.6949148"
     y="115.20763" />
  <path
     style="fill:#b2b2b2;fill-opacity:1;stroke:#b2b2b2;stroke-opacity:1"
     d="m -436.96675,190.19302 a 120,120 0 0 0 -86.60351,35.13281 120,120 0 0 0 0,169.70703 120,120 0 0 0 169.70508,0 120,120 0 0 0 0,-169.70703 120,120 0 0 0 -83.10157,-35.13281 z m 46.4043,54.27929 17.55078,18.21289 -84.375,87.56055 -0.85742,-0.88867 -4.29101,3.83594 -59.9668,-53.59766 12.47265,-11.14844 41.41993,37.01953 78.04687,-80.99414 z"
     id="path4585"
     inkscape:connector-curvature="0" />
  <rect
     style="fill:#b2b2b2;fill-opacity:1;stroke:none;stroke-opacity:1"
     id="rect4666"
     width="60"
     height="200"
     x="-459.74359"
     y="510.9487" />
  <rect
     style="fill:#777777;fill-opacity:1;stroke:none;stroke-opacity:1"
     id="rect4587"
     width="121.59753"
     height="25.292284"
     x="376.33939"
     y="181.17776"
     transform="matrix(0.6938936,-0.72007754,0.6938936,0.72007754,0,0)" />
  <rect
     style="fill:#777777;fill-opacity:1;stroke:none;stroke-opacity:1"
     id="rect4587-3"
     width="121.59753"
     height="25.292284"
     x="-333.7514"
     y="26.582685"
     transform="matrix(0.6938936,-0.72007754,0.6938936,0.72007754,0,0)" />
  <rect
     style="fill:#b2b2b2;fill-opacity:1;stroke:none;stroke-opacity:1"
     id="rect4666-9"
     width="60"
     height="200"
     x="-633.25641"
     y="-493.58975"
     transform="matrix(0,-1,1,0,0,0)" />
  <g
     id="g3237"
     transform="matrix(9.2117621,0,0,9.2117621,181.71905,204.54318)"
     style="fill:#b2b2b2;fill-opacity:1">
    <path
       sodipodi:nodetypes="ssssssccsccccccc"
       inkscape:connector-curvature="0"
       id="rect2991"
       d="M 4,0 C 2.892,0 2,0.892 2,2 l 0,12 c 0,1.108 0.892,2 2,2 l 8,0 c 1.108,0 2,-0.892 2,-2 L 14,5 9,0 Z m 0,2 6,0 1,1 1,1 0,10 -8,0 z"
       style="fill:#b2b2b2;fill-opacity:1;stroke:none" />
    <path
       sodipodi:nodetypes="cccc"
       inkscape:connector-curvature="0"
       id="path2997"
       d="m 9,0 0,5 5,0 z"
       style="fill:#b2b2b2;fill-opacity:1;stroke:none" />
    <rect
       ry="0.25"
       rx="0.25"
       y="7"
       x="5"
       height="1"
       width="4"
       id="rect3767"
       style="fill:#b2b2b2;fill-opacity:1;stroke:none" />
    <rect
       style="fill:#b2b2b2;fill-opacity:1;stroke:none"
       id="rect3771"
       width="6"
       height="1"
       x="5"
       y="9"
       rx="0.25"
       ry="0.25" />
    <rect
       ry="0.25"
       rx="0.25"
       y="11"
       x="5"
       height="1"
       width="6"
       id="rect3775"
       style="fill:#b2b2b2;fill-opacity:1;stroke:none" />
  </g>
</svg>
