<?xml version="1.0" encoding="UTF-8" standalone="no"?>
<!-- Created with Inkscape (http://www.inkscape.org/) -->

<svg
   xmlns:dc="http://purl.org/dc/elements/1.1/"
   xmlns:cc="http://creativecommons.org/ns#"
   xmlns:rdf="http://www.w3.org/1999/02/22-rdf-syntax-ns#"
   xmlns:svg="http://www.w3.org/2000/svg"
   xmlns="http://www.w3.org/2000/svg"
   xmlns:sodipodi="http://sodipodi.sourceforge.net/DTD/sodipodi-0.dtd"
   xmlns:inkscape="http://www.inkscape.org/namespaces/inkscape"
   id="svg2"
   version="1.1"
   inkscape:version="0.91 r13725"
   width="512"
   height="513"
   sodipodi:docname="folder-important.svg">
  <metadata
     id="metadata8">
    <rdf:RDF>
      <cc:Work
         rdf:about="">
        <dc:format>image/svg+xml</dc:format>
        <dc:type
           rdf:resource="http://purl.org/dc/dcmitype/StillImage" />
        <dc:title></dc:title>
      </cc:Work>
    </rdf:RDF>
  </metadata>
  <defs
     id="defs6" />
  <sodipodi:namedview
     pagecolor="#ffffff"
     bordercolor="#666666"
     borderopacity="1"
     objecttolerance="10"
     gridtolerance="10"
     guidetolerance="10"
     inkscape:pageopacity="0"
     inkscape:pageshadow="2"
     inkscape:window-width="1920"
     inkscape:window-height="1013"
     id="namedview4"
     showgrid="true"
     inkscape:zoom="0.78"
     inkscape:cx="-1.1472023"
     inkscape:cy="237.27767"
     inkscape:window-x="0"
     inkscape:window-y="28"
     inkscape:window-maximized="1"
     inkscape:current-layer="svg2">
    <inkscape:grid
       type="xygrid"
       id="grid4140" />
  </sodipodi:namedview>
  <rect
     style="fill:#1a1a1a;fill-rule:evenodd;stroke:#000000;stroke-width:0;stroke-linecap:butt;stroke-linejoin:miter;stroke-opacity:0;stroke-miterlimit:4;stroke-dasharray:none;fill-opacity:1"
     id="rect2984"
     width="183.68008"
     height="44.56144"
     x="33.692795"
     y="71.733047" />
  <rect
     style="fill:#262626;fill-rule:evenodd;stroke:#000000;stroke-width:0;stroke-linecap:butt;stroke-linejoin:miter;stroke-opacity:1;stroke-miterlimit:4;stroke-dasharray:none;fill-opacity:1"
     id="rect2982"
     width="493.43646"
     height="326.0593"
     x="8.6949148"
     y="115.20763" />
  <path
     style="fill:#b2b2b2;fill-opacity:1;stroke:#b2b2b2;stroke-opacity:1"
     d="m -436.96675,190.19302 a 120,120 0 0 0 -86.60351,35.13281 120,120 0 0 0 0,169.70703 120,120 0 0 0 169.70508,0 120,120 0 0 0 0,-169.70703 120,120 0 0 0 -83.10157,-35.13281 z m 46.4043,54.27929 17.55078,18.21289 -84.375,87.56055 -0.85742,-0.88867 -4.29101,3.83594 -59.9668,-53.59766 12.47265,-11.14844 41.41993,37.01953 78.04687,-80.99414 z"
     id="path4585"
     inkscape:connector-curvature="0" />
  <rect
     style="fill:#b2b2b2;fill-opacity:1;stroke:none;stroke-opacity:1"
     id="rect4666"
     width="60"
     height="200"
     x="-459.74359"
     y="510.9487" />
  <rect
     style="fill:#777777;fill-opacity:1;stroke:none;stroke-opacity:1"
     id="rect4587"
     width="121.59753"
     height="25.292284"
     x="376.33939"
     y="181.17776"
     transform="matrix(0.6938936,-0.72007754,0.6938936,0.72007754,0,0)" />
  <rect
     style="fill:#777777;fill-opacity:1;stroke:none;stroke-opacity:1"
     id="rect4587-3"
     width="121.59753"
     height="25.292284"
     x="-333.7514"
     y="26.582685"
     transform="matrix(0.6938936,-0.72007754,0.6938936,0.72007754,0,0)" />
  <rect
     style="fill:#b2b2b2;fill-opacity:1;stroke:none;stroke-opacity:1"
     id="rect4666-9"
     width="60"
     height="200"
     x="-633.25641"
     y="-493.58975"
     transform="matrix(0,-1,1,0,0,0)" />
  <rect
     style="fill:none;stroke:none"
     id="rect4509"
     width="256.55185"
     height="256.55185"
     x="127.13725"
     y="149.96135" />
  <g
     id="g3798"
     transform="matrix(10.572693,0,0,10.572693,-2588.4713,-6640.7509)"
     style="fill:#b2b2b2;fill-opacity:1">
    <path
       id="path3800"
       d="m 269,647.69 c -1.0005,-0.004 -1.5631,3.5402 -2.375,4.125 -0.81155,0.58452 -4.3435,-0.0125 -4.6562,0.9375 -0.31286,0.95036 2.8822,2.5784 3.1875,3.5312 0.30513,0.95245 -1.3381,4.1278 -0.53125,4.7188 0.80717,0.59122 3.3432,-1.9416 4.3438,-1.9375 1.0001,0.004 3.5011,2.5847 4.3125,2 0.81172,-0.58496 -0.81311,-3.7997 -0.5,-4.75 0.31298,-0.9499 3.5241,-2.5476 3.2188,-3.5 -0.3055,-0.95275 -3.8492,-0.37732 -4.6562,-0.96875 -0.8067,-0.5912 -1.3436,-4.1524 -2.3438,-4.1562 z"
       style="color:#000000;fill:#b2b2b2;fill-opacity:1"
       inkscape:connector-curvature="0" />
  </g>
</svg>
