<?xml version="1.0" encoding="UTF-8" standalone="no"?>
<!-- Created with Inkscape (http://www.inkscape.org/) -->

<svg
   xmlns:dc="http://purl.org/dc/elements/1.1/"
   xmlns:cc="http://creativecommons.org/ns#"
   xmlns:rdf="http://www.w3.org/1999/02/22-rdf-syntax-ns#"
   xmlns:svg="http://www.w3.org/2000/svg"
   xmlns="http://www.w3.org/2000/svg"
   xmlns:sodipodi="http://sodipodi.sourceforge.net/DTD/sodipodi-0.dtd"
   xmlns:inkscape="http://www.inkscape.org/namespaces/inkscape"
   id="svg2"
   version="1.1"
   inkscape:version="0.91 r13725"
   width="512"
   height="513"
   sodipodi:docname="folder_photos.svg">
  <metadata
     id="metadata8">
    <rdf:RDF>
      <cc:Work
         rdf:about="">
        <dc:format>image/svg+xml</dc:format>
        <dc:type
           rdf:resource="http://purl.org/dc/dcmitype/StillImage" />
        <dc:title></dc:title>
      </cc:Work>
    </rdf:RDF>
  </metadata>
  <defs
     id="defs6" />
  <sodipodi:namedview
     pagecolor="#ffffff"
     bordercolor="#666666"
     borderopacity="1"
     objecttolerance="10"
     gridtolerance="10"
     guidetolerance="10"
     inkscape:pageopacity="0"
     inkscape:pageshadow="2"
     inkscape:window-width="1920"
     inkscape:window-height="1013"
     id="namedview4"
     showgrid="true"
     inkscape:zoom="1.26"
     inkscape:cx="-1.1472023"
     inkscape:cy="237.27767"
     inkscape:window-x="1920"
     inkscape:window-y="28"
     inkscape:window-maximized="1"
     inkscape:current-layer="svg2">
    <inkscape:grid
       type="xygrid"
       id="grid4140" />
  </sodipodi:namedview>
  <rect
     style="fill:#1a1a1a;fill-rule:evenodd;stroke:#000000;stroke-width:0;stroke-linecap:butt;stroke-linejoin:miter;stroke-opacity:0;stroke-miterlimit:4;stroke-dasharray:none;fill-opacity:1"
     id="rect2984"
     width="183.68008"
     height="44.56144"
     x="33.692795"
     y="71.733047" />
  <rect
     style="fill:#262626;fill-rule:evenodd;stroke:#000000;stroke-width:0;stroke-linecap:butt;stroke-linejoin:miter;stroke-opacity:1;stroke-miterlimit:4;stroke-dasharray:none;fill-opacity:1"
     id="rect2982"
     width="493.43646"
     height="326.0593"
     x="8.6949148"
     y="115.20763" />
  <rect
     style="fill:none;stroke:none"
     id="rect4509"
     width="256.55185"
     height="256.55185"
     x="127.13725"
     y="149.96135" />
  <path
     style="fill:#b2b2b2;fill-opacity:1;stroke:none;stroke-opacity:1"
     d="m -295.03355,110.09446 c -25.99233,0 -46.92615,20.86664 -47.04492,46.83008 -19.32334,2.59826 -34.0957,18.29251 -34.0957,37.39258 0,20.92889 17.73328,37.77734 39.75977,37.77734 l 2.21093,0 0,-42.2207 c 0,-2.91171 0.20598,-5.7551 0.58008,-8.51758 l 0,-13.36328 c 0,-0.96849 0.0324,-1.92712 0.0801,-2.88086 0.25533,-2.94049 0.70103,-5.80512 1.32226,-8.57227 l -0.23242,0 c 4.28051,-20.65923 19.88316,-35.89453 38.58985,-35.89453 18.712,0 34.3204,15.24395 38.5957,35.91211 -0.0321,-5e-4 -0.0636,-0.003 -0.0957,-0.004 0.35978,1.6042 0.6389,3.25096 0.8789,4.91602 0.24498,2.13315 0.38086,4.30767 0.38086,6.52344 l 0,26.06054 c 0,1.08238 -0.0396,2.15329 -0.0996,3.2168 l 0,9.17773 c 0.13456,-0.23519 0.27939,-0.46355 0.41016,-0.70117 l 0,26.29297 c 21.02355,-1.04982 37.61914,-17.47619 37.61914,-37.72265 0,-18.33763 -13.6189,-33.52554 -31.80664,-37.00782 l 0,-0.16406 c 0,-26.06641 -20.98632,-47.05078 -47.05274,-47.05078 z"
     id="rect5912"
     inkscape:connector-curvature="0" />
  <g
     transform="matrix(4.1468862,0,0,4.1468862,312.74164,1247.4023)"
     id="g3926"
     style="fill:#b2b2b2;fill-opacity:1">
    <g
       transform="translate(21.737289,-39.127119)"
       id="g4102"
       style="fill:#b2b2b2;fill-opacity:1">
      <g
         id="g4157"
         transform="translate(-671.90801,-288.45425)"
         style="fill:#b2b2b2;fill-opacity:1">
        <g
           id="g3022"
           transform="translate(482.20462,83.034756)"
           style="fill:#b2b2b2;fill-opacity:1">
          <path
             id="path2263"
             d="m 24,36.428572 c -1.261716,0 -2.386857,0.529712 -3.214285,1.357143 L 24,41 27.214285,37.785715 C 26.386856,36.958284 25.261716,36.428571 24,36.428572 Z"
             style="color:#303030;display:inline;overflow:visible;visibility:visible;fill:#b2b2b2;fill-opacity:1;fill-rule:nonzero;stroke:none;stroke-width:3.125;marker:none;enable-background:accumulate"
             inkscape:connector-curvature="0" />
          <path
             id="path3184"
             d="m 24,27.285715 c -3.785141,0 -7.196285,1.553428 -9.678572,4.035713 l 3.214287,3.214287 C 19.190572,32.880857 21.476571,31.857143 24,31.857143 c 2.523428,0 4.809428,1.023714 6.464285,2.678572 l 3.214287,-3.214287 C 31.196285,28.839143 27.785141,27.285715 24,27.285715 Z"
             style="color:#303030;display:inline;overflow:visible;visibility:visible;fill:#b2b2b2;fill-opacity:1;fill-rule:nonzero;stroke:none;stroke-width:3.125;marker:none;enable-background:accumulate"
             inkscape:connector-curvature="0" />
          <path
             id="path3192"
             d="m 24,18.142857 c -6.308572,0 -12.005715,2.577143 -16.1428571,6.714286 l 3.2142861,3.214285 C 14.381143,24.761715 18.95314,22.714285 24,22.714285 c 5.04686,0 9.618857,2.04743 12.928572,5.357143 l 3.214285,-3.214285 C 36.005715,20.72 30.308572,18.142857 24,18.142857 Z"
             style="color:#303030;display:inline;overflow:visible;visibility:visible;fill:#b2b2b2;fill-opacity:1;fill-rule:nonzero;stroke:none;stroke-width:3.125;marker:none;enable-background:accumulate"
             inkscape:connector-curvature="0" />
          <path
             id="path3197"
             d="M 24,9 C 15.168003,9 7.1848576,12.600857 1.3928572,18.392857 l 3.2142857,3.214286 C 9.5717143,16.642572 16.429716,13.571428 24,13.571428 c 7.570284,0 14.428285,3.071144 19.392857,8.035715 l 3.214286,-3.214286 C 40.815143,12.600857 32.831997,9 24,9 Z"
             style="color:#303030;display:inline;overflow:visible;visibility:visible;fill:#b2b2b2;fill-opacity:1;fill-rule:nonzero;stroke:none;stroke-width:3.125;marker:none;enable-background:accumulate"
             inkscape:connector-curvature="0" />
        </g>
      </g>
    </g>
  </g>
  <g
     id="g5558"
     transform="translate(-14.875489,-7.0779058)">
    <path
       id="rect3007"
       d="m 218.17598,222.4794 c -9.70735,0 -17.5223,7.00619 -17.5223,15.70895 l 0,94.25366 c 0,8.70276 7.81495,15.70895 17.5223,15.70895 l 105.13385,0 c 9.70736,0 17.52231,-7.00619 17.52231,-15.70895 l 0,-94.25366 c 0,-8.70276 -7.81495,-15.70895 -17.52231,-15.70895 l -105.13385,0 z m 0,15.70895 105.13385,0 0,94.25366 -105.13385,0 0,-94.25366 z"
       style="fill:#b2b2b2;fill-opacity:1"
       inkscape:connector-curvature="0" />
    <g
       transform="matrix(8.7611539,0,0,7.8544723,199.74513,227.0465)"
       id="g8"
       style="fill:#b2b2b2;fill-opacity:1">
      <g
         id="g10"
         transform="translate(0,-1036.3622)"
         style="fill:#b2b2b2;fill-opacity:1;fill-rule:evenodd">
        <path
           style="fill:#b2b2b2;fill-opacity:1"
           inkscape:connector-curvature="0"
           id="path12"
           d="m 0.04535494,1046.7965 c 0.22886095,-0.1684 0.76009966,-0.6684 1.63017986,-1.5329 0.8668571,-0.87 2.0267664,-2.0604 3.528738,-3.6237 0.9828535,1.3976 1.7062383,2.4057 2.2405305,3.0686 0.5219982,0.6546 0.8119968,0.9418 0.8822068,0.8617 0.555492,-0.4971 1.0227091,-0.9197 1.4256542,-1.2898 0.3968387,-0.3701 0.7049827,-0.6739 0.9492797,-0.9225 1.221044,1.5356 2.234512,2.8006 3.122824,3.8695 0.872959,1.0606 1.566074,1.8643 2.103334,2.4554 l -3.324382,-2.762 c -0.274735,0.7071 -0.723383,1.0717 -1.358412,1.1048 -0.653343,0.019 -1.6453591,-0.7733 -2.4451436,-0.9197 -0.7997849,-0.1464 -1.5965161,0.3038 -2.3078612,0.061 -0.7265206,-0.2569 -1.2881156,-1.2733 -1.9688495,-1.5357 -0.6837852,-0.2596 -1.3767284,-0.2596 -2.1033348,0 -0.7905419,0.3867 -1.58116915,0.7761 -2.37476462,1.1655 z" />
        <path
           style="fill:#b2b2b2;fill-opacity:1"
           sodipodi:nodetypes="cccccccc"
           inkscape:connector-curvature="0"
           id="path14"
           d="m 0,1046.3622 5,-5 3.2817389,3.6779 2.2182611,-2.1779 5.5,6.5 -3,2 -11,0 z" />
      </g>
      <g
         style="fill:#b2b2b2;fill-opacity:1"
         id="g16"
         transform="translate(0,-1036.3622)" />
    </g>
  </g>
</svg>
