<?xml version="1.0" encoding="UTF-8" standalone="no"?>
<!-- Created with Inkscape (http://www.inkscape.org/) -->

<svg
   xmlns:dc="http://purl.org/dc/elements/1.1/"
   xmlns:cc="http://creativecommons.org/ns#"
   xmlns:rdf="http://www.w3.org/1999/02/22-rdf-syntax-ns#"
   xmlns:svg="http://www.w3.org/2000/svg"
   xmlns="http://www.w3.org/2000/svg"
   xmlns:sodipodi="http://sodipodi.sourceforge.net/DTD/sodipodi-0.dtd"
   xmlns:inkscape="http://www.inkscape.org/namespaces/inkscape"
   id="svg2"
   version="1.1"
   inkscape:version="0.91 r13725"
   width="512"
   height="513"
   sodipodi:docname="folder-development.svg">
  <metadata
     id="metadata8">
    <rdf:RDF>
      <cc:Work
         rdf:about="">
        <dc:format>image/svg+xml</dc:format>
        <dc:type
           rdf:resource="http://purl.org/dc/dcmitype/StillImage" />
        <dc:title></dc:title>
      </cc:Work>
    </rdf:RDF>
  </metadata>
  <defs
     id="defs6" />
  <sodipodi:namedview
     pagecolor="#ffffff"
     bordercolor="#666666"
     borderopacity="1"
     objecttolerance="10"
     gridtolerance="10"
     guidetolerance="10"
     inkscape:pageopacity="0"
     inkscape:pageshadow="2"
     inkscape:window-width="1920"
     inkscape:window-height="1013"
     id="namedview4"
     showgrid="true"
     inkscape:zoom="0.78"
     inkscape:cx="-1.1472023"
     inkscape:cy="237.27767"
     inkscape:window-x="1920"
     inkscape:window-y="28"
     inkscape:window-maximized="1"
     inkscape:current-layer="svg2">
    <inkscape:grid
       type="xygrid"
       id="grid4140" />
  </sodipodi:namedview>
  <rect
     style="fill:#1a1a1a;fill-rule:evenodd;stroke:#000000;stroke-width:0;stroke-linecap:butt;stroke-linejoin:miter;stroke-opacity:0;stroke-miterlimit:4;stroke-dasharray:none;fill-opacity:1"
     id="rect2984"
     width="183.68008"
     height="44.56144"
     x="33.692795"
     y="71.733047" />
  <rect
     style="fill:#262626;fill-rule:evenodd;stroke:#000000;stroke-width:0;stroke-linecap:butt;stroke-linejoin:miter;stroke-opacity:1;stroke-miterlimit:4;stroke-dasharray:none;fill-opacity:1"
     id="rect2982"
     width="493.43646"
     height="326.0593"
     x="8.6949148"
     y="115.20763" />
  <path
     style="fill:#b2b2b2;fill-opacity:1;stroke:#b2b2b2;stroke-opacity:1"
     d="m -436.96675,190.19302 a 120,120 0 0 0 -86.60351,35.13281 120,120 0 0 0 0,169.70703 120,120 0 0 0 169.70508,0 120,120 0 0 0 0,-169.70703 120,120 0 0 0 -83.10157,-35.13281 z m 46.4043,54.27929 17.55078,18.21289 -84.375,87.56055 -0.85742,-0.88867 -4.29101,3.83594 -59.9668,-53.59766 12.47265,-11.14844 41.41993,37.01953 78.04687,-80.99414 z"
     id="path4585"
     inkscape:connector-curvature="0" />
  <rect
     style="fill:#b2b2b2;fill-opacity:1;stroke:none;stroke-opacity:1"
     id="rect4666"
     width="60"
     height="200"
     x="-459.74359"
     y="510.9487" />
  <rect
     style="fill:#777777;fill-opacity:1;stroke:none;stroke-opacity:1"
     id="rect4587"
     width="121.59753"
     height="25.292284"
     x="376.33939"
     y="181.17776"
     transform="matrix(0.6938936,-0.72007754,0.6938936,0.72007754,0,0)" />
  <rect
     style="fill:#777777;fill-opacity:1;stroke:none;stroke-opacity:1"
     id="rect4587-3"
     width="121.59753"
     height="25.292284"
     x="-333.7514"
     y="26.582685"
     transform="matrix(0.6938936,-0.72007754,0.6938936,0.72007754,0,0)" />
  <rect
     style="fill:#b2b2b2;fill-opacity:1;stroke:none;stroke-opacity:1"
     id="rect4666-9"
     width="60"
     height="200"
     x="-633.25641"
     y="-493.58975"
     transform="matrix(0,-1,1,0,0,0)" />
  <g
     transform="matrix(8.1668662,0,0,8.1668662,165.58427,-8226.7505)"
     id="layer1"
     style="fill:#b2b2b2;fill-opacity:1">
    <path
       d="m 16.375,1033.4 c -0.93106,-0.01 -1.849,0.3496 -2.5625,1.0625 -0.95126,0.9513 -1.2601,2.2561 -0.9375,3.4688 l -1.5312,1.5312 0.656,0.7 c 0.62112,-0.1188 1.2825,-0.061 1.75,0.4062 l 0.875,0.8438 0.84375,-0.8438 c 1.2128,0.3226 2.5175,0.014 3.4688,-0.9375 0.95126,-0.9513 1.2601,-2.2872 0.9375,-3.5 l -1.5625,1.5625 -2.25,-0.3125 -0.3125,-2.25 1.5625,-1.5625 c -0.30319,-0.081 -0.62715,-0.1223 -0.9375,-0.125 z m -7.8438,8.875 -5,5.0313 c -0.71257,0.7127 -0.71251,1.85 0,2.5625 0.71255,0.7126 1.8499,0.7126 2.5625,0 l 4.3438,-4.3438 -0.84375,-0.8437 c -0.4676,-0.4675 -0.52503,-1.1289 -0.40625,-1.75 l -0.65625,-0.6563 z m -3.7188,5.4063 c 0.23275,0 0.47869,0.072 0.65625,0.25 0.3552,0.3551 0.3552,0.9261 0,1.2812 -0.35517,0.3553 -0.92602,0.3552 -1.2812,0 -0.35514,-0.3551 -0.3552,-0.926 0,-1.2812 0.17757,-0.1776 0.39225,-0.2501 0.625,-0.25 z"
       style="color:#000000;fill:#b2b2b2;fill-opacity:1"
       id="rect3006"
       inkscape:connector-curvature="0" />
    <path
       d="m 8.2718,1032.4 2.7257,2.7256 -0.68142,0.6815 -1.3628,0 -0.68142,0.6814 0,1.3627 3.4071,3.4072 c 0.3775,-0.3776 0.98533,-0.3776 1.3628,0 l 6.1328,6.1328 c 0.37751,0.3775 0.37751,0.9853 0,1.3628 l -1.3628,1.3629 c -0.3775,0.3775 -0.98533,0.3775 -1.3628,0 l -6.1328,-6.1328 c -0.3775,-0.3775 -0.3775,-0.9854 0,-1.3628 l -3.4071,-3.4071 -1.3628,0 c 0,0 -2.0443,0.6814 -2.0443,3.4071 l -1.3628,0 c -0.68142,-3.4071 1.3628,-5.4515 1.3628,-5.4515 l 2.7257,-2.7256 1.3628,0 0,-1.3628 0.68142,-0.6814 z"
       style="color:#000000;fill:#b2b2b2;fill-opacity:1"
       id="rect3020"
       inkscape:connector-curvature="0" />
  </g>
</svg>
