<?xml version="1.0" encoding="UTF-8" standalone="no"?>
<!-- Created with Inkscape (http://www.inkscape.org/) -->

<svg
   xmlns:dc="http://purl.org/dc/elements/1.1/"
   xmlns:cc="http://creativecommons.org/ns#"
   xmlns:rdf="http://www.w3.org/1999/02/22-rdf-syntax-ns#"
   xmlns:svg="http://www.w3.org/2000/svg"
   xmlns="http://www.w3.org/2000/svg"
   xmlns:sodipodi="http://sodipodi.sourceforge.net/DTD/sodipodi-0.dtd"
   xmlns:inkscape="http://www.inkscape.org/namespaces/inkscape"
   id="svg2"
   version="1.1"
   inkscape:version="0.91 r13725"
   width="512"
   height="513"
   sodipodi:docname="folder-locked.svg">
  <metadata
     id="metadata8">
    <rdf:RDF>
      <cc:Work
         rdf:about="">
        <dc:format>image/svg+xml</dc:format>
        <dc:type
           rdf:resource="http://purl.org/dc/dcmitype/StillImage" />
        <dc:title></dc:title>
      </cc:Work>
    </rdf:RDF>
  </metadata>
  <defs
     id="defs6" />
  <sodipodi:namedview
     pagecolor="#ffffff"
     bordercolor="#666666"
     borderopacity="1"
     objecttolerance="10"
     gridtolerance="10"
     guidetolerance="10"
     inkscape:pageopacity="0"
     inkscape:pageshadow="2"
     inkscape:window-width="1920"
     inkscape:window-height="1013"
     id="namedview4"
     showgrid="true"
     inkscape:zoom="0.78"
     inkscape:cx="-1.1472023"
     inkscape:cy="237.27767"
     inkscape:window-x="1920"
     inkscape:window-y="28"
     inkscape:window-maximized="1"
     inkscape:current-layer="svg2">
    <inkscape:grid
       type="xygrid"
       id="grid4140" />
  </sodipodi:namedview>
  <rect
     style="fill:#1a1a1a;fill-rule:evenodd;stroke:#000000;stroke-width:0;stroke-linecap:butt;stroke-linejoin:miter;stroke-opacity:0;stroke-miterlimit:4;stroke-dasharray:none;fill-opacity:1"
     id="rect2984"
     width="183.68008"
     height="44.56144"
     x="33.692795"
     y="71.733047" />
  <rect
     style="fill:#262626;fill-rule:evenodd;stroke:#000000;stroke-width:0;stroke-linecap:butt;stroke-linejoin:miter;stroke-opacity:1;stroke-miterlimit:4;stroke-dasharray:none;fill-opacity:1"
     id="rect2982"
     width="493.43646"
     height="326.0593"
     x="8.6949148"
     y="115.20763" />
  <path
     style="fill:#b2b2b2;fill-opacity:1;stroke:#b2b2b2;stroke-opacity:1"
     d="m -436.96675,190.19302 a 120,120 0 0 0 -86.60351,35.13281 120,120 0 0 0 0,169.70703 120,120 0 0 0 169.70508,0 120,120 0 0 0 0,-169.70703 120,120 0 0 0 -83.10157,-35.13281 z m 46.4043,54.27929 17.55078,18.21289 -84.375,87.56055 -0.85742,-0.88867 -4.29101,3.83594 -59.9668,-53.59766 12.47265,-11.14844 41.41993,37.01953 78.04687,-80.99414 z"
     id="path4585"
     inkscape:connector-curvature="0" />
  <rect
     style="fill:#b2b2b2;fill-opacity:1;stroke:none;stroke-opacity:1"
     id="rect4666"
     width="60"
     height="200"
     x="-459.74359"
     y="510.9487" />
  <rect
     style="fill:#777777;fill-opacity:1;stroke:none;stroke-opacity:1"
     id="rect4587"
     width="121.59753"
     height="25.292284"
     x="376.33939"
     y="181.17776"
     transform="matrix(0.6938936,-0.72007754,0.6938936,0.72007754,0,0)" />
  <rect
     style="fill:#777777;fill-opacity:1;stroke:none;stroke-opacity:1"
     id="rect4587-3"
     width="121.59753"
     height="25.292284"
     x="-333.7514"
     y="26.582685"
     transform="matrix(0.6938936,-0.72007754,0.6938936,0.72007754,0,0)" />
  <rect
     style="fill:#b2b2b2;fill-opacity:1;stroke:none;stroke-opacity:1"
     id="rect4666-9"
     width="60"
     height="200"
     x="-633.25641"
     y="-493.58975"
     transform="matrix(0,-1,1,0,0,0)" />
  <rect
     style="fill:none;stroke:none"
     id="rect4509"
     width="256.55185"
     height="256.55185"
     x="127.13725"
     y="149.96135" />
  <path
     id="path3737"
     d="m 255.41315,207.8453 c 0,0 43.99499,0.0792 44.04189,31.20917 l 0,26.87969 c 0,0 17.55108,0 17.55108,7.0619 l 0,64.43215 c -6.9e-4,5.92428 -6.28801,11.20025 -13.19849,11.20104 l -96.78905,0 c -6.91047,-7.9e-4 -13.19779,-5.27676 -13.19841,-11.20104 l 0,-64.43215 c 0,-7.0619 17.7884,-7.11565 17.7884,-7.11565 l -0.54993,-26.82594 c 0.359,-31.16791 44.35451,-31.20917 44.35451,-31.20917 z m 0,15.62526 c 0,0 -26.39708,0 -26.39708,23.37595 l 0,19.08765 52.79408,0 0,-19.08765 c 0,-23.37595 -26.397,-23.37595 -26.397,-23.37595 z"
     style="color:#000000;line-height:normal;fill:#b2b2b2;fill-opacity:1"
     inkscape:connector-curvature="0" />
</svg>
