<?xml version="1.0" encoding="UTF-8" standalone="no"?>
<!-- Created with Inkscape (http://www.inkscape.org/) -->

<svg
   xmlns:dc="http://purl.org/dc/elements/1.1/"
   xmlns:cc="http://creativecommons.org/ns#"
   xmlns:rdf="http://www.w3.org/1999/02/22-rdf-syntax-ns#"
   xmlns:svg="http://www.w3.org/2000/svg"
   xmlns="http://www.w3.org/2000/svg"
   xmlns:sodipodi="http://sodipodi.sourceforge.net/DTD/sodipodi-0.dtd"
   xmlns:inkscape="http://www.inkscape.org/namespaces/inkscape"
   id="svg2"
   version="1.1"
   inkscape:version="0.91 r13725"
   width="512"
   height="513"
   sodipodi:docname="folder-publicshare.svg">
  <metadata
     id="metadata8">
    <rdf:RDF>
      <cc:Work
         rdf:about="">
        <dc:format>image/svg+xml</dc:format>
        <dc:type
           rdf:resource="http://purl.org/dc/dcmitype/StillImage" />
        <dc:title></dc:title>
      </cc:Work>
    </rdf:RDF>
  </metadata>
  <defs
     id="defs6" />
  <sodipodi:namedview
     pagecolor="#ffffff"
     bordercolor="#666666"
     borderopacity="1"
     objecttolerance="10"
     gridtolerance="10"
     guidetolerance="10"
     inkscape:pageopacity="0"
     inkscape:pageshadow="2"
     inkscape:window-width="1920"
     inkscape:window-height="1013"
     id="namedview4"
     showgrid="true"
     inkscape:zoom="1.26"
     inkscape:cx="-1.1472023"
     inkscape:cy="237.27767"
     inkscape:window-x="1920"
     inkscape:window-y="28"
     inkscape:window-maximized="1"
     inkscape:current-layer="svg2">
    <inkscape:grid
       type="xygrid"
       id="grid4140" />
  </sodipodi:namedview>
  <rect
     style="fill:#1a1a1a;fill-rule:evenodd;stroke:#000000;stroke-width:0;stroke-linecap:butt;stroke-linejoin:miter;stroke-opacity:0;stroke-miterlimit:4;stroke-dasharray:none;fill-opacity:1"
     id="rect2984"
     width="183.68008"
     height="44.56144"
     x="33.692795"
     y="71.733047" />
  <rect
     style="fill:#262626;fill-rule:evenodd;stroke:#000000;stroke-width:0;stroke-linecap:butt;stroke-linejoin:miter;stroke-opacity:1;stroke-miterlimit:4;stroke-dasharray:none;fill-opacity:1"
     id="rect2982"
     width="493.43646"
     height="326.0593"
     x="8.6949148"
     y="115.20763" />
  <rect
     style="fill:none;stroke:none"
     id="rect4509"
     width="256.55185"
     height="256.55185"
     x="127.13725"
     y="149.96135" />
  <path
     style="fill:#b2b2b2;fill-opacity:1;stroke:none;stroke-opacity:1"
     d="m -295.03355,110.09446 c -25.99233,0 -46.92615,20.86664 -47.04492,46.83008 -19.32334,2.59826 -34.0957,18.29251 -34.0957,37.39258 0,20.92889 17.73328,37.77734 39.75977,37.77734 l 2.21093,0 0,-42.2207 c 0,-2.91171 0.20598,-5.7551 0.58008,-8.51758 l 0,-13.36328 c 0,-0.96849 0.0324,-1.92712 0.0801,-2.88086 0.25533,-2.94049 0.70103,-5.80512 1.32226,-8.57227 l -0.23242,0 c 4.28051,-20.65923 19.88316,-35.89453 38.58985,-35.89453 18.712,0 34.3204,15.24395 38.5957,35.91211 -0.0321,-5e-4 -0.0636,-0.003 -0.0957,-0.004 0.35978,1.6042 0.6389,3.25096 0.8789,4.91602 0.24498,2.13315 0.38086,4.30767 0.38086,6.52344 l 0,26.06054 c 0,1.08238 -0.0396,2.15329 -0.0996,3.2168 l 0,9.17773 c 0.13456,-0.23519 0.27939,-0.46355 0.41016,-0.70117 l 0,26.29297 c 21.02355,-1.04982 37.61914,-17.47619 37.61914,-37.72265 0,-18.33763 -13.6189,-33.52554 -31.80664,-37.00782 l 0,-0.16406 c 0,-26.06641 -20.98632,-47.05078 -47.05274,-47.05078 z"
     id="rect5912"
     inkscape:connector-curvature="0" />
  <g
     transform="matrix(4.1468862,0,0,4.1468862,312.74164,1247.4023)"
     id="g3926"
     style="fill:#b2b2b2;fill-opacity:1">
    <g
       transform="translate(21.737289,-39.127119)"
       id="g4102"
       style="fill:#b2b2b2;fill-opacity:1">
      <g
         id="g4157"
         transform="translate(-671.90801,-288.45425)"
         style="fill:#b2b2b2;fill-opacity:1">
        <g
           id="g3022"
           transform="translate(482.20462,83.034756)"
           style="fill:#b2b2b2;fill-opacity:1">
          <path
             id="path2263"
             d="m 24,36.428572 c -1.261716,0 -2.386857,0.529712 -3.214285,1.357143 L 24,41 27.214285,37.785715 C 26.386856,36.958284 25.261716,36.428571 24,36.428572 Z"
             style="color:#303030;display:inline;overflow:visible;visibility:visible;fill:#b2b2b2;fill-opacity:1;fill-rule:nonzero;stroke:none;stroke-width:3.125;marker:none;enable-background:accumulate"
             inkscape:connector-curvature="0" />
          <path
             id="path3184"
             d="m 24,27.285715 c -3.785141,0 -7.196285,1.553428 -9.678572,4.035713 l 3.214287,3.214287 C 19.190572,32.880857 21.476571,31.857143 24,31.857143 c 2.523428,0 4.809428,1.023714 6.464285,2.678572 l 3.214287,-3.214287 C 31.196285,28.839143 27.785141,27.285715 24,27.285715 Z"
             style="color:#303030;display:inline;overflow:visible;visibility:visible;fill:#b2b2b2;fill-opacity:1;fill-rule:nonzero;stroke:none;stroke-width:3.125;marker:none;enable-background:accumulate"
             inkscape:connector-curvature="0" />
          <path
             id="path3192"
             d="m 24,18.142857 c -6.308572,0 -12.005715,2.577143 -16.1428571,6.714286 l 3.2142861,3.214285 C 14.381143,24.761715 18.95314,22.714285 24,22.714285 c 5.04686,0 9.618857,2.04743 12.928572,5.357143 l 3.214285,-3.214285 C 36.005715,20.72 30.308572,18.142857 24,18.142857 Z"
             style="color:#303030;display:inline;overflow:visible;visibility:visible;fill:#b2b2b2;fill-opacity:1;fill-rule:nonzero;stroke:none;stroke-width:3.125;marker:none;enable-background:accumulate"
             inkscape:connector-curvature="0" />
          <path
             id="path3197"
             d="M 24,9 C 15.168003,9 7.1848576,12.600857 1.3928572,18.392857 l 3.2142857,3.214286 C 9.5717143,16.642572 16.429716,13.571428 24,13.571428 c 7.570284,0 14.428285,3.071144 19.392857,8.035715 l 3.214286,-3.214286 C 40.815143,12.600857 32.831997,9 24,9 Z"
             style="color:#303030;display:inline;overflow:visible;visibility:visible;fill:#b2b2b2;fill-opacity:1;fill-rule:nonzero;stroke:none;stroke-width:3.125;marker:none;enable-background:accumulate"
             inkscape:connector-curvature="0" />
        </g>
      </g>
    </g>
  </g>
  <g
     id="g5558"
     transform="translate(-408.52628,-219.77632)">
    <path
       id="rect3007"
       d="m 218.17598,222.4794 c -9.70735,0 -17.5223,7.00619 -17.5223,15.70895 l 0,94.25366 c 0,8.70276 7.81495,15.70895 17.5223,15.70895 l 105.13385,0 c 9.70736,0 17.52231,-7.00619 17.52231,-15.70895 l 0,-94.25366 c 0,-8.70276 -7.81495,-15.70895 -17.52231,-15.70895 l -105.13385,0 z m 0,15.70895 105.13385,0 0,94.25366 -105.13385,0 0,-94.25366 z"
       style="fill:#b2b2b2;fill-opacity:1"
       inkscape:connector-curvature="0" />
    <g
       transform="matrix(8.7611539,0,0,7.8544723,199.74513,227.0465)"
       id="g8"
       style="fill:#b2b2b2;fill-opacity:1">
      <g
         id="g10"
         transform="translate(0,-1036.3622)"
         style="fill:#b2b2b2;fill-opacity:1;fill-rule:evenodd">
        <path
           style="fill:#b2b2b2;fill-opacity:1"
           inkscape:connector-curvature="0"
           id="path12"
           d="m 0.04535494,1046.7965 c 0.22886095,-0.1684 0.76009966,-0.6684 1.63017986,-1.5329 0.8668571,-0.87 2.0267664,-2.0604 3.528738,-3.6237 0.9828535,1.3976 1.7062383,2.4057 2.2405305,3.0686 0.5219982,0.6546 0.8119968,0.9418 0.8822068,0.8617 0.555492,-0.4971 1.0227091,-0.9197 1.4256542,-1.2898 0.3968387,-0.3701 0.7049827,-0.6739 0.9492797,-0.9225 1.221044,1.5356 2.234512,2.8006 3.122824,3.8695 0.872959,1.0606 1.566074,1.8643 2.103334,2.4554 l -3.324382,-2.762 c -0.274735,0.7071 -0.723383,1.0717 -1.358412,1.1048 -0.653343,0.019 -1.6453591,-0.7733 -2.4451436,-0.9197 -0.7997849,-0.1464 -1.5965161,0.3038 -2.3078612,0.061 -0.7265206,-0.2569 -1.2881156,-1.2733 -1.9688495,-1.5357 -0.6837852,-0.2596 -1.3767284,-0.2596 -2.1033348,0 -0.7905419,0.3867 -1.58116915,0.7761 -2.37476462,1.1655 z" />
        <path
           style="fill:#b2b2b2;fill-opacity:1"
           sodipodi:nodetypes="cccccccc"
           inkscape:connector-curvature="0"
           id="path14"
           d="m 0,1046.3622 5,-5 3.2817389,3.6779 2.2182611,-2.1779 5.5,6.5 -3,2 -11,0 z" />
      </g>
      <g
         style="fill:#b2b2b2;fill-opacity:1"
         id="g16"
         transform="translate(0,-1036.3622)" />
    </g>
  </g>
  <path
     id="path3385"
     d="m -392.7905,406.64222 c -5.43812,0 -9.81611,4.37797 -9.81611,9.81609 l 0,9.81611 -39.26442,0 c -5.43813,0 -9.81611,4.37799 -9.81611,9.81612 l 0,78.52885 c 0,5.43813 4.37798,9.81611 9.81611,9.81611 l 137.4255,0 c 5.43812,0 9.81611,-4.37798 9.81611,-9.81611 l 0,-78.52885 c 0,-5.43813 -4.37799,-9.81612 -9.81611,-9.81612 l -39.26442,0 0,-9.81611 c 0,-5.43812 -4.378,-9.81609 -9.81612,-9.81609 l -39.26443,0 z m 19.63222,39.26442 c 16.26392,0 29.44833,13.1845 29.44833,29.44833 0,16.26391 -13.18441,29.44831 -29.44833,29.44831 -16.26382,0 -29.44833,-13.1844 -29.44833,-29.44831 0,-16.26383 13.18451,-29.44833 29.44833,-29.44833 z m 0,19.63221 c -5.42124,0 -9.81611,4.39487 -9.81611,9.81612 0,5.42133 4.39487,9.81611 9.81611,9.81611 5.42133,0 9.8161,-4.39478 9.8161,-9.81611 0,-5.42125 -4.39477,-9.81612 -9.8161,-9.81612 z"
     style="fill:#b2b2b2;fill-opacity:1"
     inkscape:connector-curvature="0" />
  <g
     id="g3506"
     transform="matrix(9.6063012,0,0,9.6063012,-469.84996,-24.844861)"
     style="fill:#b2b2b2;fill-opacity:1">
    <path
       style="color:#bebebe;display:inline;overflow:visible;visibility:visible;fill:#b2b2b2;fill-opacity:1;fill-rule:nonzero;stroke:none;stroke-width:1;marker:none;enable-background:accumulate"
       id="rect3002"
       inkscape:connector-curvature="0"
       d="M 4,1 C 3.446,1 3,1.446 3,2 L 3,4 2,4 C 0.892,4 0,4.892 0,6 l 0,5 c 0,1.108 0.892,2 2,2 l 1,0 0,3 10,0 0,-3 1,0 c 1.108,0 2,-0.892 2,-2 L 16,6 C 16,4.892 15.108,4 14,4 L 13,4 13,2 C 13,1.446 12.554,1 12,1 L 4,1 Z m 0.5,1 7,0 C 11.777,2 12,2.223 12,2.5 L 12,4 4,4 4,2.5 C 4,2.223 4.223,2 4.5,2 Z m -2,4 11,0 C 13.777,6 14,6.223 14,6.5 l 0,4 C 14,10.777 13.777,11 13.5,11 L 13,11 13,8 3,8 3,11 2.5,11 C 2.223,11 2,10.777 2,10.5 l 0,-4 C 2,6.223 2.223,6 2.5,6 Z m 1.5,3 8,0 0,6 -8,0 0,-6 z" />
    <rect
       style="color:#bebebe;display:inline;overflow:visible;visibility:visible;opacity:0.6;fill:#b2b2b2;fill-opacity:1;fill-rule:nonzero;stroke:none;stroke-width:1;marker:none;enable-background:accumulate"
       id="rect3830"
       y="9"
       x="5"
       height="1"
       width="6" />
    <rect
       style="color:#bebebe;display:inline;overflow:visible;visibility:visible;opacity:0.6;fill:#b2b2b2;fill-opacity:1;fill-rule:nonzero;stroke:none;stroke-width:1;marker:none;enable-background:accumulate"
       id="rect3832"
       y="11"
       x="5"
       height="1"
       width="6" />
    <rect
       style="color:#bebebe;display:inline;overflow:visible;visibility:visible;opacity:0.6;fill:#b2b2b2;fill-opacity:1;fill-rule:nonzero;stroke:none;stroke-width:1;marker:none;enable-background:accumulate"
       id="rect3834"
       y="13"
       x="5"
       height="1"
       width="6" />
  </g>
  <path
     inkscape:connector-curvature="0"
     id="path3146"
     d="m -428.83521,309.18313 c -14.95902,-0.60506 -25.08306,-1.75033 -32.9075,-3.72371 -8.95738,-2.25906 -15.34803,-5.68116 -17.98569,-9.63115 -1.82326,-2.73029 -2.12911,-4.14217 -2.01417,-9.29913 0.0968,-4.34249 0.10414,-4.38567 1.13523,-6.52982 2.52013,-5.24167 7.17427,-9.6852 15.7981,-15.08325 4.26401,-2.66905 13.02406,-6.97829 19.28208,-9.48535 6.22514,-2.49381 7.61411,-3.48474 8.98251,-6.40898 0.68979,-1.47488 0.83439,-2.15978 0.83439,-3.96149 0,-3.44265 -0.63084,-5.18385 -2.73888,-7.55803 -8.87496,-9.99629 -14.56062,-24.81331 -14.56062,-37.94567 0,-14.53016 6.23187,-25.88722 17.19893,-31.34376 4.63314,-2.30528 8.70413,-3.30846 14.31438,-3.52746 15.36773,-0.59953 28.03851,7.99143 32.36349,21.94368 2.28173,7.36048 2.33716,17.20916 0.14554,25.88299 -2.12809,8.42352 -6.93527,18.00879 -11.88614,23.70044 -2.58662,2.97372 -2.83169,3.40609 -3.36196,5.93295 -0.63452,3.02454 -0.46691,6.07754 0.43929,8.00644 1.0098,2.14836 2.33365,3.111 6.20084,4.50908 20.28506,7.33348 34.61344,17.03583 38.17037,25.84697 0.60782,1.50591 0.66584,2.08941 0.66676,6.68626 2.7e-4,4.8888 -0.0189,5.08568 -0.78833,6.71979 -3.28423,7.01072 -13.58987,11.52109 -31.63698,13.84635 -7.95079,1.02446 -28.39557,1.79702 -37.65179,1.42285 z"
     style="fill:#b2b2b2;fill-opacity:1" />
  <path
     inkscape:connector-curvature="0"
     id="path3146-1"
     d="m -496.61734,307.18969 c -12.69252,-0.51338 -21.28262,-1.48513 -27.92155,-3.15944 -7.6003,-1.91685 -13.02259,-4.82038 -15.26068,-8.17189 -1.54702,-2.31669 -1.80644,-3.51466 -1.70892,-7.89027 0.0821,-3.68454 0.0883,-3.72111 0.96323,-5.54044 2.1383,-4.44742 6.08727,-8.21776 13.40446,-12.79794 3.61796,-2.26465 11.05073,-5.92098 16.36058,-8.04811 5.28195,-2.11596 6.46038,-2.95682 7.62147,-5.43801 0.58605,-1.25141 0.70795,-1.83254 0.70795,-3.36127 0,-2.92103 -0.53526,-4.39842 -2.32389,-6.41288 -7.53028,-8.48171 -12.35449,-21.05374 -12.35449,-32.19636 0,-12.32855 5.28766,-21.96494 14.59297,-26.59474 3.93123,-1.95592 7.38541,-2.8071 12.14554,-2.99292 13.03931,-0.50869 23.79037,6.78061 27.46006,18.61883 1.936,6.24534 1.98304,14.6018 0.12346,21.96142 -1.80573,7.14724 -5.88449,15.28021 -10.08522,20.1095 -2.19472,2.52307 -2.40265,2.89001 -2.85258,5.03402 -0.53839,2.5662 -0.39617,5.15662 0.37273,6.79334 0.8568,1.82285 1.98007,2.63965 5.26124,3.82582 17.21168,6.22237 29.36903,14.45474 32.38711,21.93079 0.51572,1.27774 0.56495,1.77284 0.56573,5.6732 2.4e-4,4.14807 -0.0234,4.31513 -0.66888,5.70172 -2.78663,5.94842 -11.53081,9.77548 -26.84353,11.74844 -6.74615,0.86915 -24.09324,1.52467 -31.94702,1.20719 z"
     style="fill:#b2b2b2;fill-opacity:1" />
  <g
     style="color:#000000;fill:#b2b2b2;fill-opacity:1"
     transform="matrix(8.9938447,0,0,8.9938447,-539.93031,-6917.6227)"
     id="g3265">
    <path
       style="fill:#b2b2b2;fill-opacity:1"
       inkscape:connector-curvature="0"
       d="m 291,178.03125 a 1.96875,1.96875 0 1 1 -3.9375,0 1.96875,1.96875 0 1 1 3.9375,0 z"
       transform="matrix(1.50794,0,0,1.50794,-391.84057,531.50893)"
       id="path3267" />
    <path
       style="fill:#b2b2b2;fill-opacity:1"
       inkscape:connector-curvature="0"
       d="m 47.0002,787 -4.00436,2.60053 2.33814,0.36339 -2.00985,5.80655 c 2.24125,-0.43289 4.38456,0.75975 4.89844,3.25272 l 4.64422,-4.60121 1.13341,1.69492 1,-5.1169 -4.81381,0.19547 1.27128,1.56728 -4.45747,2.74488 0.60769,-4.98335 2.21537,0.45428 z"
       id="path3269" />
  </g>
  <g
     id="g3006"
     transform="matrix(8.5,0,0,8.5837823,170.41315,183.81824)"
     style="fill:#b2b2b2;fill-opacity:1">
    <path
       d="M 11,2 C 6.3731,2 2.5674,5.508 2.0625,10 L 0,10 3,14 6,10 4.0938,10 C 4.581,6.61 7.4752,4 11,4 c 3.866,0 7,3.134 7,7 0,3.866 -3.134,7 -7,7 -2.1871,0 -4.121,-1.0257 -5.4062,-2.5938 l -1.4375,1.4375 c 1.6431,1.933 4.1035,3.156 6.8437,3.156 4.9706,0 9,-4.0294 9,-9 0,-4.9706 -4.0294,-9 -9,-9 z"
       style="fill:#b2b2b2;fill-rule:evenodd;fill-opacity:1"
       id="path3288"
       inkscape:connector-curvature="0" />
    <path
       d="m 10,6 0,5.5 3.6875,3.375 0.687,-0.687 -3.375,-3.188 0,-5 -1,0 z"
       style="color:#000000;fill:#b2b2b2;fill-opacity:1"
       id="rect3740"
       inkscape:connector-curvature="0" />
  </g>
</svg>
