<?xml version="1.0" encoding="UTF-8" standalone="no"?>
<!-- Created with Inkscape (http://www.inkscape.org/) -->

<svg
   xmlns:dc="http://purl.org/dc/elements/1.1/"
   xmlns:cc="http://creativecommons.org/ns#"
   xmlns:rdf="http://www.w3.org/1999/02/22-rdf-syntax-ns#"
   xmlns:svg="http://www.w3.org/2000/svg"
   xmlns="http://www.w3.org/2000/svg"
   xmlns:sodipodi="http://sodipodi.sourceforge.net/DTD/sodipodi-0.dtd"
   xmlns:inkscape="http://www.inkscape.org/namespaces/inkscape"
   id="svg2"
   version="1.1"
   inkscape:version="0.91 r13725"
   width="512"
   height="513"
   sodipodi:docname="library-music.svg">
  <metadata
     id="metadata8">
    <rdf:RDF>
      <cc:Work
         rdf:about="">
        <dc:format>image/svg+xml</dc:format>
        <dc:type
           rdf:resource="http://purl.org/dc/dcmitype/StillImage" />
        <dc:title></dc:title>
      </cc:Work>
    </rdf:RDF>
  </metadata>
  <defs
     id="defs6" />
  <sodipodi:namedview
     pagecolor="#ffffff"
     bordercolor="#666666"
     borderopacity="1"
     objecttolerance="10"
     gridtolerance="10"
     guidetolerance="10"
     inkscape:pageopacity="0"
     inkscape:pageshadow="2"
     inkscape:window-width="1920"
     inkscape:window-height="1013"
     id="namedview4"
     showgrid="true"
     inkscape:zoom="1.26"
     inkscape:cx="-1.1472023"
     inkscape:cy="237.27767"
     inkscape:window-x="1920"
     inkscape:window-y="28"
     inkscape:window-maximized="1"
     inkscape:current-layer="svg2">
    <inkscape:grid
       type="xygrid"
       id="grid4140" />
  </sodipodi:namedview>
  <rect
     style="fill:#1a1a1a;fill-rule:evenodd;stroke:#000000;stroke-width:0;stroke-linecap:butt;stroke-linejoin:miter;stroke-opacity:0;stroke-miterlimit:4;stroke-dasharray:none;fill-opacity:1"
     id="rect2984"
     width="183.68008"
     height="44.56144"
     x="33.692795"
     y="71.733047" />
  <rect
     style="fill:#262626;fill-rule:evenodd;stroke:#000000;stroke-width:0;stroke-linecap:butt;stroke-linejoin:miter;stroke-opacity:1;stroke-miterlimit:4;stroke-dasharray:none;fill-opacity:1"
     id="rect2982"
     width="493.43646"
     height="326.0593"
     x="8.6949148"
     y="115.20763" />
  <rect
     style="fill:none;stroke:none"
     id="rect4509"
     width="256.55185"
     height="256.55185"
     x="127.13725"
     y="149.96135" />
  <path
     style="fill:#b2b2b2;fill-opacity:1;stroke:none;stroke-opacity:1"
     d="m 256.55375,217.23732 c -25.99233,0 -46.92615,20.86664 -47.04492,46.83008 -19.32334,2.59826 -34.0957,18.29251 -34.0957,37.39258 0,20.92889 17.73328,37.77734 39.75977,37.77734 l 2.21093,0 0,-42.2207 c 0,-2.91171 0.20598,-5.7551 0.58008,-8.51758 l 0,-13.36328 c 0,-0.96849 0.0324,-1.92712 0.0801,-2.88086 0.25533,-2.94049 0.70103,-5.80512 1.32226,-8.57227 l -0.23242,0 c 4.28051,-20.65923 19.88316,-35.89453 38.58985,-35.89453 18.712,0 34.3204,15.24395 38.5957,35.91211 -0.0321,-5e-4 -0.0636,-0.003 -0.0957,-0.004 0.35978,1.6042 0.6389,3.25096 0.8789,4.91602 0.24498,2.13315 0.38086,4.30767 0.38086,6.52344 l 0,26.06054 c 0,1.08238 -0.0396,2.15329 -0.0996,3.2168 l 0,9.17773 c 0.13456,-0.23519 0.27939,-0.46355 0.41016,-0.70117 l 0,26.29297 c 21.02355,-1.04982 37.61914,-17.47619 37.61914,-37.72265 0,-18.33763 -13.6189,-33.52554 -31.80664,-37.00782 l 0,-0.16406 c 0,-26.06641 -20.98632,-47.05078 -47.05274,-47.05078 z"
     id="rect5912"
     inkscape:connector-curvature="0" />
  <g
     transform="matrix(4.1468862,0,0,4.1468862,312.74164,1247.4023)"
     id="g3926"
     style="fill:#b2b2b2;fill-opacity:1">
    <g
       transform="translate(21.737289,-39.127119)"
       id="g4102"
       style="fill:#b2b2b2;fill-opacity:1">
      <g
         id="g4157"
         transform="translate(-671.90801,-288.45425)"
         style="fill:#b2b2b2;fill-opacity:1">
        <g
           id="g3022"
           transform="translate(482.20462,83.034756)"
           style="fill:#b2b2b2;fill-opacity:1">
          <path
             id="path2263"
             d="m 24,36.428572 c -1.261716,0 -2.386857,0.529712 -3.214285,1.357143 L 24,41 27.214285,37.785715 C 26.386856,36.958284 25.261716,36.428571 24,36.428572 Z"
             style="color:#303030;display:inline;overflow:visible;visibility:visible;fill:#b2b2b2;fill-opacity:1;fill-rule:nonzero;stroke:none;stroke-width:3.125;marker:none;enable-background:accumulate"
             inkscape:connector-curvature="0" />
          <path
             id="path3184"
             d="m 24,27.285715 c -3.785141,0 -7.196285,1.553428 -9.678572,4.035713 l 3.214287,3.214287 C 19.190572,32.880857 21.476571,31.857143 24,31.857143 c 2.523428,0 4.809428,1.023714 6.464285,2.678572 l 3.214287,-3.214287 C 31.196285,28.839143 27.785141,27.285715 24,27.285715 Z"
             style="color:#303030;display:inline;overflow:visible;visibility:visible;fill:#b2b2b2;fill-opacity:1;fill-rule:nonzero;stroke:none;stroke-width:3.125;marker:none;enable-background:accumulate"
             inkscape:connector-curvature="0" />
          <path
             id="path3192"
             d="m 24,18.142857 c -6.308572,0 -12.005715,2.577143 -16.1428571,6.714286 l 3.2142861,3.214285 C 14.381143,24.761715 18.95314,22.714285 24,22.714285 c 5.04686,0 9.618857,2.04743 12.928572,5.357143 l 3.214285,-3.214285 C 36.005715,20.72 30.308572,18.142857 24,18.142857 Z"
             style="color:#303030;display:inline;overflow:visible;visibility:visible;fill:#b2b2b2;fill-opacity:1;fill-rule:nonzero;stroke:none;stroke-width:3.125;marker:none;enable-background:accumulate"
             inkscape:connector-curvature="0" />
          <path
             id="path3197"
             d="M 24,9 C 15.168003,9 7.1848576,12.600857 1.3928572,18.392857 l 3.2142857,3.214286 C 9.5717143,16.642572 16.429716,13.571428 24,13.571428 c 7.570284,0 14.428285,3.071144 19.392857,8.035715 l 3.214286,-3.214286 C 40.815143,12.600857 32.831997,9 24,9 Z"
             style="color:#303030;display:inline;overflow:visible;visibility:visible;fill:#b2b2b2;fill-opacity:1;fill-rule:nonzero;stroke:none;stroke-width:3.125;marker:none;enable-background:accumulate"
             inkscape:connector-curvature="0" />
        </g>
      </g>
    </g>
  </g>
  <g
     id="g5558"
     transform="translate(-408.52628,-219.77632)">
    <path
       id="rect3007"
       d="m 218.17598,222.4794 c -9.70735,0 -17.5223,7.00619 -17.5223,15.70895 l 0,94.25366 c 0,8.70276 7.81495,15.70895 17.5223,15.70895 l 105.13385,0 c 9.70736,0 17.52231,-7.00619 17.52231,-15.70895 l 0,-94.25366 c 0,-8.70276 -7.81495,-15.70895 -17.52231,-15.70895 l -105.13385,0 z m 0,15.70895 105.13385,0 0,94.25366 -105.13385,0 0,-94.25366 z"
       style="fill:#b2b2b2;fill-opacity:1"
       inkscape:connector-curvature="0" />
    <g
       transform="matrix(8.7611539,0,0,7.8544723,199.74513,227.0465)"
       id="g8"
       style="fill:#b2b2b2;fill-opacity:1">
      <g
         id="g10"
         transform="translate(0,-1036.3622)"
         style="fill:#b2b2b2;fill-opacity:1;fill-rule:evenodd">
        <path
           style="fill:#b2b2b2;fill-opacity:1"
           inkscape:connector-curvature="0"
           id="path12"
           d="m 0.04535494,1046.7965 c 0.22886095,-0.1684 0.76009966,-0.6684 1.63017986,-1.5329 0.8668571,-0.87 2.0267664,-2.0604 3.528738,-3.6237 0.9828535,1.3976 1.7062383,2.4057 2.2405305,3.0686 0.5219982,0.6546 0.8119968,0.9418 0.8822068,0.8617 0.555492,-0.4971 1.0227091,-0.9197 1.4256542,-1.2898 0.3968387,-0.3701 0.7049827,-0.6739 0.9492797,-0.9225 1.221044,1.5356 2.234512,2.8006 3.122824,3.8695 0.872959,1.0606 1.566074,1.8643 2.103334,2.4554 l -3.324382,-2.762 c -0.274735,0.7071 -0.723383,1.0717 -1.358412,1.1048 -0.653343,0.019 -1.6453591,-0.7733 -2.4451436,-0.9197 -0.7997849,-0.1464 -1.5965161,0.3038 -2.3078612,0.061 -0.7265206,-0.2569 -1.2881156,-1.2733 -1.9688495,-1.5357 -0.6837852,-0.2596 -1.3767284,-0.2596 -2.1033348,0 -0.7905419,0.3867 -1.58116915,0.7761 -2.37476462,1.1655 z" />
        <path
           style="fill:#b2b2b2;fill-opacity:1"
           sodipodi:nodetypes="cccccccc"
           inkscape:connector-curvature="0"
           id="path14"
           d="m 0,1046.3622 5,-5 3.2817389,3.6779 2.2182611,-2.1779 5.5,6.5 -3,2 -11,0 z" />
      </g>
      <g
         style="fill:#b2b2b2;fill-opacity:1"
         id="g16"
         transform="translate(0,-1036.3622)" />
    </g>
  </g>
  <path
     id="path3385"
     d="m -392.7905,406.64222 c -5.43812,0 -9.81611,4.37797 -9.81611,9.81609 l 0,9.81611 -39.26442,0 c -5.43813,0 -9.81611,4.37799 -9.81611,9.81612 l 0,78.52885 c 0,5.43813 4.37798,9.81611 9.81611,9.81611 l 137.4255,0 c 5.43812,0 9.81611,-4.37798 9.81611,-9.81611 l 0,-78.52885 c 0,-5.43813 -4.37799,-9.81612 -9.81611,-9.81612 l -39.26442,0 0,-9.81611 c 0,-5.43812 -4.378,-9.81609 -9.81612,-9.81609 l -39.26443,0 z m 19.63222,39.26442 c 16.26392,0 29.44833,13.1845 29.44833,29.44833 0,16.26391 -13.18441,29.44831 -29.44833,29.44831 -16.26382,0 -29.44833,-13.1844 -29.44833,-29.44831 0,-16.26383 13.18451,-29.44833 29.44833,-29.44833 z m 0,19.63221 c -5.42124,0 -9.81611,4.39487 -9.81611,9.81612 0,5.42133 4.39487,9.81611 9.81611,9.81611 5.42133,0 9.8161,-4.39478 9.8161,-9.81611 0,-5.42125 -4.39477,-9.81612 -9.8161,-9.81612 z"
     style="fill:#b2b2b2;fill-opacity:1"
     inkscape:connector-curvature="0" />
  <g
     id="g3506"
     transform="matrix(9.6063012,0,0,9.6063012,-469.84996,-24.844861)"
     style="fill:#b2b2b2;fill-opacity:1">
    <path
       style="color:#bebebe;display:inline;overflow:visible;visibility:visible;fill:#b2b2b2;fill-opacity:1;fill-rule:nonzero;stroke:none;stroke-width:1;marker:none;enable-background:accumulate"
       id="rect3002"
       inkscape:connector-curvature="0"
       d="M 4,1 C 3.446,1 3,1.446 3,2 L 3,4 2,4 C 0.892,4 0,4.892 0,6 l 0,5 c 0,1.108 0.892,2 2,2 l 1,0 0,3 10,0 0,-3 1,0 c 1.108,0 2,-0.892 2,-2 L 16,6 C 16,4.892 15.108,4 14,4 L 13,4 13,2 C 13,1.446 12.554,1 12,1 L 4,1 Z m 0.5,1 7,0 C 11.777,2 12,2.223 12,2.5 L 12,4 4,4 4,2.5 C 4,2.223 4.223,2 4.5,2 Z m -2,4 11,0 C 13.777,6 14,6.223 14,6.5 l 0,4 C 14,10.777 13.777,11 13.5,11 L 13,11 13,8 3,8 3,11 2.5,11 C 2.223,11 2,10.777 2,10.5 l 0,-4 C 2,6.223 2.223,6 2.5,6 Z m 1.5,3 8,0 0,6 -8,0 0,-6 z" />
    <rect
       style="color:#bebebe;display:inline;overflow:visible;visibility:visible;opacity:0.6;fill:#b2b2b2;fill-opacity:1;fill-rule:nonzero;stroke:none;stroke-width:1;marker:none;enable-background:accumulate"
       id="rect3830"
       y="9"
       x="5"
       height="1"
       width="6" />
    <rect
       style="color:#bebebe;display:inline;overflow:visible;visibility:visible;opacity:0.6;fill:#b2b2b2;fill-opacity:1;fill-rule:nonzero;stroke:none;stroke-width:1;marker:none;enable-background:accumulate"
       id="rect3832"
       y="11"
       x="5"
       height="1"
       width="6" />
    <rect
       style="color:#bebebe;display:inline;overflow:visible;visibility:visible;opacity:0.6;fill:#b2b2b2;fill-opacity:1;fill-rule:nonzero;stroke:none;stroke-width:1;marker:none;enable-background:accumulate"
       id="rect3834"
       y="13"
       x="5"
       height="1"
       width="6" />
  </g>
  <path
     inkscape:connector-curvature="0"
     id="path3146"
     d="m -428.83521,309.18313 c -14.95902,-0.60506 -25.08306,-1.75033 -32.9075,-3.72371 -8.95738,-2.25906 -15.34803,-5.68116 -17.98569,-9.63115 -1.82326,-2.73029 -2.12911,-4.14217 -2.01417,-9.29913 0.0968,-4.34249 0.10414,-4.38567 1.13523,-6.52982 2.52013,-5.24167 7.17427,-9.6852 15.7981,-15.08325 4.26401,-2.66905 13.02406,-6.97829 19.28208,-9.48535 6.22514,-2.49381 7.61411,-3.48474 8.98251,-6.40898 0.68979,-1.47488 0.83439,-2.15978 0.83439,-3.96149 0,-3.44265 -0.63084,-5.18385 -2.73888,-7.55803 -8.87496,-9.99629 -14.56062,-24.81331 -14.56062,-37.94567 0,-14.53016 6.23187,-25.88722 17.19893,-31.34376 4.63314,-2.30528 8.70413,-3.30846 14.31438,-3.52746 15.36773,-0.59953 28.03851,7.99143 32.36349,21.94368 2.28173,7.36048 2.33716,17.20916 0.14554,25.88299 -2.12809,8.42352 -6.93527,18.00879 -11.88614,23.70044 -2.58662,2.97372 -2.83169,3.40609 -3.36196,5.93295 -0.63452,3.02454 -0.46691,6.07754 0.43929,8.00644 1.0098,2.14836 2.33365,3.111 6.20084,4.50908 20.28506,7.33348 34.61344,17.03583 38.17037,25.84697 0.60782,1.50591 0.66584,2.08941 0.66676,6.68626 2.7e-4,4.8888 -0.0189,5.08568 -0.78833,6.71979 -3.28423,7.01072 -13.58987,11.52109 -31.63698,13.84635 -7.95079,1.02446 -28.39557,1.79702 -37.65179,1.42285 z"
     style="fill:#b2b2b2;fill-opacity:1" />
  <path
     inkscape:connector-curvature="0"
     id="path3146-1"
     d="m -496.61734,307.18969 c -12.69252,-0.51338 -21.28262,-1.48513 -27.92155,-3.15944 -7.6003,-1.91685 -13.02259,-4.82038 -15.26068,-8.17189 -1.54702,-2.31669 -1.80644,-3.51466 -1.70892,-7.89027 0.0821,-3.68454 0.0883,-3.72111 0.96323,-5.54044 2.1383,-4.44742 6.08727,-8.21776 13.40446,-12.79794 3.61796,-2.26465 11.05073,-5.92098 16.36058,-8.04811 5.28195,-2.11596 6.46038,-2.95682 7.62147,-5.43801 0.58605,-1.25141 0.70795,-1.83254 0.70795,-3.36127 0,-2.92103 -0.53526,-4.39842 -2.32389,-6.41288 -7.53028,-8.48171 -12.35449,-21.05374 -12.35449,-32.19636 0,-12.32855 5.28766,-21.96494 14.59297,-26.59474 3.93123,-1.95592 7.38541,-2.8071 12.14554,-2.99292 13.03931,-0.50869 23.79037,6.78061 27.46006,18.61883 1.936,6.24534 1.98304,14.6018 0.12346,21.96142 -1.80573,7.14724 -5.88449,15.28021 -10.08522,20.1095 -2.19472,2.52307 -2.40265,2.89001 -2.85258,5.03402 -0.53839,2.5662 -0.39617,5.15662 0.37273,6.79334 0.8568,1.82285 1.98007,2.63965 5.26124,3.82582 17.21168,6.22237 29.36903,14.45474 32.38711,21.93079 0.51572,1.27774 0.56495,1.77284 0.56573,5.6732 2.4e-4,4.14807 -0.0234,4.31513 -0.66888,5.70172 -2.78663,5.94842 -11.53081,9.77548 -26.84353,11.74844 -6.74615,0.86915 -24.09324,1.52467 -31.94702,1.20719 z"
     style="fill:#b2b2b2;fill-opacity:1" />
  <g
     style="color:#000000;fill:#b2b2b2;fill-opacity:1"
     transform="matrix(8.9938447,0,0,8.9938447,-529.61285,-6898.5751)"
     id="g3265">
    <path
       style="fill:#b2b2b2;fill-opacity:1"
       inkscape:connector-curvature="0"
       d="m 291,178.03125 a 1.96875,1.96875 0 1 1 -3.9375,0 1.96875,1.96875 0 1 1 3.9375,0 z"
       transform="matrix(1.50794,0,0,1.50794,-391.84057,531.50893)"
       id="path3267" />
    <path
       style="fill:#b2b2b2;fill-opacity:1"
       inkscape:connector-curvature="0"
       d="m 47.0002,787 -4.00436,2.60053 2.33814,0.36339 -2.00985,5.80655 c 2.24125,-0.43289 4.38456,0.75975 4.89844,3.25272 l 4.64422,-4.60121 1.13341,1.69492 1,-5.1169 -4.81381,0.19547 1.27128,1.56728 -4.45747,2.74488 0.60769,-4.98335 2.21537,0.45428 z"
       id="path3269" />
  </g>
  <g
     id="g3006"
     transform="matrix(8.5,0,0,8.5837823,170.41315,183.81824)"
     style="fill:#b2b2b2;fill-opacity:0">
    <path
       d="M 11,2 C 6.3731,2 2.5674,5.508 2.0625,10 L 0,10 3,14 6,10 4.0938,10 C 4.581,6.61 7.4752,4 11,4 c 3.866,0 7,3.134 7,7 0,3.866 -3.134,7 -7,7 -2.1871,0 -4.121,-1.0257 -5.4062,-2.5938 l -1.4375,1.4375 c 1.6431,1.933 4.1035,3.156 6.8437,3.156 4.9706,0 9,-4.0294 9,-9 0,-4.9706 -4.0294,-9 -9,-9 z"
       style="fill:#b2b2b2;fill-rule:evenodd;fill-opacity:0"
       id="path3288"
       inkscape:connector-curvature="0" />
    <path
       d="m 10,6 0,5.5 3.6875,3.375 0.687,-0.687 -3.375,-3.188 0,-5 -1,0 z"
       style="color:#000000;fill:#b2b2b2;fill-opacity:0"
       id="rect3740"
       inkscape:connector-curvature="0" />
  </g>
  <path
     id="path3898"
     d="m -94.683411,462.2935 c -33.812689,0 -61.200519,27.35795 -61.200519,61.20052 0,33.81269 27.38783,61.20052 61.200519,61.20052 9.33845,0 18.10914,-2.06193 26.05803,-5.73755 l 22.9502,22.9502 c 10.78778,10.8625 10.89237,10.8625 21.75487,0 10.78779,-10.78779 10.78779,-10.89238 0,-21.75487 l -21.03768,-21.03768 c 7.18688,-10.10048 11.4751,-22.30771 11.4751,-35.62062 0,-33.84257 -27.38783,-61.20052 -61.20052,-61.20052 z m -0.95626,30.60026 c 8.27761,-0.25402 16.31615,2.85383 22.26288,8.62126 5.94673,5.76744 9.29364,13.70139 9.29364,21.979 0,16.89888 -13.70139,30.58532 -30.60026,30.58532 -16.898879,0 -30.600259,-13.68644 -30.600259,-30.58532 -0.0149,-16.52533 13.11866,-30.0773 29.643999,-30.60026 z"
     style="fill:#b2b2b2;fill-opacity:1;fill-rule:evenodd"
     inkscape:connector-curvature="0" />
  <g
     id="g3068"
     transform="matrix(3.3502348,0,0,3.3502348,-326.70292,459.74323)"
     style="fill:#b2b2b2;fill-opacity:1">
    <path
       id="path3052"
       d="m 12.3125,11.996094 c -0.402344,0 -0.75,0.351562 -0.75,0.75 l 0,1.875 c -0.886719,0.230468 -1.671875,0.667968 -2.4375,1.125 l -1.40625,-1.5 c -0.28125,-0.28125 -0.75,-0.28125 -1.03125,0 l -2.4375,2.4375 c -0.28125,0.28125 -0.28125,0.75 0,1.03125 l 1.5,1.40625 c -0.460938,0.769531 -0.894531,1.554687 -1.125,2.4375 l -1.875,0 c -0.402344,0 -0.75,0.351562 -0.75,0.75 l 0,3.375 c 0,0.402344 0.347656,0.75 0.75,0.75 l 1.875,0 c 0.230469,0.886718 0.664062,1.671875 1.125,2.4375 l -1.5,1.40625 c -0.28125,0.28125 -0.28125,0.75 0,1.03125 l 2.4375,2.4375 c 0.28125,0.28125 0.75,0.28125 1.03125,0 l 1.40625,-1.5 c 0.765625,0.460937 1.550781,0.898437 2.4375,1.125 l 0,1.875 c 0,0.402344 0.347656,0.75 0.75,0.75 l 3.375,0 c 0.402344,0 0.75,-0.347656 0.75,-0.75 l 0,-1.875 c 0.886719,-0.226563 1.671875,-0.664063 2.4375,-1.125 l 1.40625,1.5 c 0.28125,0.28125 0.75,0.28125 1.03125,0 l 2.4375,-2.4375 c 0.28125,-0.28125 0.28125,-0.75 0,-1.03125 l -1.5,-1.40625 c 0.460938,-0.765625 0.894531,-1.550782 1.125,-2.4375 l 1.875,0 c 0.402344,0 0.75,-0.347656 0.75,-0.75 l 0,-3.375 c 0,-0.398438 -0.347656,-0.75 -0.75,-0.75 l -1.875,0 c -0.230469,-0.882813 -0.664062,-1.667969 -1.125,-2.4375 l 1.5,-1.40625 c 0.28125,-0.28125 0.28125,-0.75 0,-1.03125 l -2.4375,-2.4375 c -0.28125,-0.28125 -0.75,-0.28125 -1.03125,0 l -1.40625,1.5 c -0.765625,-0.457032 -1.550781,-0.894532 -2.4375,-1.125 l 0,-1.875 c 0,-0.398438 -0.347656,-0.75 -0.75,-0.75 z m 1.6875,9 c 1.652344,0 3,1.347656 3,3 0,1.65625 -1.347656,3 -3,3 -1.652344,0 -3,-1.34375 -3,-3 0,-1.652344 1.347656,-3 3,-3 z"
       style="fill:#b2b2b2;fill-opacity:1"
       inkscape:connector-curvature="0" />
    <path
       id="path3054"
       d="m 12.3125,11.996094 c -0.402344,0 -0.75,0.351562 -0.75,0.75 l 0,1.875 c -0.886719,0.230468 -1.671875,0.667968 -2.4375,1.125 l -1.40625,-1.5 c -0.28125,-0.28125 -0.75,-0.28125 -1.03125,0 l -2.4375,2.4375 c -0.28125,0.28125 -0.28125,0.75 0,1.03125 l 1.5,1.40625 c -0.460938,0.769531 -0.894531,1.554687 -1.125,2.4375 l -1.875,0 c -0.402344,0 -0.75,0.351562 -0.75,0.75 l 0,3.375 c 0,0.402344 0.347656,0.75 0.75,0.75 l 1.875,0 c 0.230469,0.886718 0.664062,1.671875 1.125,2.4375 l -1.5,1.40625 c -0.28125,0.28125 -0.28125,0.75 0,1.03125 l 2.4375,2.4375 c 0.28125,0.28125 0.75,0.28125 1.03125,0 l 1.40625,-1.5 c 0.765625,0.460937 1.550781,0.898437 2.4375,1.125 l 0,1.875 c 0,0.402344 0.347656,0.75 0.75,0.75 l 3.375,0 c 0.402344,0 0.75,-0.347656 0.75,-0.75 l 0,-1.875 c 0.886719,-0.226563 1.671875,-0.664063 2.4375,-1.125 l 1.40625,1.5 c 0.28125,0.28125 0.75,0.28125 1.03125,0 l 2.4375,-2.4375 c 0.28125,-0.28125 0.28125,-0.75 0,-1.03125 l -1.5,-1.40625 c 0.460938,-0.765625 0.894531,-1.550782 1.125,-2.4375 l 1.875,0 c 0.402344,0 0.75,-0.347656 0.75,-0.75 l 0,-3.375 c 0,-0.398438 -0.347656,-0.75 -0.75,-0.75 l -1.875,0 c -0.230469,-0.882813 -0.664062,-1.667969 -1.125,-2.4375 l 1.5,-1.40625 c 0.28125,-0.28125 0.28125,-0.75 0,-1.03125 l -2.4375,-2.4375 c -0.28125,-0.28125 -0.75,-0.28125 -1.03125,0 l -1.40625,1.5 c -0.765625,-0.457032 -1.550781,-0.894532 -2.4375,-1.125 l 0,-1.875 c 0,-0.398438 -0.347656,-0.75 -0.75,-0.75 z m 1.6875,9 c 1.652344,0 3,1.347656 3,3 0,1.65625 -1.347656,3 -3,3 -1.652344,0 -3,-1.34375 -3,-3 0,-1.652344 1.347656,-3 3,-3 z"
       style="fill:#b2b2b2;fill-opacity:1"
       inkscape:connector-curvature="0" />
    <path
       id="path3056"
       d="m 32.3125,1.996094 c -0.402344,0 -0.75,0.351562 -0.75,0.75 l 0,1.875 c -0.886719,0.230468 -1.671875,0.667968 -2.4375,1.125 l -1.40625,-1.5 c -0.28125,-0.28125 -0.75,-0.28125 -1.03125,0 l -2.4375,2.4375 c -0.28125,0.28125 -0.28125,0.75 0,1.03125 l 1.5,1.40625 c -0.460938,0.769531 -0.894531,1.554687 -1.125,2.4375 l -1.875,0 c -0.402344,0 -0.75,0.351562 -0.75,0.75 l 0,3.375 c 0,0.402344 0.347656,0.75 0.75,0.75 l 1.875,0 c 0.230469,0.886718 0.664062,1.671875 1.125,2.4375 l -1.5,1.40625 c -0.28125,0.28125 -0.28125,0.75 0,1.03125 l 2.4375,2.4375 c 0.28125,0.28125 0.75,0.28125 1.03125,0 l 1.40625,-1.5 c 0.765625,0.460937 1.550781,0.898437 2.4375,1.125 l 0,1.875 c 0,0.402344 0.347656,0.75 0.75,0.75 l 3.375,0 c 0.402344,0 0.75,-0.347656 0.75,-0.75 l 0,-1.875 c 0.886719,-0.226563 1.671875,-0.664063 2.4375,-1.125 l 1.40625,1.5 c 0.28125,0.28125 0.75,0.28125 1.03125,0 l 2.4375,-2.4375 c 0.28125,-0.28125 0.28125,-0.75 0,-1.03125 l -1.5,-1.40625 c 0.460938,-0.765625 0.894531,-1.550782 1.125,-2.4375 l 1.875,0 c 0.402344,0 0.75,-0.347656 0.75,-0.75 l 0,-3.375 c 0,-0.398438 -0.347656,-0.75 -0.75,-0.75 l -1.875,0 C 43.144531,10.675781 42.710938,9.890625 42.25,9.121094 l 1.5,-1.40625 c 0.28125,-0.28125 0.28125,-0.75 0,-1.03125 l -2.4375,-2.4375 c -0.28125,-0.28125 -0.75,-0.28125 -1.03125,0 l -1.40625,1.5 c -0.765625,-0.457032 -1.550781,-0.894532 -2.4375,-1.125 l 0,-1.875 c 0,-0.398438 -0.347656,-0.75 -0.75,-0.75 z m 1.6875,9 c 1.652344,0 3,1.347656 3,3 0,1.65625 -1.347656,3 -3,3 -1.652344,0 -3,-1.34375 -3,-3 0,-1.652344 1.347656,-3 3,-3 z"
       style="fill:#b2b2b2;fill-opacity:1"
       inkscape:connector-curvature="0" />
    <path
       id="path3058"
       d="m 32.3125,1.996094 c -0.402344,0 -0.75,0.351562 -0.75,0.75 l 0,1.875 c -0.886719,0.230468 -1.671875,0.667968 -2.4375,1.125 l -1.40625,-1.5 c -0.28125,-0.28125 -0.75,-0.28125 -1.03125,0 l -2.4375,2.4375 c -0.28125,0.28125 -0.28125,0.75 0,1.03125 l 1.5,1.40625 c -0.460938,0.769531 -0.894531,1.554687 -1.125,2.4375 l -1.875,0 c -0.402344,0 -0.75,0.351562 -0.75,0.75 l 0,3.375 c 0,0.402344 0.347656,0.75 0.75,0.75 l 1.875,0 c 0.230469,0.886718 0.664062,1.671875 1.125,2.4375 l -1.5,1.40625 c -0.28125,0.28125 -0.28125,0.75 0,1.03125 l 2.4375,2.4375 c 0.28125,0.28125 0.75,0.28125 1.03125,0 l 1.40625,-1.5 c 0.765625,0.460937 1.550781,0.898437 2.4375,1.125 l 0,1.875 c 0,0.402344 0.347656,0.75 0.75,0.75 l 3.375,0 c 0.402344,0 0.75,-0.347656 0.75,-0.75 l 0,-1.875 c 0.886719,-0.226563 1.671875,-0.664063 2.4375,-1.125 l 1.40625,1.5 c 0.28125,0.28125 0.75,0.28125 1.03125,0 l 2.4375,-2.4375 c 0.28125,-0.28125 0.28125,-0.75 0,-1.03125 l -1.5,-1.40625 c 0.460938,-0.765625 0.894531,-1.550782 1.125,-2.4375 l 1.875,0 c 0.402344,0 0.75,-0.347656 0.75,-0.75 l 0,-3.375 c 0,-0.398438 -0.347656,-0.75 -0.75,-0.75 l -1.875,0 C 43.144531,10.675781 42.710938,9.890625 42.25,9.121094 l 1.5,-1.40625 c 0.28125,-0.28125 0.28125,-0.75 0,-1.03125 l -2.4375,-2.4375 c -0.28125,-0.28125 -0.75,-0.28125 -1.03125,0 l -1.40625,1.5 c -0.765625,-0.457032 -1.550781,-0.894532 -2.4375,-1.125 l 0,-1.875 c 0,-0.398438 -0.347656,-0.75 -0.75,-0.75 z m 1.6875,9 c 1.652344,0 3,1.347656 3,3 0,1.65625 -1.347656,3 -3,3 -1.652344,0 -3,-1.34375 -3,-3 0,-1.652344 1.347656,-3 3,-3 z"
       style="fill:#b2b2b2;fill-opacity:1"
       inkscape:connector-curvature="0" />
    <path
       id="path3060"
       d="m 29.296875,18 c -0.105469,-0.0078 -0.152344,0.03906 -0.261719,0.08984 l -3.769531,1.488281 c -0.429687,0.183594 -0.613281,0.789063 -0.4375,1.226563 l 0.789063,2.1875 c -0.871094,0.652343 -1.46875,1.347656 -2.105469,2.191406 l -2.191407,-0.96484 c -0.429687,-0.183594 -1.042968,0.08984 -1.226562,0.527344 l -1.492188,3.589844 c -0.175781,0.4375 0.09766,0.957031 0.527344,1.140624 l 2.191406,0.960938 c -0.144531,1.042969 -0.152343,2.078125 0,3.15625 l -2.191406,0.960938 c -0.429687,0.183593 -0.613281,0.527343 -0.4375,0.964843 l 1.402344,3.765625 c 0.183594,0.4375 0.796875,0.621094 1.226562,0.4375 l 2.191407,-0.875 c 0.652343,0.867188 1.433593,1.550782 2.277343,2.1875 l -0.960937,2.191406 c -0.175781,0.4375 0.0078,1.042969 0.4375,1.226563 l 3.769531,1.488281 C 29.472656,46.125 29.824219,45.855469 30,45.417969 l 0.960938,-2.191407 c 1.054687,0.152344 2.089843,0.152344 3.15625,0 l 0.878906,2.191407 c 0.183594,0.4375 0.796875,0.621093 1.226562,0.4375 l 3.59375,-1.402344 c 0.4375,-0.183594 0.707032,-0.789063 0.527344,-1.226563 l -0.964844,-2.191406 c 0.867188,-0.652344 1.5625,-1.34375 2.191406,-2.1875 l 2.277344,0.875 c 0.4375,0.183594 0.878906,0 1.050782,-0.4375 l 1.578124,-3.765625 c 0.183594,-0.4375 0,-0.78125 -0.4375,-0.964843 L 43.761719,33.59375 c 0.148437,-1.054688 0.160156,-2.082031 0,-3.15625 l 2.191406,-0.960938 c 0.4375,-0.183593 0.707031,-0.527343 0.523437,-0.964843 l -1.578124,-3.765625 c -0.171876,-0.4375 -0.699219,-0.710938 -1.136719,-0.527344 l -2.191407,0.964844 c -0.648437,-0.867188 -1.339843,-1.554688 -2.191406,-2.191406 l 0.964844,-2.363282 c 0.179688,-0.4375 -0.08984,-0.867187 -0.527344,-1.050781 l -3.59375,-1.488281 c -0.429687,-0.183594 -1.042968,0.08594 -1.226562,0.523437 l -0.878906,2.191407 c -1.042969,-0.152344 -2.078126,-0.152344 -3.15625,0 L 30,18.613281 C 29.863281,18.289062 29.617188,18.015625 29.296875,18 Z m 3.242187,8.410156 c 3.101563,0 5.613282,2.507813 5.613282,5.605469 0,3.097656 -2.511719,5.605469 -5.613282,5.605469 -3.089843,0 -5.609374,-2.507813 -5.609374,-5.605469 0,-3.097656 2.519531,-5.605469 5.609374,-5.605469 z"
       style="fill:#b2b2b2;fill-opacity:1"
       inkscape:connector-curvature="0" />
  </g>
  <g
     style="fill:#b2b2b2;fill-opacity:1"
     transform="matrix(0.4322744,0,0,0.42779991,-319.35515,134.41892)"
     id="g3301">
    <path
       style="fill:#b2b2b2;fill-opacity:1"
       inkscape:connector-curvature="0"
       d="M 383.434,172.502 C 358.098,114.261 301.436,76.854 237.573,76.854 c -65.309,0 -125,40.928 -148.514,101.827 l 49.5,19.117 c 15.672,-40.617 55.469,-67.894 99.014,-67.894 42.02,0 79.197,24.386 96.408,62.332 l -36.117,14.428 92.352,53.279 27.01,-100.933 -33.792,13.492 z"
       id="path3303" />
    <path
       style="fill:#b2b2b2;fill-opacity:1"
       inkscape:connector-curvature="0"
       d="m 237.573,342.101 c -41.639,0 -79.615,-25.115 -96.592,-62.819 L 176.585,265.519 85.198,213.4 57.223,311.649 91.303,298.477 c 24.852,58.018 82.859,96.671 146.27,96.671 65.551,0 123.598,-39.336 147.871,-100.196 L 336.176,275.3 c -16.195,40.577 -54.888,66.801 -98.603,66.801 z"
       id="path3305" />
  </g>
  <path
     inkscape:connector-curvature="0"
     id="path143"
     d="m -530.31634,321.69008 0,9.55081 59.25067,0 33.79266,33.79267 0,56.89945 9.55081,0 0,-58.87771 0,-1.97827 -39.38694,-39.38695 -63.2072,0 z m -16.75041,15.77749 0,19.0854 9.55081,0 0,-19.0854 -9.55081,0 z m 0,38.187 0,19.10162 9.55081,0 0,-19.10162 -9.55081,0 z m 0,39.84097 0,15.98828 -15.97205,0 0,9.53459 15.97205,0 0,15.98828 9.53459,0 0,-15.98828 15.98828,0 0,-9.53459 -15.98828,0 0,-15.98828 -9.53459,0 z m 46.27845,15.98828 0,9.55081 19.10161,0 0,-9.55081 -19.10161,0 z m 38.20323,0 0,9.55081 19.08539,0 0,-9.55081 -19.08539,0 z"
     style="color:#000000;font-style:normal;font-variant:normal;font-weight:normal;font-stretch:normal;font-size:medium;line-height:normal;font-family:Sans;-inkscape-font-specification:Sans;text-indent:0;text-align:start;text-decoration:none;text-decoration-line:none;letter-spacing:normal;word-spacing:normal;text-transform:none;direction:ltr;block-progression:tb;writing-mode:lr-tb;baseline-shift:baseline;text-anchor:start;display:inline;overflow:visible;visibility:visible;fill:#b2b2b2;fill-opacity:1;stroke:#b2b2b2;stroke-width:8.30000019;stroke-miterlimit:4;stroke-dasharray:none;stroke-opacity:1;marker:none;enable-background:accumulate" />
  <path
     inkscape:connector-curvature="0"
     id="path3146-9"
     d="m -520.62132,614.73868 c -14.95902,-0.60506 -25.08306,-1.75033 -32.9075,-3.72371 -8.95738,-2.25906 -15.34803,-5.68116 -17.98569,-9.63115 -1.82326,-2.73029 -2.12911,-4.14217 -2.01417,-9.29913 0.0968,-4.34249 0.10414,-4.38567 1.13523,-6.52982 2.52013,-5.24167 7.17427,-9.6852 15.7981,-15.08325 4.26401,-2.66905 13.02406,-6.97829 19.28208,-9.48535 6.22514,-2.49381 7.61411,-3.48474 8.98251,-6.40898 0.68979,-1.47488 0.83439,-2.15978 0.83439,-3.96149 0,-3.44265 -0.63084,-5.18385 -2.73888,-7.55803 -8.87496,-9.99629 -14.56062,-24.81331 -14.56062,-37.94567 0,-14.53016 6.23187,-25.88722 17.19893,-31.34376 4.63314,-2.30528 8.70413,-3.30846 14.31438,-3.52746 15.36773,-0.59953 28.03851,7.99143 32.36349,21.94368 2.28173,7.36048 2.33716,17.20916 0.14554,25.88299 -2.12809,8.42352 -6.93527,18.00879 -11.88614,23.70044 -2.58662,2.97372 -2.83169,3.40609 -3.36196,5.93295 -0.63452,3.02454 -0.46691,6.07754 0.43929,8.00644 1.0098,2.14836 2.33365,3.111 6.20084,4.50908 20.28506,7.33348 34.61344,17.03583 38.17037,25.84697 0.60782,1.50591 0.66584,2.08941 0.66676,6.68626 2.7e-4,4.8888 -0.0189,5.08568 -0.78833,6.71979 -3.28423,7.01072 -13.58987,11.52109 -31.63698,13.84635 -7.95079,1.02446 -28.39557,1.79702 -37.65179,1.42285 z"
     style="fill:#b2b2b2;fill-opacity:1" />
  <path
     inkscape:connector-curvature="0"
     style="fill:#b2b2b2;fill-opacity:1"
     d="m -572.12305,76.482397 c -5.38269,0 -9.71605,4.33336 -9.71605,9.71606 l 0,77.728443 c 0,5.3827 4.33336,9.71605 9.71605,9.71605 l 97.16055,0 c 5.38269,0 9.71605,-4.33335 9.71605,-9.71605 l 0,-19.43211 38.86423,19.43211 0,-77.728443 -38.86423,19.432103 0,-19.432093 c 0,-5.3827 -4.33336,-9.71606 -9.71605,-9.71606 l -97.16055,0 z"
     id="path3623" />
  <path
     inkscape:connector-curvature="0"
     id="path4712"
     d="m -136.23234,428.58405 c -2.15608,-0.15689 -2.34423,-0.20724 -1.2662,-0.33883 l 1.2662,-0.15457 -1.37076,-0.0491 c -6.0705,-0.21775 -15.79599,-2.69841 -23.1947,-5.91625 -15.25021,-6.6326 -28.61764,-19.724 -35.79283,-35.05365 -3.45867,-7.38941 -6.31317,-18.14714 -6.5101,-24.53466 l -0.0422,-1.37076 -0.17324,1.26618 c -0.29852,2.1822 -0.60613,-5.21352 -0.37743,-9.07428 0.15778,-2.66273 0.24362,-3.15878 0.37743,-2.18064 l 0.17324,1.26618 0.0422,-1.37076 c 0.13144,-4.26292 2.06924,-13.1986 4.03512,-18.60673 2.48446,-6.83476 7.09925,-14.94731 11.84434,-20.82162 2.43035,-3.00872 7.3365,-7.88232 10.481,-10.41147 5.91835,-4.76013 13.61312,-9.11737 20.53043,-11.62553 5.42333,-1.96643 14.3505,-3.90107 18.60674,-4.03228 l 1.37076,-0.0423 -1.2662,-0.1761 c -2.1029,-0.29243 6.51596,-0.58748 9.70739,-0.33231 1.84672,0.14768 2.37857,0.25292 1.54754,0.30631 -0.95192,0.0611 -0.63764,0.14146 1.26617,0.32372 5.77302,0.55261 13.32556,2.32834 18.44284,4.33624 9.971063,3.91234 17.349693,8.74923 25.065743,16.43126 9.37983,9.33846 15.3976,19.71868 18.69248,32.24327 0.96914,3.68393 2.04752,10.00757 2.13365,12.51208 l 0.0436,1.26618 0.17405,-1.26618 c 0.28886,-2.10147 0.57381,6.214 0.32783,9.56668 -0.12708,1.73231 -0.24798,2.43066 -0.29218,1.68824 -0.0506,-0.84891 -0.19739,-0.15347 -0.44549,2.1103 -1.43795,13.12075 -6.49969,25.55981 -14.71286,36.15644 -2.55659,3.29847 -8.06787,8.89312 -11.44425,11.61729 -8.33908,6.7283 -17.311833,11.20915 -27.742443,13.85414 -3.04573,0.77233 -9.31691,1.78731 -11.50909,1.86273 l -1.26617,0.0435 1.26617,0.19685 1.26617,0.19685 -1.43342,0.0423 c -0.78842,0.0232 -2.75098,0.0902 -4.36128,0.14887 -1.61033,0.0586 -4.06741,0.0237 -5.4602,-0.0777 z m 12.36023,-4.14103 c 6.03926,-0.87671 11.1344,-2.59908 11.1344,-3.76389 0,-0.30293 -0.75033,-1.42258 -1.66739,-2.48811 -6.20543,-7.20995 -14.59526,-9.11578 -25.62578,-5.82113 -4.35308,1.30019 -12.62367,4.42505 -12.77829,4.82799 -0.23541,0.61344 1.69633,2.54648 3.75017,3.75268 6.11985,3.59416 15.51361,4.89672 25.18689,3.49246 z m 7.98362,-22.63498 c 4.09007,-2.04383 9.10563,-7.8989 17.701403,-20.66432 2.47791,-3.67992 3.04586,-4.34675 4.43351,-5.2054 4.08314,-2.52655 5.73741,-3.69667 6.17897,-4.37054 0.26327,-0.40182 0.6712,-1.93716 0.90651,-3.41188 l 0.42782,-2.68132 -0.65727,-0.70218 c -0.36148,-0.3862 -2.16468,-1.5455 -4.00707,-2.57623 -1.84241,-1.03073 -3.76667,-2.29813 -4.27612,-2.81643 -0.50949,-0.51831 -1.77703,-2.59111 -2.81677,-4.60623 -1.96999,-3.81798 -3.413233,-5.97014 -4.662773,-6.95302 -0.50272,-0.39543 -1.92552,-0.7985 -4.49214,-1.27258 -8.26365,-1.52639 -13.36055,-3.61632 -13.17244,-5.40123 0.10983,-1.04205 -0.0508,-1.1813 -2.47193,-2.14209 -5.58584,-2.21668 -9.8872,-2.33678 -14.65918,-0.40929 -3.83659,1.54967 -7.8927,4.80926 -10.70495,8.60276 -3.82494,5.15959 -4.06067,8.94027 -0.76296,12.23796 2.41317,2.41317 5.49077,3.83739 13.50037,6.24755 2.76618,0.83237 5.3421,1.71828 5.72428,1.96869 2.10176,1.37713 3.96843,9.65677 5.0082,22.21403 0.62655,7.56664 1.27662,9.99566 3.13463,11.71222 0.98044,0.90577 1.33111,1.03979 2.79457,1.06804 0.75567,0.0146 1.74242,-0.27337 2.87334,-0.83851 z m -70.0062,-12.79985 c 0,-0.23981 -0.20113,-0.82497 -0.44699,-1.30036 -0.86251,-1.66794 -0.24706,-2.93455 3.39455,-6.98617 2.46814,-2.74598 4.18339,-5.37822 4.90983,-7.53458 0.71941,-2.13559 0.80287,-5.85696 0.15927,-7.10157 -0.23349,-0.4515 -1.9943,-2.08676 -3.91296,-3.6339 -1.91865,-1.54715 -3.73373,-3.16568 -4.03349,-3.59674 -1.06891,-1.53702 -3.69799,-6.4545 -4.84333,-9.05907 -2.08274,-4.73631 -2.63982,-7.02242 -2.6322,-10.80184 0.007,-3.14704 -0.0221,-3.31586 -0.54797,-3.23579 -0.334,0.0509 -0.98112,0.79106 -1.6265,1.86049 -3.25722,5.39729 -5.13447,15.55019 -4.45796,24.11032 0.51437,6.50848 2.44025,15.06458 4.30669,19.13337 0.86905,1.89443 2.98783,4.64731 4.60721,5.98598 2.68301,2.21797 5.12385,3.24685 5.12385,2.15986 z m 120.365183,-30.87056 c 1.4992,-1.5958 2.00205,-4.72707 1.48383,-9.23959 -0.8291,-7.21987 -3.22495,-15.45291 -6.33745,-21.77795 -2.09856,-4.26462 -4.30015,-7.05755 -10.83629,-13.74681 -4.40493,-4.50815 -7.6184,-7.1344 -9.7045,-7.93108 -1.85661,-0.70903 -3.81605,-0.2858 -7.78001,1.68054 -1.737843,0.86208 -3.380393,1.56739 -3.650113,1.56739 -0.33817,0 -0.63455,-0.43406 -0.95492,-1.39855 -0.2774,-0.83516 -0.81966,-1.6974 -1.34611,-2.14039 -0.76147,-0.6407 -1.07861,-0.7255 -2.32701,-0.62195 -1.64145,0.13613 -4.87467,1.95905 -9.24715,5.21369 -3.2705,2.43439 -3.56525,3.07125 -2.73314,5.90527 0.67894,2.31238 0.75573,3.5434 0.24549,3.93554 -0.19345,0.14866 -2.18768,0.9382 -4.43162,1.7545 -8.95836,3.25889 -12.08248,5.87741 -11.39357,9.54967 0.44478,2.37084 1.09792,2.5102 4.29514,0.91642 4.20439,-2.09584 4.4062,-2.13709 7.20409,-1.47259 4.1538,0.98652 11.77809,4.36127 15.65124,6.92772 1.33371,0.88376 2.4384,1.99137 4.07991,4.09068 7.078483,9.05264 8.951233,10.97945 12.334813,12.69077 3.10514,1.5705 6.99209,1.39398 8.48943,-0.38553 0.76717,-0.91172 0.79041,-1.19155 0.36962,-4.4475 -0.0747,-0.57816 0.0404,-0.71867 0.64656,-0.78896 0.57514,-0.0667 1.25663,0.36672 3.09677,1.96961 3.31051,2.88366 8.05651,6.74465 9.38527,7.63514 1.38921,0.93098 2.65307,0.97261 3.45972,0.11396 z M -176.71475,317.79904 c 2.31792,-1.03655 4.84599,-1.19081 6.79837,-0.41484 1.88776,0.7503 4.35233,0.78382 5.67006,0.0771 1.24885,-0.66976 1.88148,-1.89937 2.29452,-4.45977 0.3205,-1.98662 0.40021,-2.1387 1.76511,-3.36584 0.7862,-0.70684 2.69903,-2.04352 4.25071,-2.97034 2.5627,-1.53071 11.97417,-6.28697 13.85644,-7.0026 l 0.77403,-0.29429 -0.69923,0.75033 c -0.38456,0.41268 -2.59845,2.2759 -4.91979,4.14052 -2.32134,1.86459 -4.94867,4.09518 -5.83848,4.95683 -1.46519,1.41877 -1.61792,1.67843 -1.61792,2.75089 0,0.95566 0.14935,1.30256 0.77377,1.79733 1.7808,1.41102 5.34136,0.29261 24.83118,-7.7998 3.17248,-1.31724 5.92643,-2.59656 6.11988,-2.84291 0.19345,-0.24635 0.35171,-1.0084 0.35171,-1.69343 0,-1.06471 -0.15318,-1.39817 -1.05514,-2.29716 -0.80394,-0.80127 -1.37316,-1.09895 -2.39087,-1.25019 -0.73461,-0.1092 -1.44575,-0.13049 -1.58028,-0.0474 -0.32018,0.19788 -1.03933,-0.63435 -1.31676,-1.52381 -0.1207,-0.3869 -0.29393,-1.46314 -0.38501,-2.39169 l -0.16559,-1.68822 -2.57911,-1.28795 c -1.41854,-0.70837 -3.50773,-1.49018 -4.64265,-1.73741 -1.92621,-0.41955 -2.29758,-0.41499 -5.58071,0.0687 -14.57569,2.14735 -27.70504,8.80706 -38.26673,19.41029 -2.08919,2.09742 -3.97399,4.15194 -4.1884,4.56557 -0.36054,0.69552 -0.32346,0.85235 0.4924,2.08411 0.48523,0.73256 0.88226,1.62439 0.88226,1.9818 0,0.6489 0.20829,0.75844 1.96963,1.03587 1.75329,0.27616 2.8542,0.13801 4.3966,-0.55174 z"
     style="fill:#b2b2b2;fill-opacity:1" />
</svg>
