<?xml version="1.0" encoding="UTF-8" standalone="no"?>
<!-- Created with Inkscape (http://www.inkscape.org/) -->

<svg
   xmlns:dc="http://purl.org/dc/elements/1.1/"
   xmlns:cc="http://creativecommons.org/ns#"
   xmlns:rdf="http://www.w3.org/1999/02/22-rdf-syntax-ns#"
   xmlns:svg="http://www.w3.org/2000/svg"
   xmlns="http://www.w3.org/2000/svg"
   xmlns:sodipodi="http://sodipodi.sourceforge.net/DTD/sodipodi-0.dtd"
   xmlns:inkscape="http://www.inkscape.org/namespaces/inkscape"
   id="svg2987"
   version="1.1"
   inkscape:version="0.48.5 r10040"
   width="513"
   height="513"
   sodipodi:docname="user-trash.svg">
  <metadata
     id="metadata2993">
    <rdf:RDF>
      <cc:Work
         rdf:about="">
        <dc:format>image/svg+xml</dc:format>
        <dc:type
           rdf:resource="http://purl.org/dc/dcmitype/StillImage" />
        <dc:title />
      </cc:Work>
    </rdf:RDF>
  </metadata>
  <defs
     id="defs2991" />
  <sodipodi:namedview
     pagecolor="#ffffff"
     bordercolor="#666666"
     borderopacity="1"
     objecttolerance="10"
     gridtolerance="10"
     guidetolerance="10"
     inkscape:pageopacity="0"
     inkscape:pageshadow="2"
     inkscape:window-width="1097"
     inkscape:window-height="716"
     id="namedview2989"
     showgrid="false"
     inkscape:zoom="0.92007797"
     inkscape:cx="466.41703"
     inkscape:cy="235.32249"
     inkscape:window-x="15"
     inkscape:window-y="24"
     inkscape:window-maximized="0"
     inkscape:current-layer="svg2987" />
  <path
     style="fill:#acadaf"
     d="m 232.66487,477.87368 c -49.74797,-3.42253 -88.43399,-15.71911 -108.49594,-34.48609 -7.57068,-7.082 -10.99025,-13.46509 -12.51178,-23.35491 -1.83865,-11.95109 -55.9373,-303.62048 -57.59134,-310.5 -7.53855,-31.354474 27.45497,-62.176811 90.09906,-79.359372 95.2043,-26.113453 221.718,-12.828183 278.18973,29.212849 13.22925,9.848668 20.7804,19.464135 24.34615,31.001857 2.33819,7.565669 2.47036,13.679516 0.45713,21.144666 -1.95334,7.24308 -57.493,307.7866 -57.493,311.1137 0,4.41187 -5.67071,14.14274 -11.70895,20.09242 -18.47996,18.20893 -57.15597,31.10262 -104.24095,34.75156 -12.42697,0.96305 -30.20982,1.1291 -41.05011,0.38332 z"
     id="path2994"
     inkscape:connector-curvature="0" />
  <path
     style="fill:#323232"
     d="m 231.71983,156.77241 c -35.17908,-1.31765 -68.64723,-6.93768 -97,-16.28841 C 109.40134,132.13397 92.030359,122.69909 81.339759,111.49112 69.762179,99.353236 69.883089,90.382681 81.784669,78.481091 102.19627,58.069509 148.09974,42.022069 203.91496,35.785449 c 21.32825,-2.38315 68.53776,-2.35797 89.26709,0.0476 54.94293,6.37599 98.10974,20.97403 119.6563,40.465072 13.01238,11.77101 14.66254,20.92449 5.79465,32.143219 -16.14951,20.43065 -63.92122,38.82469 -118.15015,45.49258 -13.21577,1.62499 -46.80164,3.618 -55.76302,3.30902 -3.025,-0.1043 -8.875,-0.31605 -13,-0.47055 z"
     id="path2984"
     inkscape:connector-curvature="0" />
</svg>
