<?xml version="1.0" encoding="UTF-8" standalone="no"?>
<!-- Created with Inkscape (http://www.inkscape.org/) -->

<svg
   xmlns:dc="http://purl.org/dc/elements/1.1/"
   xmlns:cc="http://creativecommons.org/ns#"
   xmlns:rdf="http://www.w3.org/1999/02/22-rdf-syntax-ns#"
   xmlns:svg="http://www.w3.org/2000/svg"
   xmlns="http://www.w3.org/2000/svg"
   xmlns:sodipodi="http://sodipodi.sourceforge.net/DTD/sodipodi-0.dtd"
   xmlns:inkscape="http://www.inkscape.org/namespaces/inkscape"
   id="svg2987"
   version="1.1"
   inkscape:version="0.48.5 r10040"
   width="513"
   height="513"
   sodipodi:docname="user-trash.svg">
  <metadata
     id="metadata2993">
    <rdf:RDF>
      <cc:Work
         rdf:about="">
        <dc:format>image/svg+xml</dc:format>
        <dc:type
           rdf:resource="http://purl.org/dc/dcmitype/StillImage" />
        <dc:title></dc:title>
      </cc:Work>
    </rdf:RDF>
  </metadata>
  <defs
     id="defs2991" />
  <sodipodi:namedview
     pagecolor="#ffffff"
     bordercolor="#666666"
     borderopacity="1"
     objecttolerance="10"
     gridtolerance="10"
     guidetolerance="10"
     inkscape:pageopacity="0"
     inkscape:pageshadow="2"
     inkscape:window-width="1097"
     inkscape:window-height="578"
     id="namedview2989"
     showgrid="false"
     inkscape:zoom="0.46003899"
     inkscape:cx="270.06014"
     inkscape:cy="279.45644"
     inkscape:window-x="202"
     inkscape:window-y="71"
     inkscape:window-maximized="0"
     inkscape:current-layer="svg2987" />
  <path
     style="fill:#acadaf"
     d="m 232.66487,477.87368 c -49.74797,-3.42253 -88.43399,-15.71911 -108.49594,-34.48609 -7.57068,-7.082 -10.99025,-13.46509 -12.51178,-23.35491 -1.83865,-11.95109 -55.9373,-303.62048 -57.59134,-310.5 -7.53855,-31.354474 27.45497,-62.176811 90.09906,-79.359372 95.2043,-26.113453 221.718,-12.828183 278.18973,29.212849 13.22925,9.848668 20.7804,19.464135 24.34615,31.001857 2.33819,7.565669 2.47036,13.679516 0.45713,21.144666 -1.95334,7.24308 -57.493,307.7866 -57.493,311.1137 0,4.41187 -5.67071,14.14274 -11.70895,20.09242 -18.47996,18.20893 -57.15597,31.10262 -104.24095,34.75156 -12.42697,0.96305 -30.20982,1.1291 -41.05011,0.38332 z"
     id="path2994"
     inkscape:connector-curvature="0" />
  <path
     style="fill:#323232"
     d="m 231.71983,156.77241 c -35.17908,-1.31765 -68.64723,-6.93768 -97,-16.28841 C 109.40134,132.13397 92.030359,122.69909 81.339759,111.49112 69.762179,99.353236 69.883089,90.382681 81.784669,78.481091 102.19627,58.069509 148.09974,42.022069 203.91496,35.785449 c 21.32825,-2.38315 68.53776,-2.35797 89.26709,0.0476 54.94293,6.37599 98.10974,20.97403 119.6563,40.465072 13.01238,11.77101 14.66254,20.92449 5.79465,32.143219 -16.14951,20.43065 -63.92122,38.82469 -118.15015,45.49258 -13.21577,1.62499 -46.80164,3.618 -55.76302,3.30902 -3.025,-0.1043 -8.875,-0.31605 -13,-0.47055 z"
     id="path2984"
     inkscape:connector-curvature="0" />
  <path
     style="fill:#f5fffa"
     d="m 289.6628,155.59528 c 8.525,-0.77906 21.125,-2.36591 28,-3.52633 14.10262,-2.38036 40.6951,-8.92153 46.59629,-11.46168 2.14704,-0.92419 7.5912,-3.18887 12.09814,-5.03265 11.73407,-4.80035 18.30684,-8.2881 18.29721,-9.70916 -0.008,-1.11815 -16.91424,-21.88537 -22.4669,-27.597107 l -2.29812,-2.36397 -12.77863,2.31611 -12.77863,2.316097 -8.58468,-9.444647 c -4.72157,-5.19456 -10.83468,-11.8289 -13.58468,-14.74297 l -5,-5.29833 -21.30109,4.60369 c -11.71559,2.53203 -22.20794,4.46291 -23.31632,4.29084 -1.43411,-0.22264 -2.85678,-2.31259 -4.93348,-7.24742 -1.60503,-3.81401 -3.26268,-7.26049 -3.68367,-7.65885 -1.09109,-1.03243 -73.93926,-10.24573 -75.69235,-9.57301 -0.79966,0.30686 -4.68557,4.85734 -8.63535,10.11217 -3.94979,5.25484 -7.81953,9.55425 -8.59942,9.55425 -0.7799,0 -3.25623,-0.93779 -5.50296,-2.08399 -2.24673,-1.1462 -4.87993,-1.87611 -5.85156,-1.62202 -0.97162,0.25408 -13.10728,8.50438 -26.96814,18.33399 l -25.20156,17.872017 0.70344,11 c 0.38689,6.05 1.14336,11.54388 1.68105,12.20861 1.28631,1.59027 18.59196,8.31057 31.80141,12.34944 42.75986,13.07407 93.83362,17.35492 148,12.40492 z"
     id="path2988"
     inkscape:connector-curvature="0" />
</svg>
