<?xml version="1.0" encoding="UTF-8" standalone="no"?>
<!-- Created with Inkscape (http://www.inkscape.org/) -->

<svg
   xmlns:dc="http://purl.org/dc/elements/1.1/"
   xmlns:cc="http://creativecommons.org/ns#"
   xmlns:rdf="http://www.w3.org/1999/02/22-rdf-syntax-ns#"
   xmlns:svg="http://www.w3.org/2000/svg"
   xmlns="http://www.w3.org/2000/svg"
   xmlns:sodipodi="http://sodipodi.sourceforge.net/DTD/sodipodi-0.dtd"
   xmlns:inkscape="http://www.inkscape.org/namespaces/inkscape"
   id="svg3067"
   version="1.1"
   inkscape:version="0.91 r13725"
   width="513"
   height="513"
   sodipodi:docname="x-office-address-book.svg">
  <metadata
     id="metadata3073">
    <rdf:RDF>
      <cc:Work
         rdf:about="">
        <dc:format>image/svg+xml</dc:format>
        <dc:type
           rdf:resource="http://purl.org/dc/dcmitype/StillImage" />
        <dc:title />
      </cc:Work>
    </rdf:RDF>
  </metadata>
  <defs
     id="defs3071" />
  <sodipodi:namedview
     pagecolor="#ffffff"
     bordercolor="#666666"
     borderopacity="1"
     objecttolerance="10"
     gridtolerance="10"
     guidetolerance="10"
     inkscape:pageopacity="0"
     inkscape:pageshadow="2"
     inkscape:window-width="1108"
     inkscape:window-height="653"
     id="namedview3069"
     showgrid="false"
     inkscape:zoom="0.65059337"
     inkscape:cx="130.81029"
     inkscape:cy="358.20614"
     inkscape:window-x="15"
     inkscape:window-y="39"
     inkscape:window-maximized="0"
     inkscape:current-layer="svg3067" />
  <path
     inkscape:connector-curvature="0"
     id="path2996"
     d="m 68.777558,473.25045 c -1.60785,-1.60785 -1.35743,-428.076159 0.2521,-429.315582 0.79702,-0.613749 69.740442,-0.748717 190.250002,-0.372445 l 189,0.590123 0.25229,214.280504 c 0.20126,170.92883 -10e-4,214.36278 -1,214.68717 -2.95046,0.9581 -377.797622,1.087 -378.754392,0.13023 z"
     style="fill:#3f3f3f;fill-opacity:1" />
  <path
     inkscape:connector-curvature="0"
     id="path2986"
     d="m 65.802129,258.45117 0,-215.108095 30.760611,0 30.76059,0 0,215.108095 0,215.10809 -30.76059,0 -30.760611,0 0,-215.10809 z M 275.07504,380.00525 c -8.75092,-0.93282 -20.61995,-3.51384 -29.6708,-6.45217 -34.80105,-11.29801 -64.22653,-40.96003 -75.71669,-76.32535 -4.97135,-15.3012 -6.41544,-24.01507 -6.42617,-38.77656 -0.0319,-43.83631 22.78997,-82.95362 61.85211,-106.01639 6.34518,-3.74627 20.93567,-9.54969 31.29413,-12.44734 6.56322,-1.83598 10.33125,-2.11857 28.24858,-2.11857 22.92211,0 26.6554,0.65041 45.05278,7.84898 16.11395,6.30512 27.69448,14.02511 40.95108,27.29955 17.70509,17.72879 28.7782,38.81843 33.66218,64.1121 2.00135,10.3651 2.24653,29.83062 0.50871,40.39327 -2.14417,13.03269 -8.62699,31.00978 -15.15993,42.03914 -21.6841,36.60855 -58.06643,58.47481 -100.52125,60.41462 -5.52231,0.25231 -11.85594,0.26524 -14.07473,0.0287 z m -54.54211,-42.7821 c 6.79521,-3.33267 13.02107,-6.05939 13.83525,-6.05939 3.46548,0 18.17472,-8.2288 22.89206,-12.80653 4.95526,-4.8086 5.02374,-4.96078 5.74006,-12.75484 1.06924,-11.63409 0.33549,-15.69875 -3.8174,-21.14662 -3.26536,-4.2836 -5.62882,-9.88873 -7.22678,-17.13885 -0.33313,-1.51144 -1.5323,-3.24464 -2.66484,-3.85157 -5.41305,-2.90086 -7.92567,-14.23878 -4.3623,-19.68446 1.49668,-2.28729 1.4841,-3.16927 -0.16148,-11.32581 -2.32035,-11.50111 -2.38734,-26.26271 -0.15306,-33.72039 5.07733,-16.94721 20.02064,-25.91539 41.50912,-24.91153 9.50293,0.44394 13.79609,1.90241 18.70353,6.35397 1.38674,1.25791 4.26329,2.59752 6.39232,2.97686 5.41263,0.96442 11.94617,7.69756 14.35594,14.79451 2.61245,7.69389 2.3926,21.86451 -0.52794,34.02884 -2.08398,8.67994 -2.13205,9.56 -0.64618,11.83076 1.85074,2.82837 2.12582,10.71997 0.48633,13.95204 -0.61541,1.21323 -2.65771,3.65969 -4.53845,5.43656 -2.13053,2.01288 -3.4195,4.19092 -3.4195,5.77811 0,3.35856 -4.34882,13.10151 -7.54642,16.90674 -2.37541,2.82681 -2.53902,3.73557 -2.53902,14.10304 0,8.01288 0.43099,11.91608 1.55638,14.09527 2.46746,4.77795 12.45374,11.37435 24.33424,16.07389 6.00669,2.37606 14.88332,6.30206 19.72589,8.72444 4.84253,2.42239 9.46509,4.40433 10.27243,4.40433 1.87004,0 11.25797,-10.61807 17.94835,-20.30018 8.01863,-11.60454 15.19029,-28.87343 18.08087,-43.53795 1.63556,-8.29795 1.63798,-33.97107 0,-41.69611 -6.32367,-29.89294 -21.78374,-54.67615 -45.02463,-72.1766 -8.82644,-6.64628 -22.78822,-13.8767 -34.10501,-17.662 -19.37536,-6.4808 -50.58526,-6.4808 -69.96062,0 -40.60378,13.58139 -69.92619,46.52064 -79.07505,88.82871 -2.05161,9.48747 -1.78556,35.66645 0.46083,45.3464 3.24709,13.99203 9.45949,28.8315 16.53,39.48495 6.02102,9.07214 17.12812,21.71278 19.07861,21.71278 0.82925,0 7.06743,-2.72672 13.86265,-6.05937 z"
     style="fill:#161616;fill-opacity:1" />
</svg>
